{
.appVersion = "3133";
.formatVersion = 3;
axes = (
{
name = Weight;
tag = wght;
}
);
customParameters = (
{
name = fsType;
value = (
);
},
{
name = "Use Typo Metrics";
value = 1;
},
{
name = codePageRanges;
value = (
1252
);
},
{
name = unicodeRanges;
value = (
0
);
}
);
date = "2021-06-01 13:26:22 +0000";
familyName = Outfit;
featurePrefixes = (
{
automatic = 1;
code = "languagesystem DFLT dflt;
";
name = Languagesystems;
}
);
features = (
{
automatic = 1;
code = "feature sups;
feature frac;
feature ordn;
feature pnum;
feature tnum;
feature salt;
feature ss01;
";
tag = aalt;
},
{
automatic = 1;
code = "lookup ccmp_Other_1 {
	@CombiningTopAccents = [gravecomb];
	sub [i]' @CombiningTopAccents by [idotless];
} ccmp_Other_1;
";
tag = ccmp;
},
{
automatic = 1;
code = "sub one by onesuperior;
sub two by twosuperior;
sub three by threesuperior;
sub four by foursuperior;
";
tag = sups;
},
{
automatic = 1;
code = "sub one slash four by onequarter;
sub one slash two by onehalf;
sub three slash four by threequarters;
";
tag = frac;
},
{
automatic = 1;
code = "sub [zero one two three four five six seven eight nine] [A a]' by ordfeminine;
sub [zero one two three four five six seven eight nine] [O o]' by ordmasculine;
";
tag = ordn;
},
{
automatic = 1;
code = "sub zero.tf by zero;
sub one.tf by one;
sub two.tf by two;
sub three.tf by three;
sub four.tf by four;
sub five.tf by five;
sub six.tf by six;
sub seven.tf by seven;
sub eight.tf by eight;
sub nine.tf by nine;
";
tag = pnum;
},
{
automatic = 1;
code = "sub zero by zero.tf;
sub one by one.tf;
sub two by two.tf;
sub three by three.tf;
sub four by four.tf;
sub five by five.tf;
sub six by six.tf;
sub seven by seven.tf;
sub eight by eight.tf;
sub nine by nine.tf;
";
tag = tnum;
},
{
code = "lookupflag IgnoreMarks;
sub T T by T_T;
sub T h by T_h;
sub T l by T_l;
sub f t by f_t;
sub r f by r_f;
sub r t by r_t;
sub t f by t_f;
";
tag = dlig;
},
{
code = "lookupflag IgnoreMarks;
sub f f by f_f;
sub f i by fi;
sub f l by fl;

glyphs = (
{
glyphname = A;
kernLeft = A;
kernRight = A;
lastChange = "2021-09-13 16:12:17 +0000";
layers = (
{
anchors = (
{
name = bottom;
pos = (351,0);
},
{
name = ogonek;
pos = (632,10);
},
{
name = top;
pos = (351,700);
}
);
background = {
shapes = (
{
closed = 1;
nodes = (
(362,709,l),
(342,709,l),
(24,0,l),
(146,0,l),
(377,523,l),
(322,523,l),
(552,0,l),
(678,0,l)
);
},
{
closed = 1;
nodes = (
(166,124,l),
(537,124,l),
(537,224,l),
(166,224,l)
);
}
);
};
layerId = m01;
shapes = (
{
closed = 1;
nodes = (
(146,0,l),
(372,567,l),
(330,567,l),
(554,0,l),
(678,0,l),
(392,700,l),
(312,700,l),
(24,0,l)
);
},
{
closed = 1;
nodes = (
(537,135,l),
(537,235,l),
(166,235,l),
(166,135,l)
);
}
);
width = 702;
},
{
anchors = (
{
name = bottom;
pos = (378,0);
},
{
name = ogonek;
pos = (680,10);
},
{
name = top;
pos = (378,712);
}
);
layerId = "9F43D23A-D415-475F-B4C7-798B571F7CAB";
shapes = (
{
closed = 1;
nodes = (
(210,0,l),
(414,605,l),
(342,605,l),
(541,0,l),
(749,0,l),
(481,712,l),
(277,712,l),
(6,0,l)
);
},
{
closed = 1;
nodes = (
(580,120,l),
(580,276,l),
(182,276,l),
(182,120,l)
);
}
);
width = 755;
},
{
anchors = (
{
name = bottom;
pos = (339,0);
},
{
name = ogonek;
pos = (610,10);
},
{
name = top;
pos = (339,676);
}
);
layerId = "0B0D9703-EF89-4C57-A339-A59A1335C1A4";
shapes = (
{
closed = 1;
nodes = (
(84,0,l),
(347,648,l),
(332,648,l),
(593,0,l),
(628,0,l),
(355,676,l),
(325,676,l),
(50,0,l)
);
},
{
closed = 1;
nodes = (
(514,223,l),
(514,252,l),
(165,252,l),
(165,223,l)
);
}
);
width = 678;
}
);
unicode = 65;
userData = {
KernOnName = A;
};
},
{
glyphname = AE;
kernLeft = A;
kernRight = E;
lastChange = "2021-09-16 19:52:55 +0000";
layers = (
{
layerId = "0B0D9703-EF89-4C57-A339-A59A1335C1A4";
shapes = (
{
closed = 1;
nodes = (
(84,0,l),
(346,647,l),
(505,647,l),
(505,676,l),
(325,676,l),
(50,0,l)
);
},
{
closed = 1;
nodes = (
(513,273,l),
(513,301,l),
(180,301,l),
(180,273,l)
);
},
{
closed = 1;
nodes = (
(893,0,l),
(893,29,l),
(516,29,l),
(516,0,l)
);
},
{
closed = 1;
nodes = (
(530,0,l),
(530,676,l),
(498,676,l),
(498,0,l)
);
},
{
closed = 1;
nodes = (
(863,333,l),
(863,361,l),
(510,361,l),
(510,333,l)
);
},
{
closed = 1;
nodes = (
(887,647,l),
(887,676,l),
(516,676,l),
(516,647,l)
);
}
);
width = 947;
},
{
layerId = m01;
shapes = (
{
closed = 1;
nodes = (
(146,0,l),
(383,595,l),
(592,595,l),
(592,700,l),
(312,700,l),
(24,0,l)
);
},
{
closed = 1;
nodes = (
(537,235,l),
(537,335,l),
(166,335,l),
(166,235,l)
);
},
{
closed = 1;
nodes = (
(939,0,l),
(939,105,l),
(573,105,l),
(573,0,l)
);
},
{
closed = 1;
nodes = (
(609,0,l),
(609,700,l),
(494,700,l),
(494,0,l)
);
},
{
closed = 1;
nodes = (
(905,307,l),
(905,408,l),
(573,408,l),
(573,307,l)
);
},
{
closed = 1;
nodes = (
(934,595,l),
(934,700,l),
(573,700,l),
(573,595,l)
);
}
);
width = 982;
},
{
layerId = "9F43D23A-D415-475F-B4C7-798B571F7CAB";
shapes = (
{
closed = 1;
nodes = (
(210,0,l),
(394,546,l),
(503,546,l),
(503,712,l),
(277,712,l),
(6,0,l)
);
},
{
closed = 1;
nodes = (
(540,170,l),
(540,326,l),
(182,326,l),
(182,170,l)
);
},
{
closed = 1;
nodes = (
(970,0,l),
(970,166,l),
(618,166,l),
(618,0,l)
);
},
{
closed = 1;
nodes = (
(656,0,l),
(656,712,l),
(456,712,l),
(456,0,l)
);
},
{
closed = 1;
nodes = (
(933,282,l),
(933,444,l),
(618,444,l),
(618,282,l)
);
},
{
closed = 1;
nodes = (
(964,546,l),
(964,712,l),
(618,712,l),
(618,546,l)
);
}
);
width = 1006;
}
);
metricRight = E;
unicode = 198;
},
{
glyphname = B;
kernLeft = H;
lastChange = "2021-07-28 20:34:02 +0000";
layers = (
{
background = {
shapes = (
{
closed = 1;
nodes = (
(562,612,o),
(483,700,o),
(341,700,cs),
(155,700,l),
(155,600,l),
(348,600,ls),
(408,600,o),
(447,569,o),
(447,509,cs),
(447,449,o),
(408,418,o),
(348,418,cs),
(155,418,l),
(155,318,l),
(356,318,ls),
(426,318,o),
(467,267,o),
(467,209,cs),
(467,151,o),
(426,100,o),
(356,100,cs),
(155,100,l),
(155,0,l),
(361,0,ls),
(493,0,o),
(582,91,o),
(582,209,cs),
(582,277,o),
(553,335,o),
(503,373,c),
(542,408,o),
(562,457,o),
(562,509,cs)
);
}
);
};
layerId = m01;
shapes = (
{
closed = 1;
nodes = (
(351,0,ls),
(501,0,o),
(582,91,o),
(582,199,cs),
(582,287,o),
(530,354,o),
(442,390,c),
(433,354,l),
(511,389,o),
(553,446,o),
(553,519,cs),
(553,612,o),
(484,700,o),
(342,700,cs),
(155,700,l),
(155,600,l),
(339,600,ls),
(399,600,o),
(438,569,o),
(438,509,cs),
(438,449,o),
(399,418,o),
(339,418,cs),
(155,418,l),
(155,318,l),
(356,318,ls),
(426,318,o),
(467,267,o),
(467,209,cs),
(467,151,o),
(426,100,o),
(356,100,cs),
(155,100,l),
(155,0,l)
);
},
{
closed = 1;
nodes = (
(191,0,l),
(191,700,l),
(76,700,l),
(76,0,l)
);
}
);
width = 622;
},
{
layerId = "9F43D23A-D415-475F-B4C7-798B571F7CAB";
shapes = (
{
closed = 1;
nodes = (
(387,0,ls),
(535,0,o),
(634,86,o),
(634,210,cs),
(634,324,o),
(551,403,o),
(401,413,c),
(403,344,l),
(541,353,o),
(615,421,o),
(615,523,cs),
(615,633,o),
(529,712,o),
(399,712,cs),
(221,712,l),
(221,568,l),
(343,568,ls),
(386,568,o),
(417,547,o),
(417,502,cs),
(417,457,o),
(385,436,o),
(343,436,cs),
(221,436,l),
(221,298,l),
(352,298,ls),
(403,298,o),
(436,269,o),
(436,221,cs),
(436,173,o),
(403,144,o),
(352,144,cs),
(221,144,l),
(221,0,l)
);
},
{
closed = 1;
nodes = (
(255,0,l),
(255,712,l),
(59,712,l),
(59,0,l)
);
}
);
width = 659;
},
{
background = {
shapes = (
{
closed = 0;
nodes = (
(424,354,l),
(496,374,o),
(536,440,o),
(536,507,cs),
(536,594,o),
(482,676,o),
(349,676,cs)
);
},
{
pos = (-5,0);
ref = E;
}
);
};
layerId = "0B0D9703-EF89-4C57-A339-A59A1335C1A4";
shapes = (
{
closed = 1;
nodes = (
(345,0,ls),
(478,0,o),
(564,73,o),
(564,186,cs),
(564,274,o),
(510,340,o),
(419,362,c),
(414,350,l),
(490,373,o),
(531,430,o),
(531,510,cs),
(531,613,o),
(456,676,o),
(341,676,cs),
(115,676,l),
(115,647,l),
(341,647,ls),
(437,647,o),
(499,595,o),
(499,508,cs),
(499,422,o),
(445,369,o),
(357,369,cs),
(115,369,l),
(115,342,l),
(362,342,ls),
(461,342,o),
(531,277,o),
(531,186,cs),
(531,91,o),
(459,29,o),
(350,29,cs),
(115,29,l),
(115,0,l)
);
},
{
closed = 1;
nodes = (
(131,0,l),
(131,676,l),
(99,676,l),
(99,0,l)
);
}
);
width = 627;
}
);
unicode = 66;
},
{
glyphname = C;
kernLeft = O;
kernRight = C;
lastChange = "2021-09-16 19:46:56 +0000";
layers = (
{
anchors = (
{
name = bottom;
pos = (374,0);
},
{
name = top;
pos = (374,700);
}
);
background = {
shapes = (
{
closed = 1;
nodes = (
(506,-10,o),
(592,30,o),
(656,95,c),
(578,173,l),
(536,128,o),
(479,100,o),
(394,100,cs),
(256,100,o),
(159,202,o),
(159,350,cs),
(159,497,o),
(256,600,o),
(394,600,cs),
(472,600,o),
(531,573,o),
(573,528,c),
(651,606,l),
(587,670,o),
(507,710,o),
(394,710,cs),
(190,710,o),
(41,550,o),
(41,350,cs),
(41,149,o),
(190,-10,o),
(394,-10,cs)
);
}
);
};
layerId = m01;
shapes = (
{
closed = 1;
nodes = (
(506,-10,o),
(592,30,o),
(656,95,c),
(578,173,l),
(536,128,o),
(479,100,o),
(394,100,cs),
(256,100,o),
(159,202,o),
(159,350,cs),
(159,497,o),
(256,600,o),
(394,600,cs),
(472,600,o),
(531,573,o),
(573,528,c),
(651,606,l),
(587,670,o),
(507,710,o),
(394,710,cs),
(190,710,o),
(41,550,o),
(41,350,cs),
(41,149,o),
(190,-10,o),
(394,-10,cs)
);
}
);
width = 683;
},
{
anchors = (
{
name = bottom;
pos = (382,0);
},
{
name = top;
pos = (403,712);
}
);
layerId = "9F43D23A-D415-475F-B4C7-798B571F7CAB";
shapes = (
{
closed = 1;
nodes = (
(530,-12,o),
(614,24,o),
(685,85,c),
(551,219,l),
(516,183,o),
(469,164,o),
(409,164,cs),
(302,164,o),
(227,238,o),
(227,357,cs),
(227,475,o),
(302,548,o),
(409,548,cs),
(470,548,o),
(516,527,o),
(548,492,c),
(681,626,l),
(613,687,o),
(520,724,o),
(409,724,cs),
(191,724,o),
(23,569,o),
(23,357,cs),
(23,145,o),
(193,-12,o),
(411,-12,cs)
);
}
);
width = 695;
},
{
anchors = (
{
name = bottom;
pos = (388,0);
},
{
name = top;
pos = (388,676);
}
);
layerId = "0B0D9703-EF89-4C57-A339-A59A1335C1A4";
shapes = (
{
closed = 1;
nodes = (
(504,-10,o),
(590,30,o),
(650,97,c),
(627,120,l),
(573,59,o),
(493,21,o),
(402,21,cs),
(230,21,o),
(100,159,o),
(100,339,cs),
(100,518,o),
(229,655,o),
(400,655,cs),
(489,655,o),
(568,618,o),
(622,557,c),
(645,580,l),
(584,646,o),
(497,686,o),
(400,686,cs),
(210,686,o),
(66,535,o),
(66,339,cs),
(66,143,o),
(212,-10,o),
(405,-10,cs)
);
}
);
width = 703;
}
);
unicode = 67;
userData = {
KernOnName = C;
};
},
{
glyphname = D;
kernLeft = H;
kernRight = D;
lastChange = "2021-09-13 17:00:54 +0000";
layers = (
{
layerId = m01;
shapes = (
{
closed = 1;
nodes = (
(344,0,ls),
(545,0,o),
(699,152,o),
(699,350,cs),
(699,549,o),
(544,700,o),
(342,700,cs),
(155,700,l),
(155,595,l),
(339,595,ls),
(481,595,o),
(581,495,o),
(581,351,cs),
(581,205,o),
(482,105,o),
(339,105,cs),
(155,105,l),
(155,0,l)
);
},
{
closed = 1;
nodes = (
(191,0,l),
(191,700,l),
(76,700,l),
(76,0,l)
);
}
);
width = 740;
},
{
layerId = "9F43D23A-D415-475F-B4C7-798B571F7CAB";
shapes = (
{
closed = 1;
nodes = (
(361,0,ls),
(582,0,o),
(745,141,o),
(745,356,cs),
(745,572,o),
(582,712,o),
(359,712,cs),
(183,712,l),
(183,542,l),
(359,542,ls),
(470,542,o),
(541,481,o),
(541,357,cs),
(541,232,o),
(471,170,o),
(359,170,cs),
(193,170,l),
(193,0,l)
);
},
{
closed = 1;
nodes = (
(259,0,l),
(259,712,l),
(59,712,l),
(59,0,l)
);
}
);
width = 768;
},
{
layerId = "0B0D9703-EF89-4C57-A339-A59A1335C1A4";
shapes = (
{
closed = 1;
nodes = (
(333,0,ls),
(531,0,o),
(672,142,o),
(672,338,cs),
(672,535,o),
(530,676,o),
(331,676,cs),
(114,676,l),
(114,646,l),
(331,646,ls),
(511,646,o),
(638,517,o),
(638,339,cs),
(638,159,o),
(511,30,o),
(331,30,cs),
(110,30,l),
(110,0,l)
);
},
{
closed = 1;
nodes = (
(131,0,l),
(131,676,l),
(99,676,l),
(99,0,l)
);
}
);
width = 738;
}
);
unicode = 68;
},
{
glyphname = Eth;
kernLeft = H;
kernRight = D;
lastChange = "2021-09-13 17:01:33 +0000";
layers = (
{
layerId = "0B0D9703-EF89-4C57-A339-A59A1335C1A4";
shapes = (
{
closed = 1;
nodes = (
(14,334,l),
(356,334,l),
(356,362,l),
(14,362,l)
);
},
{
alignment = -1;
ref = D;
}
);
width = 738;
},
{
layerId = m01;
shapes = (
{
closed = 1;
nodes = (
(24,305,l),
(406,305,l),
(406,400,l),
(24,400,l)
);
},
{
alignment = -1;
pos = (20,0);
ref = D;
}
);
width = 760;
},
{
layerId = "9F43D23A-D415-475F-B4C7-798B571F7CAB";
shapes = (
{
closed = 1;
nodes = (
(18,285,l),
(403,285,l),
(403,430,l),
(18,430,l)
);
},
{
alignment = -1;
pos = (20,0);
ref = D;
}
);
width = 788;
}
);
metricRight = D;
unicode = 208;
},
{
glyphname = E;
kernLeft = H;
kernRight = E;
lastChange = "2021-09-13 16:47:53 +0000";
layers = (
{
anchors = (
{
name = bottom;
pos = (295,0);
},
{
name = ogonek;
pos = (531,10);
},
{
name = top;
pos = (315,700);
},
{
name = topleft;
pos = (20,700);
}
);
layerId = m01;
shapes = (
{
closed = 1;
nodes = (
(191,0,l),
(191,700,l),
(76,700,l),
(76,0,l)
);
},
{
closed = 1;
nodes = (
(547,0,l),
(547,105,l),
(155,105,l),
(155,0,l)
);
},
{
closed = 1;
nodes = (
(513,307,l),
(513,408,l),
(155,408,l),
(155,307,l)
);
},
{
closed = 1;
nodes = (
(542,595,l),
(542,700,l),
(155,700,l),
(155,595,l)
);
}
);
width = 590;
},
{
anchors = (
{
name = bottom;
pos = (320,0);
},
{
name = ogonek;
pos = (575,10);
},
{
name = top;
pos = (340,712);
},
{
name = topleft;
pos = (20,712);
}
);
background = {
shapes = (
{
pos = (-2,0);
ref = H;
}
);
};
layerId = "9F43D23A-D415-475F-B4C7-798B571F7CAB";
shapes = (
{
closed = 1;
nodes = (
(259,0,l),
(259,712,l),
(59,712,l),
(59,0,l)
);
},
{
closed = 1;
nodes = (
(603,0,l),
(603,166,l),
(221,166,l),
(221,0,l)
);
},
{
closed = 1;
nodes = (
(566,282,l),
(566,444,l),
(221,444,l),
(221,282,l)
);
},
{
closed = 1;
nodes = (
(597,546,l),
(597,712,l),
(221,712,l),
(221,546,l)
);
}
);
width = 639;
},
{
anchors = (
{
name = bottom;
pos = (294,0);
},
{
name = ogonek;
pos = (529,10);
},
{
name = top;
pos = (317,676);
},
{
name = topleft;
pos = (20,676);
}
);
layerId = "0B0D9703-EF89-4C57-A339-A59A1335C1A4";
shapes = (
{
closed = 1;
nodes = (
(131,0,l),
(131,676,l),
(99,676,l),
(99,0,l)
);
},
{
closed = 1;
nodes = (
(534,0,l),
(534,29,l),
(117,29,l),
(117,0,l)
);
},
{
closed = 1;
nodes = (
(504,333,l),
(504,361,l),
(117,361,l),
(117,333,l)
);
},
{
closed = 1;
nodes = (
(528,647,l),
(528,676,l),
(117,676,l),
(117,647,l)
);
}
);
width = 588;
}
);
unicode = 69;
userData = {
KernOnName = E;
};
},
{
glyphname = F;
kernLeft = H;
lastChange = "2021-07-22 20:34:11 +0000";
layers = (
{
layerId = m01;
shapes = (
{
closed = 1;
nodes = (
(191,0,l),
(191,700,l),
(76,700,l),
(76,0,l)
);
},
{
closed = 1;
nodes = (
(511,300,l),
(511,405,l),
(155,405,l),
(155,300,l)
);
},
{
closed = 1;
nodes = (
(528,595,l),
(528,700,l),
(155,700,l),
(155,595,l)
);
}
);
width = 566;
},
{
layerId = "9F43D23A-D415-475F-B4C7-798B571F7CAB";
shapes = (
{
closed = 1;
nodes = (
(259,0,l),
(259,712,l),
(59,712,l),
(59,0,l)
);
},
{
closed = 1;
nodes = (
(571,253,l),
(571,419,l),
(221,419,l),
(221,253,l)
);
},
{
closed = 1;
nodes = (
(586,546,l),
(586,712,l),
(221,712,l),
(221,546,l)
);
}
);
width = 614;
},
{
layerId = "0B0D9703-EF89-4C57-A339-A59A1335C1A4";
shapes = (
{
closed = 1;
nodes = (
(131,0,l),
(131,676,l),
(99,676,l),
(99,0,l)
);
},
{
closed = 1;
nodes = (
(498,321,l),
(498,350,l),
(117,350,l),
(117,321,l)
);
},
{
closed = 1;
nodes = (
(515,647,l),
(515,676,l),
(117,676,l),
(117,647,l)
);
}
);
width = 567;
}
);
unicode = 70;
},
{
glyphname = G;
kernLeft = O;
lastChange = "2021-07-28 20:29:34 +0000";
layers = (
{
background = {
shapes = (
{
closed = 1;
nodes = (
(592,-10,o),
(734,115,o),
(734,379,c),
(388,379,l),
(388,274,l),
(687,274,l),
(615,326,l),
(615,178,o),
(530,100,o),
(390,100,cs),
(258,100,o),
(159,203,o),
(159,351,cs),
(159,498,o),
(256,600,o),
(400,600,cs),
(480,600,o),
(553,568,o),
(595,509,c),
(673,587,l),
(609,665,o),
(511,710,o),
(400,710,cs),
(197,710,o),
(41,551,o),
(41,351,cs),
(41,151,o),
(199,-10,o),
(392,-10,cs)
);
}
);
};
layerId = m01;
shapes = (
{
closed = 1;
nodes = (
(590,-10,o),
(734,113,o),
(734,363,cs),
(734,379,l),
(388,379,l),
(388,274,l),
(687,274,l),
(615,326,l),
(615,178,o),
(530,100,o),
(390,100,cs),
(258,100,o),
(159,203,o),
(159,351,cs),
(159,498,o),
(256,600,o),
(400,600,cs),
(480,600,o),
(553,568,o),
(595,509,c),
(673,587,l),
(609,665,o),
(511,710,o),
(400,710,cs),
(197,710,o),
(41,551,o),
(41,351,cs),
(41,151,o),
(199,-10,o),
(392,-10,cs)
);
}
);
width = 772;
},
{
background = {
shapes = (
{
closed = 1;
nodes = (
(639,-12,o),
(781,147,o),
(781,420,c),
(386,420,l),
(386,260,l),
(717,250,l),
(580,337,l),
(580,231,o),
(520,164,o),
(413,164,cs),
(301,164,o),
(226,241,o),
(226,357,cs),
(226,473,o),
(300,548,o),
(416,548,cs),
(491,548,o),
(539,520,o),
(589,453,c),
(724,588,l),
(659,675,o),
(551,724,o),
(419,724,cs),
(190,724,o),
(23,568,o),
(23,356,cs),
(23,146,o),
(189,-12,o),
(410,-12,cs)
);
}
);
};
layerId = "9F43D23A-D415-475F-B4C7-798B571F7CAB";
shapes = (
{
closed = 1;
nodes = (
(632,-12,o),
(781,133,o),
(781,390,cs),
(781,420,l),
(386,420,l),
(386,260,l),
(717,250,l),
(580,337,l),
(580,231,o),
(520,164,o),
(413,164,cs),
(301,164,o),
(226,241,o),
(226,357,cs),
(226,473,o),
(310,548,o),
(416,548,cs),
(491,548,o),
(539,520,o),
(589,463,c),
(724,598,l),
(659,675,o),
(551,724,o),
(419,724,cs),
(200,724,o),
(23,568,o),
(23,356,cs),
(23,146,o),
(189,-12,o),
(410,-12,cs)
);
}
);
width = 797;
},
{
background = {
shapes = (
{
pos = (-5,0);
ref = O;
}
);
};
layerId = "0B0D9703-EF89-4C57-A339-A59A1335C1A4";
shapes = (
{
closed = 1;
nodes = (
(594,-9,o),
(715,120,o),
(715,335,cs),
(715,341,l),
(392,341,l),
(392,312,l),
(694,312,l),
(682,322,l),
(680,135,o),
(571,22,o),
(404,22,cs),
(226,22,o),
(100,154,o),
(100,337,cs),
(100,521,o),
(228,656,o),
(407,656,cs),
(508,656,o),
(591,613,o),
(644,534,c),
(668,558,l),
(612,640,o),
(517,687,o),
(407,687,cs),
(210,687,o),
(66,538,o),
(66,338,cs),
(66,138,o),
(208,-9,o),
(406,-9,cs)
);
}
);
width = 774;
}
);
unicode = 71;
},
{
glyphname = H;
kernLeft = H;
kernRight = H;
lastChange = "2021-07-28 19:16:30 +0000";
layers = (
{
layerId = m01;
shapes = (
{
closed = 1;
nodes = (
(191,0,l),
(191,700,l),
(76,700,l),
(76,0,l)
);
},
{
closed = 1;
nodes = (
(636,0,l),
(636,700,l),
(521,700,l),
(521,0,l)
);
},
{
closed = 1;
nodes = (
(546,310,l),
(546,415,l),
(155,415,l),
(155,310,l)
);
}
);
width = 712;
},
{
layerId = "9F43D23A-D415-475F-B4C7-798B571F7CAB";
shapes = (
{
closed = 1;
nodes = (
(259,0,l),
(259,712,l),
(59,712,l),
(59,0,l)
);
},
{
closed = 1;
nodes = (
(689,0,l),
(689,712,l),
(489,712,l),
(489,0,l)
);
},
{
closed = 1;
nodes = (
(567,280,l),
(567,446,l),
(168,446,l),
(168,280,l)
);
}
);
width = 748;
},
{
layerId = "0B0D9703-EF89-4C57-A339-A59A1335C1A4";
shapes = (
{
closed = 1;
nodes = (
(131,0,l),
(131,676,l),
(99,676,l),
(99,0,l)
);
},
{
closed = 1;
nodes = (
(588,0,l),
(588,676,l),
(556,676,l),
(556,0,l)
);
},
{
closed = 1;
nodes = (
(572,333,l),
(572,362,l),
(117,362,l),
(117,333,l)
);
}
);
width = 687;
}
);
unicode = 72;
userData = {
KernOnName = H;
KernOnSpecialSpacing = {
L = hyphen;
};
};
},
{
glyphname = I;
kernLeft = H;
kernRight = H;
lastChange = "2021-09-13 16:48:34 +0000";
layers = (
{
anchors = (
{
name = bottom;
pos = (134,0);
},
{
name = ogonek;
pos = (240,10);
},
{
name = top;
pos = (134,700);
},
{
name = topleft;
pos = (20,700);
}
);
layerId = m01;
shapes = (
{
closed = 1;
nodes = (
(191,0,l),
(191,700,l),
(76,700,l),
(76,0,l)
);
}
);
width = 267;
},
{
anchors = (
{
name = bottom;
pos = (159,0);
},
{
name = ogonek;
pos = (286,10);
},
{
name = top;
pos = (159,712);
},
{
name = topleft;
pos = (20,712);
}
);
layerId = "9F43D23A-D415-475F-B4C7-798B571F7CAB";
shapes = (
{
closed = 1;
nodes = (
(259,0,l),
(259,712,l),
(59,712,l),
(59,0,l)
);
}
);
width = 318;
},
{
anchors = (
{
name = bottom;
pos = (115,0);
},
{
name = ogonek;
pos = (207,10);
},
{
name = top;
pos = (115,676);
},
{
name = topleft;
pos = (20,676);
}
);
layerId = "0B0D9703-EF89-4C57-A339-A59A1335C1A4";
shapes = (
{
closed = 1;
nodes = (
(131,0,l),
(131,676,l),
(99,676,l),
(99,0,l)
);
}
);
width = 230;
}
);
unicode = 73;
},
{
glyphname = J;
kernRight = U;
lastChange = "2021-07-28 20:17:13 +0000";
layers = (
{
layerId = m01;
shapes = (
{
closed = 1;
nodes = (
(339,-10,o),
(427,84,o),
(427,225,cs),
(427,700,l),
(312,700,l),
(312,216,ls),
(312,143,o),
(272,100,o),
(204,100,cs),
(163,100,o),
(127,119,o),
(104,154,c),
(23,80,l),
(62,25,o),
(127,-10,o),
(208,-10,cs)
);
}
);
width = 494;
},
{
layerId = "9F43D23A-D415-475F-B4C7-798B571F7CAB";
shapes = (
{
closed = 1;
nodes = (
(410,-12,o),
(522,94,o),
(522,270,cs),
(522,712,l),
(321,712,l),
(321,262,ls),
(321,194,o),
(279,164,o),
(230,164,cs),
(188,164,o),
(158,180,o),
(133,212,c),
(5,84,l),
(59,21,o),
(125,-12,o),
(222,-12,cs)
);
}
);
width = 569;
},
{
layerId = "0B0D9703-EF89-4C57-A339-A59A1335C1A4";
shapes = (
{
closed = 1;
nodes = (
(309,-10,o),
(404,57,o),
(404,193,cs),
(404,676,l),
(372,676,l),
(372,199,ls),
(372,70,o),
(291,21,o),
(215,21,cs),
(151,21,o),
(107,45,o),
(71,90,c),
(49,68,l),
(91,18,o),
(142,-10,o),
(215,-10,cs)
);
}
);
width = 496;
}
);
unicode = 74;
},
{
glyphname = K;
kernLeft = H;
lastChange = "2021-07-22 20:34:11 +0000";
layers = (
{
background = {
shapes = (
{
pos = (8,0);
ref = H;
}
);
};
layerId = m01;
shapes = (
{
closed = 1;
nodes = (
(649,0,l),
(290,399,l),
(289,336,l),
(639,700,l),
(492,700,l),
(175,365,l),
(499,0,l)
);
},
{
closed = 1;
nodes = (
(191,0,l),
(191,700,l),
(76,700,l),
(76,0,l)
);
}
);
width = 672;
},
{
layerId = "9F43D23A-D415-475F-B4C7-798B571F7CAB";
shapes = (
{
closed = 1;
nodes = (
(731,0,l),
(445,406,l),
(446,342,l),
(720,712,l),
(479,712,l),
(242,371,l),
(491,0,l)
);
},
{
closed = 1;
nodes = (
(259,0,l),
(259,712,l),
(59,712,l),
(59,0,l)
);
}
);
width = 737;
},
{
background = {
shapes = (
{
pos = (-5,0);
ref = H;
}
);
};
layerId = "0B0D9703-EF89-4C57-A339-A59A1335C1A4";
shapes = (
{
closed = 1;
nodes = (
(598,0,l),
(155,363,l),
(155,342,l),
(588,676,l),
(539,676,l),
(120,352,l),
(548,0,l)
);
},
{
closed = 1;
nodes = (
(131,0,l),
(131,676,l),
(99,676,l),
(99,0,l)
);
}
);
width = 646;
}
);
unicode = 75;
userData = {
KernOnName = K;
};
},
{
glyphname = L;
kernLeft = H;
lastChange = "2021-07-22 20:34:11 +0000";
layers = (
{
layerId = m01;
shapes = (
{
closed = 1;
nodes = (
(191,0,l),
(191,700,l),
(76,700,l),
(76,0,l)
);
},
{
closed = 1;
nodes = (
(521,0,l),
(521,105,l),
(155,105,l),
(155,0,l)
);
}
);
width = 550;
},
{
layerId = "9F43D23A-D415-475F-B4C7-798B571F7CAB";
shapes = (
{
closed = 1;
nodes = (
(259,0,l),
(259,712,l),
(59,712,l),
(59,0,l)
);
},
{
closed = 1;
nodes = (
(555,0,l),
(555,170,l),
(222,170,l),
(222,0,l)
);
}
);
width = 572;
},
{
layerId = "0B0D9703-EF89-4C57-A339-A59A1335C1A4";
shapes = (
{
closed = 1;
nodes = (
(131,0,l),
(131,676,l),
(99,676,l),
(99,0,l)
);
},
{
closed = 1;
nodes = (
(509,0,l),
(509,29,l),
(117,29,l),
(117,0,l)
);
}
);
width = 558;
}
);
unicode = 76;
userData = {
KernOnName = L;
};
},
{
glyphname = M;
kernLeft = H;
kernRight = H;
lastChange = "2021-07-22 20:34:11 +0000";
layers = (
{
background = {
shapes = (
{
closed = 1;
nodes = (
(191,0,l),
(191,476,l),
(96,710,l),
(76,710,l),
(76,0,l)
);
},
{
closed = 1;
nodes = (
(411,126,l),
(431,126,l),
(441,265,l),
(96,710,l),
(96,531,l)
);
},
{
closed = 1;
nodes = (
(766,710,l),
(746,710,l),
(651,476,l),
(651,0,l),
(766,0,l)
);
},
{
closed = 1;
nodes = (
(746,710,l),
(401,265,l),
(411,126,l),
(431,126,l),
(746,531,l)
);
}
);
};
layerId = m01;
shapes = (
{
closed = 1;
nodes = (
(191,0,l),
(191,498,l),
(165,491,l),
(381,136,l),
(461,136,l),
(677,491,l),
(651,498,l),
(651,0,l),
(766,0,l),
(766,700,l),
(686,700,l),
(395,221,l),
(447,221,l),
(156,700,l),
(76,700,l),
(76,0,l)
);
}
);
width = 842;
},
{
layerId = "9F43D23A-D415-475F-B4C7-798B571F7CAB";
shapes = (
{
closed = 1;
nodes = (
(257,0,l),
(257,384,l),
(229,376,l),
(373,168,l),
(501,168,l),
(646,376,l),
(617,384,l),
(617,0,l),
(815,0,l),
(815,712,l),
(670,712,l),
(406,324,l),
(469,324,l),
(204,712,l),
(59,712,l),
(59,0,l)
);
}
);
width = 874;
},
{
background = {
shapes = (
{
closed = 1;
nodes = (
(456,136,l),
(681,507,l),
(681,700,l),
(386,214,l),
(376,136,l)
);
},
{
closed = 1;
nodes = (
(186,0,l),
(186,496,l),
(151,700,l),
(71,700,l),
(71,0,l)
);
},
{
closed = 1;
nodes = (
(456,136,l),
(446,214,l),
(151,700,l),
(151,507,l),
(376,136,l)
);
},
{
closed = 1;
nodes = (
(761,0,l),
(761,700,l),
(681,700,l),
(646,496,l),
(646,0,l)
);
}
);
};
layerId = "0B0D9703-EF89-4C57-A339-A59A1335C1A4";
shapes = (
{
closed = 1;
nodes = (
(131,0,l),
(131,622,l),
(123,620,l),
(403,161,l),
(427,161,l),
(707,620,l),
(699,622,l),
(699,0,l),
(731,0,l),
(731,676,l),
(707,676,l),
(404,180,l),
(426,180,l),
(123,676,l),
(99,676,l),
(99,0,l)
);
}
);
width = 830;
}
);
unicode = 77;
},
{
glyphname = N;
kernLeft = H;
kernRight = H;
lastChange = "2021-09-13 16:49:04 +0000";
layers = (
{
anchors = (
{
name = bottom;
pos = (359,0);
},
{
name = top;
pos = (359,700);
}
);
background = {
shapes = (
{
closed = 1;
nodes = (
(575,163,l),
(156,700,l),
(142,537,l),
(561,0,l)
);
},
{
closed = 1;
nodes = (
(191,0,l),
(191,568,l),
(156,700,l),
(76,700,l),
(76,0,l)
);
},
{
closed = 1;
nodes = (
(641,0,l),
(641,700,l),
(526,700,l),
(526,123,l),
(561,0,l)
);
}
);
};
layerId = m01;
shapes = (
{
closed = 1;
nodes = (
(191,0,l),
(191,568,l),
(156,700,l),
(76,700,l),
(76,0,l)
);
},
{
closed = 1;
nodes = (
(575,153,l),
(156,700,l),
(142,547,l),
(561,0,l)
);
},
{
closed = 1;
nodes = (
(641,0,l),
(641,700,l),
(526,700,l),
(526,123,l),
(561,0,l)
);
}
);
width = 717;
},
{
anchors = (
{
name = bottom;
pos = (379,0);
},
{
name = top;
pos = (379,712);
}
);
background = {
shapes = (
{
pos = (-2,0);
ref = H;
}
);
};
layerId = "9F43D23A-D415-475F-B4C7-798B571F7CAB";
shapes = (
{
closed = 1;
nodes = (
(259,0,l),
(259,562,l),
(199,712,l),
(59,712,l),
(59,0,l)
);
},
{
closed = 1;
nodes = (
(612,193,l),
(199,712,l),
(136,519,l),
(549,0,l)
);
},
{
closed = 1;
nodes = (
(699,0,l),
(699,712,l),
(499,712,l),
(499,158,l),
(549,0,l)
);
}
);
width = 758;
},
{
anchors = (
{
name = bottom;
pos = (345,0);
},
{
name = top;
pos = (345,676);
}
);
layerId = "0B0D9703-EF89-4C57-A339-A59A1335C1A4";
shapes = (
{
closed = 1;
nodes = (
(131,0,l),
(131,634,l),
(123,676,l),
(99,676,l),
(99,0,l)
);
},
{
closed = 1;
nodes = (
(573,43,l),
(123,676,l),
(116,633,l),
(566,0,l)
);
},
{
closed = 1;
nodes = (
(590,0,l),
(590,676,l),
(558,676,l),
(558,42,l),
(566,0,l)
);
}
);
width = 689;
}
);
unicode = 78;
},
{
glyphname = O;
kernLeft = O;
kernRight = O;
lastChange = "2021-09-13 16:50:04 +0000";
layers = (
{
anchors = (
{
name = bottom;
pos = (397,0);
},
{
name = center;
pos = (397,350);
},
{
name = ogonek;
pos = (715,10);
},
{
name = top;
pos = (397,700);
},
{
name = topleft;
pos = (20,700);
},
{
name = topright;
pos = (774,700);
}
);
layerId = m01;
shapes = (
{
closed = 1;
nodes = (
(596,-10,o),
(753,150,o),
(753,350,cs),
(753,551,o),
(595,710,o),
(396,710,cs),
(197,710,o),
(40,551,o),
(40,351,cs),
(40,151,o),
(199,-10,o),
(398,-10,cs)
);
},
{
closed = 1;
nodes = (
(256,100,o),
(158,203,o),
(158,351,cs),
(158,498,o),
(256,600,o),
(396,600,cs),
(536,600,o),
(635,497,o),
(635,351,cs),
(635,203,o),
(537,100,o),
(396,100,cs)
);
}
);
width = 794;
},
{
anchors = (
{
name = bottom;
pos = (409,0);
},
{
name = center;
pos = (409,356);
},
{
name = ogonek;
pos = (736,10);
},
{
name = top;
pos = (409,712);
},
{
name = topleft;
pos = (20,712);
},
{
name = topright;
pos = (798,712);
}
);
layerId = "9F43D23A-D415-475F-B4C7-798B571F7CAB";
shapes = (
{
closed = 1;
nodes = (
(632,-14,o),
(795,144,o),
(795,356,cs),
(795,569,o),
(632,726,o),
(409,726,cs),
(186,726,o),
(23,569,o),
(23,357,cs),
(23,145,o),
(188,-14,o),
(411,-14,cs)
);
},
{
closed = 1;
nodes = (
(297,162,o),
(227,238,o),
(227,357,cs),
(227,475,o),
(297,550,o),
(409,550,cs),
(520,550,o),
(591,475,o),
(591,357,cs),
(591,238,o),
(521,162,o),
(409,162,cs)
);
}
);
width = 818;
},
{
anchors = (
{
name = bottom;
pos = (397,0);
},
{
name = center;
pos = (397,338);
},
{
name = ogonek;
pos = (714,10);
},
{
name = top;
pos = (397,676);
},
{
name = topleft;
pos = (20,676);
},
{
name = topright;
pos = (773,676);
}
);
layerId = "0B0D9703-EF89-4C57-A339-A59A1335C1A4";
shapes = (
{
closed = 1;
nodes = (
(586,-10,o),
(727,142,o),
(727,338,cs),
(727,535,o),
(585,686,o),
(396,686,cs),
(207,686,o),
(66,535,o),
(66,339,cs),
(66,143,o),
(209,-10,o),
(398,-10,cs)
);
},
{
closed = 1;
nodes = (
(227,21,o),
(100,159,o),
(100,339,cs),
(100,518,o),
(226,655,o),
(396,655,cs),
(566,655,o),
(693,517,o),
(693,339,cs),
(693,159,o),
(566,21,o),
(396,21,cs)
);
}
);
width = 793;
}
);
unicode = 79;
userData = {
KernOnName = O;
};
},
{
glyphname = Oslash;
kernLeft = O;
kernRight = O;
lastChange = "2021-09-13 16:54:12 +0000";
layers = (
{
layerId = "0B0D9703-EF89-4C57-A339-A59A1335C1A4";
shapes = (
{
closed = 1;
nodes = (
(76,39,l),
(96,18,l),
(715,637,l),
(695,658,l)
);
},
{
pos = (-1,0);
ref = O;
}
);
width = 793;
},
{
layerId = m01;
shapes = (
{
closed = 1;
nodes = (
(41,70,l),
(117,-6,l),
(753,630,l),
(677,706,l)
);
},
{
ref = O;
}
);
width = 794;
},
{
layerId = "9F43D23A-D415-475F-B4C7-798B571F7CAB";
shapes = (
{
closed = 1;
nodes = (
(12,80,l),
(133,-41,l),
(806,632,l),
(685,753,l)
);
},
{
ref = O;
}
);
width = 818;
}
);
unicode = 216;
},
{
glyphname = OE;
kernLeft = O;
kernRight = E;
lastChange = "2021-09-13 16:55:57 +0000";
layers = (
{
layerId = "0B0D9703-EF89-4C57-A339-A59A1335C1A4";
shapes = (
{
closed = 1;
nodes = (
(596,-10,o),
(720,142,o),
(720,338,cs),
(720,535,o),
(595,686,o),
(396,686,cs),
(207,686,o),
(66,535,o),
(66,339,cs),
(66,143,o),
(209,-10,o),
(398,-10,cs)
);
},
{
closed = 1;
nodes = (
(227,21,o),
(100,159,o),
(100,339,cs),
(100,518,o),
(226,655,o),
(396,655,cs),
(576,655,o),
(693,517,o),
(693,339,cs),
(693,159,o),
(576,21,o),
(396,21,cs)
);
},
{
closed = 1;
nodes = (
(725,0,l),
(725,676,l),
(693,676,l),
(693,0,l)
);
},
{
closed = 1;
nodes = (
(1128,0,l),
(1128,29,l),
(711,29,l),
(711,0,l)
);
},
{
closed = 1;
nodes = (
(1098,333,l),
(1098,361,l),
(711,361,l),
(711,333,l)
);
},
{
closed = 1;
nodes = (
(1122,647,l),
(1122,676,l),
(711,676,l),
(711,647,l)
);
}
);
width = 1182;
},
{
layerId = m01;
shapes = (
{
closed = 1;
nodes = (
(596,-10,o),
(723,150,o),
(723,350,cs),
(723,551,o),
(595,710,o),
(396,710,cs),
(197,710,o),
(40,551,o),
(40,351,cs),
(40,151,o),
(199,-10,o),
(398,-10,cs)
);
},
{
closed = 1;
nodes = (
(256,100,o),
(158,203,o),
(158,351,cs),
(158,498,o),
(256,600,o),
(396,600,cs),
(536,600,o),
(635,497,o),
(635,351,cs),
(635,203,o),
(537,100,o),
(396,100,cs)
);
},
{
closed = 1;
nodes = (
(750,0,l),
(750,700,l),
(635,700,l),
(635,0,l)
);
},
{
closed = 1;
nodes = (
(1106,0,l),
(1106,105,l),
(714,105,l),
(714,0,l)
);
},
{
closed = 1;
nodes = (
(1072,307,l),
(1072,408,l),
(714,408,l),
(714,307,l)
);
},
{
closed = 1;
nodes = (
(1101,595,l),
(1101,700,l),
(714,700,l),
(714,595,l)
);
}
);
width = 1149;
},
{
layerId = "9F43D23A-D415-475F-B4C7-798B571F7CAB";
shapes = (
{
closed = 1;
nodes = (
(622,-14,o),
(705,144,o),
(705,356,cs),
(705,569,o),
(622,726,o),
(399,726,cs),
(186,726,o),
(23,569,o),
(23,357,cs),
(23,145,o),
(188,-14,o),
(401,-14,cs)
);
},
{
closed = 1;
nodes = (
(297,162,o),
(227,238,o),
(227,357,cs),
(227,475,o),
(297,550,o),
(409,550,cs),
(520,550,o),
(591,475,o),
(591,357,cs),
(591,238,o),
(521,162,o),
(409,162,cs)
);
},
{
closed = 1;
nodes = (
(791,0,l),
(791,712,l),
(591,712,l),
(591,0,l)
);
},
{
closed = 1;
nodes = (
(1135,0,l),
(1135,166,l),
(753,166,l),
(753,0,l)
);
},
{
closed = 1;
nodes = (
(1098,282,l),
(1098,444,l),
(753,444,l),
(753,282,l)
);
},
{
closed = 1;
nodes = (
(1129,546,l),
(1129,712,l),
(753,712,l),
(753,546,l)
);
}
);
width = 1171;
}
);
metricLeft = O;
metricRight = E;
unicode = 338;
},
{
glyphname = P;
kernLeft = H;
lastChange = "2021-07-28 19:18:03 +0000";
layers = (
{
background = {
shapes = (
{
closed = 1;
nodes = (
(401,368,o),
(453,419,o),
(453,484,cs),
(453,548,o),
(401,600,o),
(337,600,cs),
(272,600,o),
(221,548,o),
(221,484,cs),
(221,419,o),
(272,368,o),
(337,368,cs)
);
}
);
};
layerId = m01;
shapes = (
{
closed = 1;
nodes = (
(336,264,ls),
(468,264,o),
(568,350,o),
(568,482,cs),
(568,614,o),
(468,700,o),
(336,700,cs),
(155,700,l),
(155,600,l),
(330,600,ls),
(402,600,o),
(453,554,o),
(453,482,cs),
(453,410,o),
(402,364,o),
(330,364,cs),
(155,364,l),
(155,264,l)
);
},
{
closed = 1;
nodes = (
(191,0,l),
(191,700,l),
(76,700,l),
(76,0,l)
);
}
);
width = 604;
},
{
layerId = "9F43D23A-D415-475F-B4C7-798B571F7CAB";
shapes = (
{
closed = 1;
nodes = (
(389,250,ls),
(526,250,o),
(634,336,o),
(634,481,cs),
(634,626,o),
(526,712,o),
(389,712,cs),
(221,712,l),
(221,568,l),
(350,568,ls),
(395,568,o),
(436,539,o),
(436,481,cs),
(436,423,o),
(395,394,o),
(350,394,cs),
(221,394,l),
(221,250,l)
);
},
{
closed = 1;
nodes = (
(259,0,l),
(259,712,l),
(59,712,l),
(59,0,l)
);
}
);
width = 652;
},
{
layerId = "0B0D9703-EF89-4C57-A339-A59A1335C1A4";
shapes = (
{
closed = 1;
nodes = (
(350,288,ls),
(465,288,o),
(551,364,o),
(551,482,cs),
(551,600,o),
(465,676,o),
(350,676,cs),
(115,676,l),
(115,647,l),
(345,647,ls),
(444,647,o),
(518,584,o),
(518,482,cs),
(518,380,o),
(444,317,o),
(345,317,cs),
(115,317,l),
(115,288,l)
);
},
{
closed = 1;
nodes = (
(131,0,l),
(131,676,l),
(99,676,l),
(99,0,l)
);
}
);
width = 611;
}
);
unicode = 80;
},
{
glyphname = Thorn;
lastChange = "2021-09-13 16:57:03 +0000";
layers = (
{
layerId = "0B0D9703-EF89-4C57-A339-A59A1335C1A4";
shapes = (
{
closed = 1;
nodes = (
(350,153,ls),
(465,153,o),
(551,229,o),
(551,347,cs),
(551,465,o),
(465,541,o),
(350,541,cs),
(115,541,l),
(115,512,l),
(345,512,ls),
(444,512,o),
(518,449,o),
(518,347,cs),
(518,245,o),
(444,182,o),
(345,182,cs),
(115,182,l),
(115,153,l)
);
},
{
closed = 1;
nodes = (
(131,0,l),
(131,676,l),
(99,676,l),
(99,0,l)
);
}
);
width = 611;
},
{
layerId = m01;
shapes = (
{
closed = 1;
nodes = (
(336,140,ls),
(468,140,o),
(568,226,o),
(568,358,cs),
(568,490,o),
(468,576,o),
(336,576,cs),
(155,576,l),
(155,476,l),
(330,476,ls),
(402,476,o),
(453,430,o),
(453,358,cs),
(453,286,o),
(402,240,o),
(330,240,cs),
(155,240,l),
(155,140,l)
);
},
{
closed = 1;
nodes = (
(191,0,l),
(191,700,l),
(76,700,l),
(76,0,l)
);
}
);
width = 604;
},
{
layerId = "9F43D23A-D415-475F-B4C7-798B571F7CAB";
shapes = (
{
closed = 1;
nodes = (
(389,130,ls),
(526,130,o),
(634,216,o),
(634,361,cs),
(634,506,o),
(526,592,o),
(389,592,cs),
(221,592,l),
(221,448,l),
(350,448,ls),
(395,448,o),
(436,419,o),
(436,361,cs),
(436,303,o),
(395,274,o),
(350,274,cs),
(221,274,l),
(221,130,l)
);
},
{
closed = 1;
nodes = (
(259,0,l),
(259,712,l),
(59,712,l),
(59,0,l)
);
}
);
width = 652;
}
);
unicode = 222;
},
{
glyphname = Q;
kernLeft = O;
lastChange = "2021-07-28 20:30:01 +0000";
layers = (
{
layerId = m01;
shapes = (
{
closed = 1;
nodes = (
(597,-10,o),
(754,150,o),
(754,350,cs),
(754,551,o),
(596,710,o),
(397,710,cs),
(198,710,o),
(41,551,o),
(41,351,cs),
(41,151,o),
(200,-10,o),
(399,-10,cs)
);
},
{
closed = 1;
nodes = (
(257,100,o),
(159,203,o),
(159,351,cs),
(159,498,o),
(257,600,o),
(397,600,cs),
(537,600,o),
(636,497,o),
(636,351,cs),
(636,203,o),
(538,100,o),
(397,100,cs)
);
},
{
closed = 1;
nodes = (
(793,26,l),
(478,341,l),
(404,267,l),
(719,-48,l)
);
}
);
width = 820;
},
{
layerId = "9F43D23A-D415-475F-B4C7-798B571F7CAB";
shapes = (
{
closed = 1;
nodes = (
(632,-14,o),
(795,144,o),
(795,356,cs),
(795,569,o),
(632,726,o),
(409,726,cs),
(186,726,o),
(23,569,o),
(23,357,cs),
(23,145,o),
(188,-14,o),
(411,-14,cs)
);
},
{
closed = 1;
nodes = (
(297,162,o),
(227,238,o),
(227,357,cs),
(227,475,o),
(297,550,o),
(409,550,cs),
(520,550,o),
(591,475,o),
(591,357,cs),
(591,238,o),
(521,162,o),
(409,162,cs)
);
},
{
closed = 1;
nodes = (
(828,43,l),
(483,388,l),
(375,280,l),
(720,-65,l)
);
}
);
width = 818;
},
{
layerId = "0B0D9703-EF89-4C57-A339-A59A1335C1A4";
shapes = (
{
closed = 1;
nodes = (
(586,-10,o),
(727,142,o),
(727,338,cs),
(727,535,o),
(585,686,o),
(396,686,cs),
(207,686,o),
(66,535,o),
(66,339,cs),
(66,143,o),
(209,-10,o),
(398,-10,cs)
);
},
{
closed = 1;
nodes = (
(227,21,o),
(100,159,o),
(100,339,cs),
(100,518,o),
(226,655,o),
(396,655,cs),
(566,655,o),
(693,517,o),
(693,339,cs),
(693,159,o),
(566,21,o),
(396,21,cs)
);
},
{
closed = 1;
nodes = (
(786,-31,l),
(432,323,l),
(412,303,l),
(766,-51,l)
);
}
);
width = 807;
}
);
unicode = 81;
},
{
glyphname = R;
kernLeft = H;
lastChange = "2021-07-22 20:34:11 +0000";
layers = (
{
background = {
shapes = (
{
pos = (8,0);
ref = H;
}
);
};
layerId = m01;
shapes = (
{
closed = 1;
nodes = (
(338,297,ls),
(470,297,o),
(559,376,o),
(559,498,cs),
(559,614,o),
(470,700,o),
(338,700,cs),
(155,700,l),
(155,600,l),
(333,600,ls),
(403,600,o),
(444,554,o),
(444,496,cs),
(444,431,o),
(403,392,o),
(332,392,cs),
(155,392,l),
(155,297,l)
);
},
{
closed = 1;
nodes = (
(191,0,l),
(191,700,l),
(76,700,l),
(76,0,l)
);
},
{
closed = 1;
nodes = (
(605,0,l),
(322,343,l),
(215,304,l),
(460,0,l)
);
}
);
width = 628;
},
{
layerId = "9F43D23A-D415-475F-B4C7-798B571F7CAB";
shapes = (
{
closed = 1;
nodes = (
(364,284,ls),
(521,284,o),
(624,370,o),
(624,498,cs),
(624,626,o),
(521,712,o),
(374,712,cs),
(221,712,l),
(221,568,l),
(342,568,ls),
(397,568,o),
(426,539,o),
(426,495,cs),
(426,451,o),
(397,422,o),
(342,422,cs),
(221,422,l),
(221,284,l)
);
},
{
closed = 1;
nodes = (
(259,0,l),
(259,712,l),
(59,712,l),
(59,0,l)
);
},
{
closed = 1;
nodes = (
(670,0,l),
(429,343,l),
(249,304,l),
(443,0,l)
);
}
);
width = 675;
},
{
layerId = "0B0D9703-EF89-4C57-A339-A59A1335C1A4";
shapes = (
{
closed = 1;
nodes = (
(332,318,ls),
(465,318,o),
(539,391,o),
(539,497,cs),
(539,603,o),
(465,676,o),
(332,676,cs),
(115,676,l),
(115,647,l),
(337,647,ls),
(448,647,o),
(506,587,o),
(506,497,cs),
(506,407,o),
(448,347,o),
(337,347,cs),
(115,347,l),
(115,318,l)
);
},
{
closed = 1;
nodes = (
(131,0,l),
(131,676,l),
(99,676,l),
(99,0,l)
);
},
{
closed = 1;
nodes = (
(590,0,l),
(311,338,l),
(276,332,l),
(547,0,l)
);
}
);
width = 637;
}
);
unicode = 82;
},
{
glyphname = S;
lastChange = "2021-07-28 20:35:32 +0000";
layers = (
{
background = {
shapes = (
{
closed = 1;
nodes = (
(65,638,o),
(165,710,o),
(303,710,cs),
(399,710,o),
(473,670,o),
(519,614,c),
(441,536,l),
(401,581,o),
(360,603,o),
(300,603,cs),
(221,603,o),
(180,574,o),
(180,520,cs),
(180,367,o),
(517,447,o),
(517,194,cs),
(517,67,o),
(415,-10,o),
(261,-10,cs),
(164,-10,o),
(87,26,o),
(26,94,c),
(104,172,l),
(143,126,o),
(196,97,o),
(267,97,cs),
(352,97,o),
(402,131,o),
(402,189,cs),
(402,349,o),
(65,268,o),
(65,515,cs)
);
}
);
};
layerId = m01;
shapes = (
{
closed = 1;
nodes = (
(422,-10,o),
(517,68,o),
(517,194,cs),
(517,454,o),
(185,375,o),
(185,523,cs),
(185,574,o),
(226,603,o),
(296,603,cs),
(352,603,o),
(393,581,o),
(433,536,c),
(511,614,l),
(465,670,o),
(391,710,o),
(299,710,cs),
(170,710,o),
(70,638,o),
(70,515,cs),
(70,265,o),
(402,351,o),
(402,187,cs),
(402,131,o),
(352,97,o),
(275,97,cs),
(192,97,o),
(143,130,o),
(104,186,c),
(26,108,l),
(87,30,o),
(160,-10,o),
(271,-10,cs)
);
}
);
width = 556;
},
{
background = {
shapes = (
{
closed = 1;
nodes = (
(459,-12,o),
(568,68,o),
(568,197,cs),
(568,462,o),
(187,382,o),
(187,533,cs),
(187,585,o),
(234,615,o),
(315,615,cs),
(379,615,o),
(426,592,o),
(472,546,c),
(561,626,l),
(508,683,o),
(424,724,o),
(318,724,cs),
(170,724,o),
(56,650,o),
(56,525,cs),
(56,269,o),
(436,357,o),
(436,189,cs),
(436,132,o),
(379,97,o),
(290,97,cs),
(195,97,o),
(139,131,o),
(94,188,c),
(5,109,l),
(75,29,o),
(159,-12,o),
(286,-12,cs)
);
}
);
};
layerId = "9F43D23A-D415-475F-B4C7-798B571F7CAB";
shapes = (
{
closed = 1;
nodes = (
(477,-12,o),
(585,71,o),
(585,216,cs),
(585,470,o),
(254,427,o),
(254,524,cs),
(254,551,o),
(280,564,o),
(322,564,cs),
(374,564,o),
(416,544,o),
(460,501,c),
(586,626,l),
(526,688,o),
(430,724,o),
(324,724,cs),
(162,724,o),
(57,640,o),
(57,502,cs),
(57,256,o),
(388,297,o),
(388,195,cs),
(388,166,o),
(360,148,o),
(305,148,cs),
(239,148,o),
(183,174,o),
(131,224,c),
(6,99,l),
(82,22,o),
(167,-12,o),
(289,-12,cs)
);
}
);
width = 609;
},
{
background = {
shapes = (
{
pos = (-75,0);
ref = H;
}
);
};
layerId = "0B0D9703-EF89-4C57-A339-A59A1335C1A4";
shapes = (
{
closed = 1;
nodes = (
(410,-10,o),
(488,49,o),
(488,162,cs),
(488,410,o),
(130,314,o),
(130,524,cs),
(130,606,o),
(193,656,o),
(284,656,cs),
(362,656,o),
(419,624,o),
(464,567,c),
(487,589,l),
(439,651,o),
(370,686,o),
(284,686,cs),
(172,686,o),
(97,621,o),
(97,523,cs),
(97,280,o),
(455,379,o),
(455,156,cs),
(455,71,o),
(385,20,o),
(287,20,cs),
(199,20,o),
(129,50,o),
(73,126,c),
(50,104,l),
(104,33,o),
(181,-10,o),
(285,-10,cs)
);
}
);
width = 552;
}
);
unicode = 83;
},
{
glyphname = T;
kernLeft = T;
kernRight = T;
lastChange = "2021-07-28 20:35:46 +0000";
layers = (
{
layerId = m01;
shapes = (
{
closed = 1;
nodes = (
(367,0,l),
(367,680,l),
(252,680,l),
(252,0,l)
);
},
{
closed = 1;
nodes = (
(595,595,l),
(595,700,l),
(24,700,l),
(24,595,l)
);
}
);
width = 619;
},
{
background = {
shapes = (
{
pos = (-45,0);
ref = H;
}
);
};
layerId = "9F43D23A-D415-475F-B4C7-798B571F7CAB";
shapes = (
{
closed = 1;
nodes = (
(429,0,l),
(429,712,l),
(229,712,l),
(229,0,l)
);
},
{
closed = 1;
nodes = (
(643,542,l),
(643,712,l),
(16,712,l),
(16,542,l)
);
}
);
width = 659;
},
{
layerId = "0B0D9703-EF89-4C57-A339-A59A1335C1A4";
shapes = (
{
closed = 1;
nodes = (
(338,0,l),
(338,657,l),
(306,657,l),
(306,0,l)
);
},
{
closed = 1;
nodes = (
(595,647,l),
(595,676,l),
(49,676,l),
(49,647,l)
);
}
);
width = 644;
}
);
unicode = 84;
userData = {
KernOnName = T;
KernOnSpecialSpacing = {
L = hyphen;
};
};
},
{
glyphname = U;
kernLeft = U;
kernRight = U;
lastChange = "2021-09-13 16:57:41 +0000";
layers = (
{
anchors = (
{
name = bottom;
pos = (345,0);
},
{
name = ogonek;
pos = (621,10);
},
{
name = top;
pos = (345,700);
},
{
name = topright;
pos = (670,700);
}
);
layerId = m01;
shapes = (
{
closed = 1;
nodes = (
(505,-10,o),
(622,107,o),
(622,265,cs),
(622,700,l),
(507,700,l),
(507,266,ls),
(507,165,o),
(439,100,o),
(346,100,cs),
(253,100,o),
(183,165,o),
(183,267,cs),
(183,700,l),
(68,700,l),
(68,266,ls),
(68,108,o),
(187,-10,o),
(346,-10,cs)
);
}
);
width = 690;
},
{
anchors = (
{
name = bottom;
pos = (357,0);
},
{
name = ogonek;
pos = (643,10);
},
{
name = top;
pos = (357,712);
},
{
name = topright;
pos = (694,712);
}
);
layerId = "9F43D23A-D415-475F-B4C7-798B571F7CAB";
shapes = (
{
closed = 1;
nodes = (
(546,-12,o),
(668,112,o),
(668,288,cs),
(668,712,l),
(467,712,l),
(467,270,ls),
(467,202,o),
(421,164,o),
(358,164,cs),
(295,164,o),
(246,202,o),
(246,271,cs),
(246,712,l),
(46,712,l),
(46,289,ls),
(46,113,o),
(170,-12,o),
(358,-12,cs)
);
}
);
width = 714;
},
{
anchors = (
{
name = bottom;
pos = (331,0);
},
{
name = ogonek;
pos = (596,10);
},
{
name = top;
pos = (331,676);
},
{
name = topright;
pos = (642,676);
}
);
layerId = "0B0D9703-EF89-4C57-A339-A59A1335C1A4";
shapes = (
{
closed = 1;
nodes = (
(468,-10,o),
(572,91,o),
(572,227,cs),
(572,676,l),
(540,676,l),
(540,233,ls),
(540,104,o),
(450,21,o),
(331,21,cs),
(212,21,o),
(122,104,o),
(122,234,cs),
(122,676,l),
(90,676,l),
(90,228,ls),
(90,92,o),
(193,-10,o),
(331,-10,cs)
);
}
);
width = 662;
}
);
unicode = 85;
},
{
glyphname = V;
lastChange = "2021-07-28 20:36:09 +0000";
layers = (
{
background = {
shapes = (
{
closed = 1;
nodes = (
(334,-9,l),
(354,-9,l),
(666,700,l),
(544,700,l),
(319,177,l),
(374,177,l),
(150,700,l),
(24,700,l)
);
}
);
};
layerId = m01;
shapes = (
{
closed = 1;
nodes = (
(387,0,l),
(672,700,l),
(549,700,l),
(326,133,l),
(370,133,l),
(149,700,l),
(24,700,l),
(307,0,l)
);
}
);
width = 696;
},
{
guides = (
{
angle = 20.1316;
pos = (97,641);
showMeasurement = 1;
}
);
layerId = "9F43D23A-D415-475F-B4C7-798B571F7CAB";
shapes = (
{
closed = 1;
nodes = (
(458,0,l),
(723,712,l),
(514,712,l),
(318,137,l),
(412,137,l),
(219,712,l),
(7,712,l),
(268,0,l)
);
}
);
width = 730;
},
{
layerId = "0B0D9703-EF89-4C57-A339-A59A1335C1A4";
shapes = (
{
closed = 1;
nodes = (
(345,0,l),
(612,676,l),
(578,676,l),
(323,29,l),
(338,29,l),
(85,676,l),
(50,676,l),
(315,0,l)
);
}
);
width = 662;
}
);
unicode = 86;
userData = {
KernOnName = V;
};
},
{
glyphname = W;
lastChange = "2021-07-28 20:36:22 +0000";
layers = (
{
background = {
shapes = (
{
alignment = -1;
pos = (70,0);
ref = M;
}
);
};
layerId = m01;
shapes = (
{
closed = 1;
nodes = (
(336,0,l),
(506,538,l),
(476,538,l),
(646,0,l),
(726,0,l),
(956,700,l),
(843,700,l),
(670,161,l),
(700,161,l),
(531,700,l),
(451,700,l),
(282,161,l),
(312,161,l),
(139,700,l),
(26,700,l),
(256,0,l)
);
}
);
width = 982;
},
{
layerId = "9F43D23A-D415-475F-B4C7-798B571F7CAB";
shapes = (
{
closed = 1;
nodes = (
(398,0,l),
(554,547,l),
(468,547,l),
(624,0,l),
(790,0,l),
(1014,712,l),
(817,712,l),
(659,164,l),
(750,164,l),
(594,712,l),
(429,712,l),
(273,164,l),
(365,164,l),
(207,712,l),
(8,712,l),
(232,0,l)
);
}
);
width = 1022;
},
{
background = {
shapes = (
{
pos = (19,0);
ref = M;
}
);
};
layerId = "0B0D9703-EF89-4C57-A339-A59A1335C1A4";
shapes = (
{
closed = 1;
nodes = (
(294,0,l),
(494,644,l),
(481,644,l),
(682,0,l),
(710,0,l),
(925,676,l),
(891,676,l),
(689,30,l),
(705,30,l),
(503,676,l),
(472,676,l),
(271,30,l),
(286,30,l),
(85,676,l),
(51,676,l),
(266,0,l)
);
}
);
width = 976;
}
);
unicode = 87;
},
{
glyphname = X;
lastChange = "2021-07-28 18:29:46 +0000";
layers = (
{
background = {
shapes = (
{
closed = 1;
nodes = (
(674,0,l),
(400,406,l),
(379,406,l),
(172,700,l),
(36,700,l),
(313,312,l),
(334,312,l),
(540,0,l)
);
},
{
closed = 1;
nodes = (
(153,0,l),
(369,307,l),
(290,374,l),
(24,0,l)
);
},
{
closed = 1;
nodes = (
(662,700,l),
(533,700,l),
(329,402,l),
(408,335,l)
);
}
);
};
layerId = m01;
shapes = (
{
closed = 1;
nodes = (
(674,0,l),
(400,406,l),
(379,406,l),
(172,700,l),
(36,700,l),
(313,312,l),
(334,312,l),
(540,0,l)
);
},
{
closed = 1;
nodes = (
(153,0,l),
(369,307,l),
(290,374,l),
(24,0,l)
);
},
{
closed = 1;
nodes = (
(662,700,l),
(533,700,l),
(329,402,l),
(408,335,l)
);
}
);
width = 698;
},
{
layerId = "9F43D23A-D415-475F-B4C7-798B571F7CAB";
shapes = (
{
closed = 1;
nodes = (
(726,0,l),
(456,413,l),
(439,413,l),
(257,712,l),
(19,712,l),
(286,317,l),
(303,317,l),
(491,0,l)
);
},
{
closed = 1;
nodes = (
(235,0,l),
(424,313,l),
(262,381,l),
(6,0,l)
);
},
{
closed = 1;
nodes = (
(713,712,l),
(484,712,l),
(297,399,l),
(459,331,l)
);
}
);
width = 732;
},
{
layerId = "0B0D9703-EF89-4C57-A339-A59A1335C1A4";
shapes = (
{
closed = 1;
nodes = (
(622,0,l),
(346,363,l),
(341,363,l),
(99,676,l),
(60,676,l),
(326,335,l),
(331,335,l),
(582,0,l)
);
},
{
closed = 1;
nodes = (
(86,0,l),
(343,331,l),
(325,352,l),
(49,0,l)
);
},
{
closed = 1;
nodes = (
(612,676,l),
(575,676,l),
(333,357,l),
(349,334,l)
);
}
);
width = 671;
}
);
unicode = 88;
},
{
glyphname = Y;
kernLeft = Y;
kernRight = Y;
lastChange = "2021-09-13 16:58:42 +0000";
layers = (
{
anchors = (
{
name = bottom;
pos = (336,0);
},
{
name = top;
pos = (336,700);
},
{
name = topleft;
pos = (20,700);
}
);
layerId = m01;
shapes = (
{
closed = 1;
nodes = (
(375,280,l),
(650,700,l),
(519,700,l),
(306,365,l),
(368,365,l),
(155,700,l),
(22,700,l),
(295,280,l)
);
},
{
closed = 1;
nodes = (
(394,0,l),
(394,352,l),
(279,352,l),
(279,0,l)
);
}
);
width = 672;
},
{
anchors = (
{
name = bottom;
pos = (351,0);
},
{
name = top;
pos = (351,712);
},
{
name = topleft;
pos = (20,712);
}
);
layerId = "9F43D23A-D415-475F-B4C7-798B571F7CAB";
shapes = (
{
closed = 1;
nodes = (
(424,245,l),
(697,712,l),
(472,712,l),
(267,331,l),
(439,331,l),
(234,712,l),
(4,712,l),
(275,245,l)
);
},
{
closed = 1;
nodes = (
(452,0,l),
(452,318,l),
(252,318,l),
(252,0,l)
);
}
);
width = 701;
},
{
anchors = (
{
name = bottom;
pos = (323,0);
},
{
name = top;
pos = (323,676);
},
{
name = topleft;
pos = (20,676);
}
);
layerId = "0B0D9703-EF89-4C57-A339-A59A1335C1A4";
shapes = (
{
closed = 1;
nodes = (
(323,288,l),
(598,676,l),
(562,676,l),
(318,333,l),
(328,333,l),
(87,676,l),
(48,676,l),
(321,288,l)
);
},
{
closed = 1;
nodes = (
(339,0,l),
(339,321,l),
(307,321,l),
(307,0,l)
);
}
);
width = 645;
}
);
unicode = 89;
userData = {
KernOnName = Y;
};
},
{
glyphname = Z;
lastChange = "2021-07-28 18:30:58 +0000";
layers = (
{
background = {
shapes = (
{
pos = (-64,0);
ref = H;
}
);
};
layerId = m01;
shapes = (
{
closed = 1;
nodes = (
(169,80,l),
(551,620,l),
(416,620,l),
(34,80,l)
);
},
{
closed = 1;
nodes = (
(543,0,l),
(543,105,l),
(133,105,l),
(34,80,l),
(34,0,l)
);
},
{
closed = 1;
nodes = (
(451,595,l),
(551,620,l),
(551,700,l),
(57,700,l),
(57,595,l)
);
}
);
width = 589;
},
{
layerId = "9F43D23A-D415-475F-B4C7-798B571F7CAB";
shapes = (
{
closed = 1;
nodes = (
(269,139,l),
(598,573,l),
(354,573,l),
(26,139,l)
);
},
{
closed = 1;
nodes = (
(589,0,l),
(589,165,l),
(135,165,l),
(26,139,l),
(26,0,l)
);
},
{
closed = 1;
nodes = (
(487,547,l),
(598,573,l),
(598,712,l),
(42,712,l),
(42,547,l)
);
}
);
width = 626;
},
{
layerId = "0B0D9703-EF89-4C57-A339-A59A1335C1A4";
shapes = (
{
closed = 1;
nodes = (
(90,18,l),
(512,658,l),
(474,658,l),
(52,18,l)
);
},
{
closed = 1;
nodes = (
(505,0,l),
(505,29,l),
(78,29,l),
(52,18,l),
(52,0,l)
);
},
{
closed = 1;
nodes = (
(485,647,l),
(512,658,l),
(512,676,l),
(67,676,l),
(67,647,l)
);
}
);
width = 565;
}
);
unicode = 90;
},
{
glyphname = T_T;
kernLeft = T;
kernRight = T;
lastChange = "2021-07-22 20:34:11 +0000";
layers = (
{
layerId = m01;
shapes = (
{
closed = 1;
nodes = (
(367,0,l),
(367,680,l),
(252,680,l),
(252,0,l)
);
},
{
closed = 1;
nodes = (
(595,595,l),
(595,700,l),
(24,700,l),
(24,595,l)
);
},
{
closed = 1;
nodes = (
(851,0,l),
(851,680,l),
(736,680,l),
(736,0,l)
);
},
{
closed = 1;
nodes = (
(1079,595,l),
(1079,700,l),
(508,700,l),
(508,595,l)
);
}
);
width = 1103;
},
{
layerId = "9F43D23A-D415-475F-B4C7-798B571F7CAB";
shapes = (
{
closed = 1;
nodes = (
(429,0,l),
(429,712,l),
(229,712,l),
(229,0,l)
);
},
{
closed = 1;
nodes = (
(643,542,l),
(643,712,l),
(16,712,l),
(16,542,l)
);
},
{
closed = 1;
nodes = (
(938,0,l),
(938,712,l),
(738,712,l),
(738,0,l)
);
},
{
closed = 1;
nodes = (
(1152,542,l),
(1152,712,l),
(525,712,l),
(525,542,l)
);
}
);
width = 1168;
},
{
layerId = "0B0D9703-EF89-4C57-A339-A59A1335C1A4";
shapes = (
{
closed = 1;
nodes = (
(338,0,l),
(338,657,l),
(306,657,l),
(306,0,l)
);
},
{
closed = 1;
nodes = (
(595,647,l),
(595,676,l),
(49,676,l),
(49,647,l)
);
},
{
closed = 1;
nodes = (
(800,0,l),
(800,657,l),
(768,657,l),
(768,0,l)
);
},
{
closed = 1;
nodes = (
(1057,647,l),
(1057,676,l),
(511,676,l),
(511,647,l)
);
}
);
width = 1106;
}
);
metricLeft = T;
metricRight = T;
},
{
glyphname = T_h;
kernLeft = T;
kernRight = n;
lastChange = "2021-07-27 19:50:58 +0000";
layers = (
{
layerId = m01;
shapes = (
{
closed = 1;
nodes = (
(367,0,l),
(367,680,l),
(252,680,l),
(252,0,l)
);
},
{
closed = 1;
nodes = (
(643,595,l),
(643,700,l),
(24,700,l),
(24,595,l)
);
},
{
closed = 1;
nodes = (
(1042,0,l),
(1042,301,ls),
(1042,412,o),
(963,490,o),
(856,490,cs),
(749,490,o),
(670,410,o),
(670,301,c),
(713,277,l),
(713,341,o),
(759,387,o),
(823,387,cs),
(887,387,o),
(932,341,o),
(932,277,cs),
(932,0,l)
);
},
{
closed = 1;
nodes = (
(713,0,l),
(713,700,l),
(603,700,l),
(603,0,l)
);
}
);
width = 1093;
},
{
layerId = "9F43D23A-D415-475F-B4C7-798B571F7CAB";
shapes = (
{
closed = 1;
nodes = (
(429,0,l),
(429,712,l),
(229,712,l),
(229,0,l)
);
},
{
closed = 1;
nodes = (
(613,542,l),
(613,712,l),
(16,712,l),
(16,542,l)
);
},
{
closed = 1;
nodes = (
(1115,0,l),
(1115,321,ls),
(1115,426,o),
(1040,502,o),
(920,502,cs),
(804,502,o),
(726,430,o),
(726,310,c),
(802,276,l),
(802,314,o),
(827,336,o),
(861,336,cs),
(894,336,o),
(919,314,o),
(919,276,cs),
(919,0,l)
);
},
{
closed = 1;
nodes = (
(802,0,l),
(802,712,l),
(606,712,l),
(606,0,l)
);
}
);
width = 1152;
},
{
layerId = "0B0D9703-EF89-4C57-A339-A59A1335C1A4";
shapes = (
{
closed = 1;
nodes = (
(338,0,l),
(338,657,l),
(306,657,l),
(306,0,l)
);
},
{
closed = 1;
nodes = (
(645,647,l),
(645,676,l),
(49,676,l),
(49,647,l)
);
},
{
closed = 1;
nodes = (
(1026,0,l),
(1026,275,ls),
(1026,389,o),
(952,470,o),
(842,470,cs),
(732,470,o),
(649,392,o),
(649,288,c),
(670,276,l),
(670,373,o),
(739,442,o),
(837,442,cs),
(933,442,o),
(996,375,o),
(996,275,cs),
(996,0,l)
);
},
{
closed = 1;
nodes = (
(670,0,l),
(670,676,l),
(639,676,l),
(639,0,l)
);
}
);
width = 1096;
}
);
metricLeft = T;
metricRight = h;
},
{
glyphname = T_l;
kernLeft = T;
kernRight = l;
lastChange = "2021-07-22 20:34:11 +0000";
layers = (
{
background = {
shapes = (
{
pos = (-5,0);
ref = T_h;
}
);
};
layerId = m01;
shapes = (
{
closed = 1;
nodes = (
(367,0,l),
(367,680,l),
(252,680,l),
(252,0,l)
);
},
{
closed = 1;
nodes = (
(655,595,l),
(655,700,l),
(24,700,l),
(24,595,l)
);
},
{
closed = 1;
nodes = (
(713,0,l),
(713,700,l),
(603,700,l),
(603,0,l)
);
}
);
width = 774;
},
{
layerId = "9F43D23A-D415-475F-B4C7-798B571F7CAB";
shapes = (
{
closed = 1;
nodes = (
(429,0,l),
(429,712,l),
(229,712,l),
(229,0,l)
);
},
{
closed = 1;
nodes = (
(643,542,l),
(643,712,l),
(16,712,l),
(16,542,l)
);
},
{
closed = 1;
nodes = (
(802,0,l),
(802,712,l),
(606,712,l),
(606,0,l)
);
}
);
width = 849;
},
{
layerId = "0B0D9703-EF89-4C57-A339-A59A1335C1A4";
shapes = (
{
closed = 1;
nodes = (
(338,0,l),
(338,657,l),
(306,657,l),
(306,0,l)
);
},
{
closed = 1;
nodes = (
(655,647,l),
(655,676,l),
(49,676,l),
(49,647,l)
);
},
{
closed = 1;
nodes = (
(670,0,l),
(670,676,l),
(639,676,l),
(639,0,l)
);
}
);
width = 750;
}
);
metricLeft = T;
metricRight = l;
},
{
glyphname = a;
kernLeft = o;
lastChange = "2021-09-28 02:46:11 +0000";
layers = (
{
anchors = (
{
name = bottom;
pos = (280,0);
},
{
name = ogonek;
pos = (522,10);
},
{
name = top;
pos = (280,480);
}
);
background = {
shapes = (
{
closed = 1;
nodes = (
(379,480,l),
(379,0,l),
(489,0,l),
(489,480,l)
);
},
{
closed = 0;
nodes = (
(50,177,l),
(50,69,o),
(129,-10,o),
(235,-10,cs),
(344,-10,o),
(423,67,o),
(423,162,c),
(386,166,l),
(368,122,o),
(320,93,o),
(266,93,cs),
(200,93,o),
(160,135,o),
(160,206,c)
);
},
{
closed = 0;
nodes = (
(160,274,l),
(160,345,o),
(200,387,o),
(266,387,cs),
(320,387,o),
(368,358,o),
(386,314,c),
(423,318,l),
(423,413,o),
(344,490,o),
(235,490,cs),
(129,490,o),
(50,411,o),
(50,303,c)
);
}
);
};
layerId = m01;
shapes = (
{
closed = 1;
nodes = (
(372,-10,o),
(452,66,o),
(452,171,c),
(452,309,l),
(452,413,o),
(371,490,o),
(262,490,cs),
(132,490,o),
(31,380,o),
(31,239,cs),
(31,99,o),
(132,-10,o),
(262,-10,cs)
);
},
{
closed = 1;
nodes = (
(200,94,o),
(144,154,o),
(144,240,cs),
(144,326,o),
(200,386,o),
(280,386,cs),
(361,386,o),
(416,326,o),
(416,240,cs),
(416,154,o),
(361,94,o),
(280,94,cs)
);
},
{
closed = 1;
nodes = (
(519,0,l),
(519,480,l),
(409,480,l),
(409,362,l),
(428,246,l),
(409,129,l),
(409,0,l)
);
}
);
width = 580;
},
{
anchors = (
{
name = bottom;
pos = (284,0);
},
{
name = ogonek;
pos = (529,10);
},
{
name = top;
pos = (284,460);
}
);
background = {
shapes = (
{
closed = 1;
nodes = (
(413,-10,o),
(506,68,o),
(506,147,c),
(506,323,l),
(506,401,o),
(412,480,o),
(292,480,cs),
(158,480,o),
(54,372,o),
(54,234,cs),
(54,97,o),
(158,-10,o),
(292,-10,cs)
);
},
{
closed = 1;
nodes = (
(215,92,o),
(161,151,o),
(161,235,cs),
(161,319,o),
(215,378,o),
(293,378,cs),
(369,378,o),
(490,319,o),
(490,235,cs),
(490,151,o),
(369,92,o),
(293,92,cs)
);
},
{
closed = 1;
nodes = (
(520,0,l),
(520,470,l),
(489,470,l),
(489,355,l),
(502,241,l),
(489,126,l),
(489,0,l)
);
}
);
};
layerId = "0B0D9703-EF89-4C57-A339-A59A1335C1A4";
shapes = (
{
closed = 1;
nodes = (
(391,-10,o),
(467,51,o),
(491,152,c),
(491,309,l),
(469,409,o),
(390,470,o),
(285,470,cs),
(151,470,o),
(50,365,o),
(50,229,cs),
(50,93,o),
(151,-10,o),
(287,-10,cs)
);
},
{
closed = 1;
nodes = (
(170,19,o),
(82,108,o),
(82,230,cs),
(82,352,o),
(169,441,o),
(289,441,cs),
(403,441,o),
(479,357,o),
(479,229,cs),
(479,102,o),
(405,19,o),
(291,19,cs)
);
},
{
closed = 1;
nodes = (
(509,0,l),
(509,460,l),
(478,460,l),
(478,348,l),
(487,237,l),
(478,123,l),
(478,0,l)
);
}
);
width = 589;
},
{
anchors = (
{
name = bottom;
pos = (295,0);
},
{
name = ogonek;
pos = (549,10);
},
{
name = top;
pos = (295,492);
}
);
background = {
shapes = (
{
closed = 1;
nodes = (
(361,-10,o),
(399,77,o),
(410,185,c),
(410,307,l),
(399,417,o),
(358,502,o),
(229,502,cs),
(98,502,o),
(17,390,o),
(17,246,cs),
(17,102,o),
(97,-10,o),
(229,-10,cs)
);
},
{
closed = 1;
nodes = (
(243,169,o),
(215,204,o),
(215,253,cs),
(215,303,o),
(244,339,o),
(289,339,cs),
(337,339,o),
(364,304,o),
(364,254,cs),
(364,203,o),
(337,169,o),
(289,169,cs)
);
},
{
closed = 1;
nodes = (
(549,0,l),
(549,492,l),
(358,492,l),
(358,371,l),
(385,252,l),
(358,132,l),
(358,0,l)
);
}
);
};
layerId = "9F43D23A-D415-475F-B4C7-798B571F7CAB";
shapes = (
{
closed = 1;
nodes = (
(338,-10,o),
(409,37,o),
(424,105,c),
(424,387,l),
(409,455,o),
(338,502,o),
(252,502,cs),
(114,502,o),
(17,396,o),
(17,246,cs),
(17,96,o),
(114,-10,o),
(252,-10,cs)
);
},
{
closed = 1;
nodes = (
(249,162,o),
(214,197,o),
(214,246,cs),
(214,294,o),
(249,330,o),
(297,330,cs),
(345,330,o),
(378,295,o),
(378,246,cs),
(378,196,o),
(345,162,o),
(296,162,cs)
);
},
{
closed = 1;
nodes = (
(563,0,l),
(563,492,l),
(372,492,l),
(372,371,l),
(399,252,l),
(372,132,l),
(372,0,l)
);
}
);
width = 610;
}
);
unicode = 97;
userData = {
KernOnName = a;
};
},
{
color = 3;
glyphname = ae;
kernLeft = o;
kernRight = e;
lastChange = "2022-08-27 01:35:15 +0000";
layers = (
{
layerId = "0B0D9703-EF89-4C57-A339-A59A1335C1A4";
shapes = (
{
alignment = -1;
pos = (426,0);
ref = e;
},
{
attr = {
fill = 1;
mask = 1;
};
closed = 1;
nodes = (
(462,0,l),
(493,0,l),
(493,460,l),
(462,460,l)
);
},
{
alignment = -1;
ref = a;
}
);
width = 968;
},
{
layerId = m01;
shapes = (
{
alignment = -1;
pos = (386,0);
ref = e;
},
{
attr = {
fill = 1;
mask = 1;
};
closed = 1;
nodes = (
(349,0,l),
(459,0,l),
(459,480,l),
(349,480,l)
);
},
{
alignment = -1;
ref = a;
}
);
width = 920;
},
{
layerId = "9F43D23A-D415-475F-B4C7-798B571F7CAB";
shapes = (
{
alignment = -1;
pos = (388,0);
ref = e;
},
{
attr = {
fill = 1;
mask = 1;
};
closed = 1;
nodes = (
(282,0,l),
(473,0,l),
(473,492,l),
(282,492,l)
);
},
{
alignment = -1;
ref = a;
}
);
width = 949;
}
);
metricRight = e;
unicode = 230;
},
{
glyphname = b;
kernLeft = h;
kernRight = o;
lastChange = "2021-09-16 15:08:19 +0000";
layers = (
{
background = {
shapes = (
{
closed = 1;
nodes = (
(171,0,l),
(171,720,l),
(61,720,l),
(61,0,l)
);
},
{
closed = 1;
nodes = (
(371,386,o),
(422,329,o),
(422,240,cs),
(422,151,o),
(371,94,o),
(289,94,cs),
(231,94,o),
(182,122,o),
(164,166,c),
(127,162,l),
(127,62,o),
(207,-10,o),
(312,-10,cs),
(441,-10,o),
(535,98,o),
(535,239,cs),
(535,381,o),
(441,490,o),
(312,490,cs),
(207,490,o),
(127,418,o),
(127,318,c),
(164,314,l),
(182,358,o),
(231,386,o),
(290,386,cs)
);
}
);
};
layerId = m01;
shapes = (
{
closed = 1;
nodes = (
(448,-10,o),
(549,99,o),
(549,239,cs),
(549,380,o),
(448,490,o),
(318,490,cs),
(209,490,o),
(128,413,o),
(128,309,c),
(128,171,l),
(128,66,o),
(208,-10,o),
(318,-10,cs)
);
},
{
closed = 1;
nodes = (
(219,94,o),
(164,154,o),
(164,240,cs),
(164,326,o),
(219,386,o),
(300,386,cs),
(380,386,o),
(436,326,o),
(436,240,cs),
(436,154,o),
(380,94,o),
(300,94,cs)
);
},
{
closed = 1;
nodes = (
(171,0,l),
(171,129,l),
(152,246,l),
(171,362,l),
(171,720,l),
(61,720,l),
(61,0,l)
);
}
);
width = 580;
},
{
background = {
shapes = (
{
closed = 1;
nodes = (
(499,-10,o),
(579,102,o),
(579,246,cs),
(579,390,o),
(498,502,o),
(367,502,cs),
(238,502,o),
(197,417,o),
(186,307,c),
(186,185,l),
(197,77,o),
(235,-10,o),
(367,-10,cs)
);
},
{
closed = 1;
nodes = (
(259,169,o),
(232,203,o),
(232,254,cs),
(232,304,o),
(259,339,o),
(307,339,cs),
(352,339,o),
(381,303,o),
(381,253,cs),
(381,204,o),
(353,169,o),
(307,169,cs)
);
},
{
closed = 1;
nodes = (
(238,0,l),
(238,132,l),
(211,252,l),
(243,371,l),
(243,732,l),
(47,732,l),
(47,0,l)
);
}
);
};
layerId = "9F43D23A-D415-475F-B4C7-798B571F7CAB";
shapes = (
{
closed = 1;
nodes = (
(496,-10,o),
(593,96,o),
(593,246,cs),
(593,396,o),
(496,502,o),
(350,502,cs),
(262,502,o),
(181,455,o),
(166,387,c),
(166,115,l),
(181,47,o),
(262,-10,o),
(350,-10,cs)
);
},
{
closed = 1;
nodes = (
(265,162,o),
(232,196,o),
(232,246,cs),
(232,295,o),
(265,330,o),
(313,330,cs),
(361,330,o),
(396,294,o),
(396,246,cs),
(396,197,o),
(361,162,o),
(314,162,cs)
);
},
{
closed = 1;
nodes = (
(238,0,l),
(238,132,l),
(211,252,l),
(243,371,l),
(243,732,l),
(47,732,l),
(47,0,l)
);
}
);
width = 610;
},
{
layerId = "0B0D9703-EF89-4C57-A339-A59A1335C1A4";
shapes = (
{
closed = 1;
nodes = (
(441,-10,o),
(538,93,o),
(538,229,cs),
(538,367,o),
(440,470,o),
(309,470,cs),
(209,470,o),
(120,410,o),
(97,309,c),
(97,152,l),
(121,53,o),
(205,-10,o),
(309,-10,cs)
);
},
{
closed = 1;
nodes = (
(189,19,o),
(110,106,o),
(110,229,cs),
(110,354,o),
(190,441,o),
(306,441,cs),
(422,441,o),
(506,353,o),
(506,230,cs),
(506,107,o),
(422,19,o),
(303,19,cs)
);
},
{
closed = 1;
nodes = (
(111,0,l),
(111,123,l),
(101,237,l),
(111,348,l),
(111,696,l),
(80,696,l),
(80,0,l)
);
}
);
width = 589;
}
);
unicode = 98;
userData = {
KernOnName = b;
};
},
{
glyphname = c;
kernLeft = o;
kernRight = c;
lastChange = "2021-09-28 02:46:26 +0000";
layers = (
{
anchors = (
{
name = bottom;
pos = (269,0);
},
{
name = top;
pos = (279,480);
}
);
background = {
shapes = (
{
closed = 0;
nodes = (
(143,240,ls),
(143,321,o),
(197,384,o),
(281,384,cs),
(365,384,o),
(419,321,o),
(419,240,cs)
);
}
);
};
layerId = m01;
shapes = (
{
closed = 1;
nodes = (
(356,-10,o),
(424,20,o),
(469,73,c),
(397,146,l),
(369,113,o),
(329,96,o),
(282,96,cs),
(200,96,o),
(143,155,o),
(143,240,cs),
(143,325,o),
(200,384,o),
(282,384,cs),
(329,384,o),
(369,367,o),
(397,334,c),
(469,407,l),
(424,460,o),
(356,490,o),
(282,490,cs),
(139,490,o),
(30,381,o),
(30,240,cs),
(30,99,o),
(139,-10,o),
(282,-10,cs)
);
}
);
width = 487;
},
{
anchors = (
{
name = bottom;
pos = (281,0);
},
{
name = top;
pos = (291,492);
}
);
background = {
shapes = (
{
closed = 1;
nodes = (
(373,-12,o),
(442,14,o),
(491,58,c),
(362,190,l),
(348,171,o),
(326,160,o),
(297,160,cs),
(247,160,o),
(212,194,o),
(212,245,cs),
(212,297,o),
(247,332,o),
(297,332,cs),
(323,332,o),
(342,322,o),
(357,308,c),
(480,431,l),
(430,478,o),
(371,504,o),
(294,504,cs),
(132,504,o),
(14,395,o),
(14,247,cs),
(14,98,o),
(133,-12,o),
(295,-12,cs)
);
}
);
};
layerId = "9F43D23A-D415-475F-B4C7-798B571F7CAB";
shapes = (
{
closed = 1;
nodes = (
(378,-12,o),
(437,13,o),
(495,67,c),
(372,190,l),
(355,171,o),
(334,160,o),
(299,160,cs),
(252,160,o),
(212,195,o),
(212,247,cs),
(212,298,o),
(251,332,o),
(299,332,cs),
(330,332,o),
(350,324,o),
(367,308,c),
(490,431,l),
(437,480,o),
(376,504,o),
(299,504,cs),
(137,504,o),
(14,395,o),
(14,245,cs),
(14,96,o),
(136,-12,o),
(296,-12,cs)
);
}
);
width = 505;
},
{
anchors = (
{
name = bottom;
pos = (263,0);
},
{
name = top;
pos = (273,460);
}
);
background = {
shapes = (
{
closed = 1;
nodes = (
(419,-10,o),
(523,94,o),
(523,232,cs),
(523,366,o),
(419,470,o),
(287,470,cs),
(153,470,o),
(50,366,o),
(50,232,cs),
(50,96,o),
(153,-10,o),
(287,-10,cs)
);
},
{
closed = 1;
nodes = (
(170,19,o),
(82,110,o),
(82,232,cs),
(82,351,o),
(170,441,o),
(287,441,cs),
(403,441,o),
(491,351,o),
(491,233,cs),
(491,110,o),
(403,19,o),
(287,19,cs)
);
}
);
};
guides = (
{
angle = 135;
pos = (287,232);
showMeasurement = 1;
},
{
angle = 45;
pos = (445,390);
}
);
layerId = "0B0D9703-EF89-4C57-A339-A59A1335C1A4";
shapes = (
{
closed = 1;
nodes = (
(354,-10,o),
(415,16,o),
(458,61,c),
(437,82,l),
(400,42,o),
(347,19,o),
(287,19,cs),
(170,19,o),
(82,110,o),
(82,232,cs),
(82,351,o),
(170,441,o),
(287,441,cs),
(346,441,o),
(398,418,o),
(434,379,c),
(455,400,l),
(413,444,o),
(354,470,o),
(287,470,cs),
(153,470,o),
(50,366,o),
(50,232,cs),
(50,96,o),
(153,-10,o),
(287,-10,cs)
);
}
);
width = 495;
}
);
unicode = 99;
},
{
glyphname = d;
kernLeft = o;
kernRight = l;
lastChange = "2021-09-16 15:08:16 +0000";
layers = (
{
background = {
shapes = (
{
closed = 1;
nodes = (
(372,-10,o),
(452,66,o),
(452,171,c),
(452,309,l),
(452,413,o),
(371,490,o),
(262,490,cs),
(132,490,o),
(31,380,o),
(31,239,cs),
(31,99,o),
(132,-10,o),
(262,-10,cs)
);
},
{
closed = 1;
nodes = (
(200,94,o),
(144,154,o),
(144,240,cs),
(144,326,o),
(200,386,o),
(280,386,cs),
(361,386,o),
(416,326,o),
(416,240,cs),
(416,154,o),
(361,94,o),
(280,94,cs)
);
},
{
closed = 1;
nodes = (
(519,0,l),
(519,720,l),
(409,720,l),
(409,362,l),
(428,246,l),
(409,129,l),
(409,0,l)
);
}
);
};
layerId = m01;
shapes = (
{
closed = 1;
nodes = (
(372,-10,o),
(452,66,o),
(452,171,c),
(452,309,l),
(452,413,o),
(371,490,o),
(262,490,cs),
(132,490,o),
(31,380,o),
(31,239,cs),
(31,99,o),
(132,-10,o),
(262,-10,cs)
);
},
{
closed = 1;
nodes = (
(200,94,o),
(144,154,o),
(144,240,cs),
(144,326,o),
(200,386,o),
(280,386,cs),
(361,386,o),
(416,326,o),
(416,240,cs),
(416,154,o),
(361,94,o),
(280,94,cs)
);
},
{
closed = 1;
nodes = (
(519,720,l),
(409,720,l),
(409,362,l),
(428,246,l),
(409,129,l),
(409,0,l),
(519,0,l)
);
}
);
width = 580;
},
{
background = {
shapes = (
{
closed = 1;
nodes = (
(338,-10,o),
(409,37,o),
(424,105,c),
(424,387,l),
(409,455,o),
(338,502,o),
(252,502,cs),
(114,502,o),
(17,396,o),
(17,246,cs),
(17,96,o),
(114,-10,o),
(252,-10,cs)
);
},
{
closed = 1;
nodes = (
(249,162,o),
(214,197,o),
(214,246,cs),
(214,294,o),
(249,330,o),
(297,330,cs),
(345,330,o),
(378,295,o),
(378,246,cs),
(378,196,o),
(345,162,o),
(296,162,cs)
);
},
{
closed = 1;
nodes = (
(563,0,l),
(563,732,l),
(372,732,l),
(372,360,l),
(399,240,l),
(372,121,l),
(372,0,l)
);
}
);
};
layerId = "9F43D23A-D415-475F-B4C7-798B571F7CAB";
shapes = (
{
closed = 1;
nodes = (
(348,-10,o),
(429,47,o),
(444,115,c),
(444,387,l),
(429,455,o),
(348,502,o),
(260,502,cs),
(114,502,o),
(17,396,o),
(17,246,cs),
(17,96,o),
(114,-10,o),
(260,-10,cs)
);
},
{
closed = 1;
nodes = (
(249,162,o),
(214,197,o),
(214,246,cs),
(214,294,o),
(249,330,o),
(297,330,cs),
(345,330,o),
(378,295,o),
(378,246,cs),
(378,196,o),
(345,162,o),
(296,162,cs)
);
},
{
closed = 1;
nodes = (
(563,732,l),
(367,732,l),
(367,371,l),
(399,252,l),
(372,132,l),
(372,0,l),
(563,0,l)
);
}
);
width = 610;
},
{
background = {
shapes = (
{
closed = 1;
nodes = (
(392,-10,o),
(468,51,o),
(492,152,c),
(492,309,l),
(470,409,o),
(391,470,o),
(286,470,cs),
(152,470,o),
(51,365,o),
(51,229,cs),
(51,93,o),
(152,-10,o),
(288,-10,cs)
);
},
{
closed = 1;
nodes = (
(171,19,o),
(83,108,o),
(83,230,cs),
(83,352,o),
(170,441,o),
(290,441,cs),
(404,441,o),
(480,357,o),
(480,229,cs),
(480,102,o),
(406,19,o),
(292,19,cs)
);
},
{
closed = 1;
nodes = (
(509,0,l),
(509,696,l),
(479,696,l),
(479,317,l),
(488,223,l),
(479,132,l),
(479,0,l)
);
}
);
};
layerId = "0B0D9703-EF89-4C57-A339-A59A1335C1A4";
shapes = (
{
closed = 1;
nodes = (
(384,-10,o),
(468,53,o),
(492,152,c),
(492,309,l),
(469,410,o),
(380,470,o),
(280,470,cs),
(149,470,o),
(51,367,o),
(51,229,cs),
(51,93,o),
(148,-10,o),
(280,-10,cs)
);
},
{
closed = 1;
nodes = (
(167,19,o),
(83,107,o),
(83,230,cs),
(83,353,o),
(167,441,o),
(283,441,cs),
(399,441,o),
(479,354,o),
(479,229,cs),
(479,106,o),
(400,19,o),
(286,19,cs)
);
},
{
closed = 1;
nodes = (
(509,696,l),
(478,696,l),
(478,348,l),
(488,237,l),
(478,123,l),
(478,0,l),
(509,0,l)
);
}
);
width = 589;
}
);
unicode = 100;
userData = {
KernOnName = d;
};
},
{
glyphname = eth;
lastChange = "2021-09-13 19:26:43 +0000";
layers = (
{
layerId = "0B0D9703-EF89-4C57-A339-A59A1335C1A4";
shapes = (
{
closed = 1;
nodes = (
(411,-10,o),
(511,89,o),
(511,215,cs),
(511,268,o),
(492,319,o),
(456,365,cs),
(214,676,l),
(175,676,l),
(399,396,l),
(409,401,l),
(373,427,o),
(327,442,o),
(280,442,cs),
(158,442,o),
(57,339,o),
(57,216,cs),
(57,91,o),
(159,-10,o),
(285,-10,cs)
);
},
{
closed = 1;
nodes = (
(178,17,o),
(89,108,o),
(89,216,cs),
(89,324,o),
(178,415,o),
(284,415,cs),
(392,415,o),
(479,327,o),
(479,216,cs),
(479,105,o),
(392,17,o),
(284,17,cs)
);
},
{
closed = 1;
nodes = (
(411,613,l),
(402,637,l),
(118,532,l),
(127,508,l)
);
}
);
width = 568;
},
{
guides = (
{
angle = 111.1613;
pos = (445,654);
}
);
layerId = m01;
shapes = (
{
closed = 1;
nodes = (
(422,-10,o),
(529,97,o),
(529,232,cs),
(529,299,o),
(508,359,o),
(462,426,cs),
(271,700,l),
(138,700,l),
(342,413,l),
(384,388,l),
(364,433,o),
(331,462,o),
(254,462,cs),
(133,462,o),
(34,371,o),
(34,236,cs),
(34,100,o),
(144,-10,o),
(282,-10,cs)
);
},
{
closed = 1;
nodes = (
(206,98,o),
(149,157,o),
(149,236,cs),
(149,314,o),
(207,372,o),
(282,372,cs),
(358,372,o),
(414,313,o),
(414,236,cs),
(414,157,o),
(358,98,o),
(282,98,cs)
);
},
{
closed = 1;
nodes = (
(458,621,l),
(427,700,l),
(78,571,l),
(109,492,l)
);
}
);
width = 562;
},
{
layerId = "9F43D23A-D415-475F-B4C7-798B571F7CAB";
shapes = (
{
closed = 1;
nodes = (
(449,-12,o),
(568,96,o),
(568,238,cs),
(568,295,o),
(549,350,o),
(510,407,cs),
(303,712,l),
(81,712,l),
(320,382,l),
(395,398,l),
(361,448,o),
(340,479,o),
(265,479,cs),
(126,479,o),
(16,372,o),
(16,238,cs),
(16,96,o),
(135,-12,o),
(292,-12,cs)
);
},
{
closed = 1;
nodes = (
(242,154,o),
(206,192,o),
(206,244,cs),
(206,296,o),
(242,334,o),
(292,334,cs),
(342,334,o),
(378,296,o),
(378,244,cs),
(378,192,o),
(342,154,o),
(292,154,cs)
);
},
{
closed = 1;
nodes = (
(496,619,l),
(460,712,l),
(50,561,l),
(86,468,l)
);
}
);
width = 584;
}
);
unicode = 240;
},
{
glyphname = e;
kernLeft = o;
kernRight = e;
lastChange = "2022-08-27 00:44:42 +0000";
layers = (
{
anchors = (
{
name = bottom;
pos = (277,0);
},
{
name = ogonek;
pos = (481,10);
},
{
name = top;
pos = (277,480);
}
);
layerId = m01;
shapes = (
{
closed = 1;
nodes = (
(359,-10,o),
(428,18,o),
(475,73,c),
(405,144,l),
(376,110,o),
(332,93,o),
(283,93,cs),
(196,93,o),
(138,152,o),
(138,243,cs),
(138,332,o),
(192,389,o),
(276,389,cs),
(355,389,o),
(399,340,o),
(403,253,c),
(444,289,l),
(107,289,l),
(107,199,l),
(501,199,l),
(505,219,o),
(507,235,o),
(507,251,cs),
(507,389,o),
(411,490,o),
(278,490,cs),
(139,490,o),
(30,381,o),
(30,240,cs),
(30,97,o),
(140,-10,o),
(284,-10,cs)
);
}
);
width = 534;
},
{
anchors = (
{
name = bottom;
pos = (289,0);
},
{
name = ogonek;
pos = (505,10);
},
{
name = top;
pos = (289,492);
}
);
layerId = "9F43D23A-D415-475F-B4C7-798B571F7CAB";
shapes = (
{
closed = 1;
nodes = (
(392,-12,o),
(461,16,o),
(511,72,c),
(413,169,l),
(384,136,o),
(349,121,o),
(303,121,cs),
(231,121,o),
(194,163,o),
(194,245,cs),
(194,325,o),
(230,371,o),
(291,371,cs),
(349,371,o),
(377,333,o),
(377,254,c),
(468,307,l),
(97,304,l),
(97,184,l),
(541,187,l),
(547,216,o),
(549,237,o),
(549,257,cs),
(549,401,o),
(440,504,o),
(287,504,cs),
(130,504,o),
(14,395,o),
(14,246,cs),
(14,93,o),
(131,-12,o),
(303,-12,cs)
);
}
);
width = 561;
},
{
anchors = (
{
name = bottom;
pos = (285,0);
},
{
name = ogonek;
pos = (488,10);
},
{
name = top;
pos = (285,460);
}
);
background = {
shapes = (
{
pos = (-2,0);
ref = o;
}
);
};
layerId = "0B0D9703-EF89-4C57-A339-A59A1335C1A4";
shapes = (
{
closed = 1;
nodes = (
(365,-10,o),
(432,21,o),
(473,70,c),
(452,91,l),
(414,43,o),
(359,19,o),
(295,19,cs),
(167,19,o),
(82,105,o),
(82,233,cs),
(82,356,o),
(164,441,o),
(284,441,cs),
(398,441,o),
(471,358,o),
(464,241,c),
(473,248,l),
(72,248,l),
(72,219,l),
(493,219,l),
(495,236,o),
(496,248,o),
(496,253,cs),
(496,381,o),
(408,470,o),
(285,470,cs),
(150,470,o),
(50,366,o),
(50,231,cs),
(50,93,o),
(152,-10,o),
(291,-10,cs)
);
}
);
width = 542;
}
);
unicode = 101;
userData = {
KernOnName = e;
};
},
{
glyphname = f;
kernLeft = f;
kernRight = f;
lastChange = "2021-09-16 15:06:51 +0000";
layers = (
{
layerId = m01;
shapes = (
{
closed = 1;
nodes = (
(237,0,l),
(237,544,ls),
(237,597,o),
(267,627,o),
(320,627,cs),
(349,627,o),
(366,617,o),
(382,601,c),
(453,672,l),
(417,709,o),
(378,730,o),
(320,730,cs),
(206,730,o),
(127,653,o),
(127,543,cs),
(127,0,l)
);
},
{
closed = 1;
nodes = (
(382,380,l),
(382,480,l),
(12,480,l),
(12,380,l)
);
}
);
width = 403;
},
{
background = {
shapes = (
{
closed = 1;
nodes = (
(301,0,l),
(301,522,ls),
(301,557,o),
(320,577,o),
(355,577,cs),
(374,577,o),
(386,570,o),
(396,560,c),
(512,676,l),
(469,720,o),
(415,744,o),
(337,744,cs),
(195,744,o),
(105,649,o),
(105,513,cs),
(105,0,l)
);
},
{
closed = 1;
nodes = (
(436,332,l),
(436,492,l),
(5,492,l),
(5,332,l)
);
}
);
};
layerId = "9F43D23A-D415-475F-B4C7-798B571F7CAB";
shapes = (
{
closed = 1;
nodes = (
(301,0,l),
(301,521,ls),
(301,552,o),
(321,572,o),
(352,572,cs),
(368,572,o),
(383,567,o),
(393,557,c),
(514,678,l),
(475,718,o),
(417,744,o),
(342,744,cs),
(192,744,o),
(105,639,o),
(105,512,cs),
(105,0,l)
);
},
{
closed = 1;
nodes = (
(436,332,l),
(436,492,l),
(5,492,l),
(5,332,l)
);
}
);
width = 468;
},
{
layerId = "0B0D9703-EF89-4C57-A339-A59A1335C1A4";
shapes = (
{
closed = 1;
nodes = (
(184,0,l),
(184,552,ls),
(184,628,o),
(226,677,o),
(297,677,cs),
(329,677,o),
(358,666,o),
(383,640,c),
(404,661,l),
(377,689,o),
(340,705,o),
(298,705,cs),
(214,705,o),
(153,643,o),
(153,556,cs),
(153,0,l)
);
},
{
closed = 1;
nodes = (
(354,433,l),
(354,460,l),
(31,460,l),
(31,433,l)
);
}
);
width = 386;
}
);
unicode = 102;
userData = {
KernOnName = f;
};
},
{
glyphname = g;
kernLeft = o;
lastChange = "2021-09-16 15:08:39 +0000";
layers = (
{
background = {
shapes = (
{
closed = 1;
nodes = (
(514,480,l),
(404,480,l),
(404,20,ls),
(404,-58,o),
(352,-105,o),
(265,-105,cs),
(204,-105,o),
(154,-81,o),
(116,-33,c),
(44,-105,l),
(91,-172,o),
(170,-210,o),
(263,-210,cs),
(413,-210,o),
(514,-118,o),
(514,20,cs)
);
},
{
closed = 1;
nodes = (
(210,114,o),
(153,172,o),
(153,250,cs),
(153,329,o),
(210,386,o),
(289,386,cs),
(345,386,o),
(393,358,o),
(411,314,c),
(448,318,l),
(448,415,o),
(367,490,o),
(263,490,cs),
(139,490,o),
(40,384,o),
(40,251,cs),
(40,118,o),
(140,10,o),
(263,10,cs),
(367,10,o),
(448,85,o),
(448,182,c),
(411,186,l),
(393,142,o),
(345,114,o),
(287,114,cs)
);
}
);
};
layerId = m01;
shapes = (
{
closed = 1;
nodes = (
(411,-210,o),
(514,-118,o),
(514,20,cs),
(514,480,l),
(404,480,l),
(404,351,l),
(423,244,l),
(404,138,l),
(404,20,ls),
(404,-58,o),
(350,-105,o),
(263,-105,cs),
(194,-105,o),
(146,-81,o),
(108,-33,c),
(36,-105,l),
(83,-172,o),
(160,-210,o),
(261,-210,cs)
);
},
{
closed = 1;
nodes = (
(368,10,o),
(447,85,o),
(447,191,c),
(447,309,l),
(447,416,o),
(369,490,o),
(256,490,cs),
(127,490,o),
(30,387,o),
(30,251,cs),
(30,114,o),
(127,10,o),
(256,10,cs)
);
},
{
closed = 1;
nodes = (
(198,114,o),
(143,169,o),
(143,250,cs),
(143,331,o),
(198,386,o),
(278,386,cs),
(358,386,o),
(411,332,o),
(411,250,cs),
(411,168,o),
(358,114,o),
(278,114,cs)
);
}
);
width = 575;
},
{
background = {
shapes = (
{
closed = 1;
nodes = (
(422,-220,o),
(546,-118,o),
(546,44,cs),
(546,492,l),
(355,492,l),
(355,371,l),
(382,266,l),
(350,160,l),
(350,36,ls),
(350,-23,o),
(311,-54,o),
(247,-54,cs),
(194,-54,o),
(159,-34,o),
(128,0,c),
(12,-115,l),
(58,-182,o),
(147,-220,o),
(258,-220,cs)
);
},
{
closed = 1;
nodes = (
(355,25,o),
(396,112,o),
(407,205,c),
(407,307,l),
(396,417,o),
(355,502,o),
(226,502,cs),
(95,502,o),
(14,390,o),
(14,256,cs),
(14,122,o),
(95,25,o),
(226,25,cs)
);
},
{
closed = 1;
nodes = (
(239,187,o),
(212,222,o),
(212,263,cs),
(212,305,o),
(240,341,o),
(286,341,cs),
(335,341,o),
(361,306,o),
(361,264,cs),
(361,221,o),
(335,187,o),
(286,187,cs)
);
}
);
};
layerId = "9F43D23A-D415-475F-B4C7-798B571F7CAB";
shapes = (
{
closed = 1;
nodes = (
(422,-226,o),
(546,-124,o),
(546,38,cs),
(546,492,l),
(355,492,l),
(355,371,l),
(382,266,l),
(350,160,l),
(350,30,ls),
(350,-29,o),
(311,-60,o),
(247,-60,cs),
(194,-60,o),
(159,-40,o),
(128,-6,c),
(12,-121,l),
(58,-188,o),
(147,-226,o),
(258,-226,cs)
);
},
{
closed = 1;
nodes = (
(335,20,o),
(406,67,o),
(421,135,c),
(421,387,l),
(406,455,o),
(335,502,o),
(249,502,cs),
(111,502,o),
(14,396,o),
(14,261,cs),
(14,126,o),
(111,20,o),
(249,20,cs)
);
},
{
closed = 1;
nodes = (
(239,187,o),
(211,227,o),
(211,262,cs),
(211,298,o),
(239,337,o),
(286,337,cs),
(333,337,o),
(361,299,o),
(361,262,cs),
(361,224,o),
(333,187,o),
(285,187,cs)
);
}
);
width = 592;
},
{
layerId = "0B0D9703-EF89-4C57-A339-A59A1335C1A4";
shapes = (
{
closed = 1;
nodes = (
(413,-206,o),
(510,-117,o),
(510,17,cs),
(510,460,l),
(479,460,l),
(479,347,l),
(488,242,l),
(479,134,l),
(479,17,ls),
(479,-102,o),
(398,-177,o),
(270,-177,cs),
(184,-177,o),
(117,-142,o),
(81,-90,c),
(62,-109,l),
(106,-172,o),
(181,-206,o),
(269,-206,cs)
);
},
{
closed = 1;
nodes = (
(388,0,o),
(468,62,o),
(492,160,c),
(492,309,l),
(470,409,o),
(387,470,o),
(282,470,cs),
(150,470,o),
(51,368,o),
(51,235,cs),
(51,99,o),
(150,0,o),
(284,0,cs)
);
},
{
closed = 1;
nodes = (
(168,29,o),
(83,115,o),
(83,236,cs),
(83,355,o),
(167,441,o),
(286,441,cs),
(401,441,o),
(480,356,o),
(480,235,cs),
(480,111,o),
(402,29,o),
(288,29,cs)
);
}
);
width = 589;
}
);
unicode = 103;
userData = {
KernOnName = g;
};
},
{
glyphname = h;
kernLeft = h;
kernRight = n;
lastChange = "2021-09-16 15:07:42 +0000";
layers = (
{
background = {
shapes = (
{
closed = 1;
nodes = (
(171,0,l),
(171,720,l),
(61,720,l),
(61,0,l)
);
},
{
closed = 1;
nodes = (
(500,412,o),
(422,490,o),
(315,490,cs),
(209,490,o),
(128,410,o),
(128,301,c),
(171,272,l),
(171,339,o),
(218,387,o),
(286,387,cs),
(351,387,o),
(390,343,o),
(390,274,cs),
(390,0,l),
(500,0,l),
(500,301,ls)
);
}
);
};
layerId = m01;
shapes = (
{
closed = 1;
nodes = (
(500,0,l),
(500,301,ls),
(500,412,o),
(421,490,o),
(314,490,cs),
(207,490,o),
(128,410,o),
(128,301,c),
(171,277,l),
(171,341,o),
(217,387,o),
(281,387,cs),
(345,387,o),
(390,341,o),
(390,277,cs),
(390,0,l)
);
},
{
closed = 1;
nodes = (
(171,0,l),
(171,720,l),
(61,720,l),
(61,0,l)
);
}
);
width = 551;
},
{
background = {
shapes = (
{
closed = 1;
nodes = (
(542,0,l),
(542,337,ls),
(542,433,o),
(471,502,o),
(376,502,cs),
(280,502,o),
(202,436,o),
(202,327,c),
(243,289,l),
(243,318,o),
(265,336,o),
(295,336,cs),
(324,336,o),
(346,318,o),
(346,289,cs),
(346,0,l)
);
},
{
closed = 1;
nodes = (
(243,0,l),
(243,732,l),
(47,732,l),
(47,0,l)
);
}
);
};
layerId = "9F43D23A-D415-475F-B4C7-798B571F7CAB";
shapes = (
{
closed = 1;
nodes = (
(556,0,l),
(556,321,ls),
(556,426,o),
(481,502,o),
(361,502,cs),
(245,502,o),
(167,430,o),
(167,310,c),
(243,276,l),
(243,314,o),
(268,336,o),
(302,336,cs),
(335,336,o),
(360,314,o),
(360,276,cs),
(360,0,l)
);
},
{
closed = 1;
nodes = (
(243,0,l),
(243,732,l),
(47,732,l),
(47,0,l)
);
}
);
width = 593;
},
{
background = {
shapes = (
{
closed = 1;
nodes = (
(459,0,l),
(459,292,ls),
(459,402,o),
(385,480,o),
(278,480,cs),
(170,480,o),
(91,403,o),
(91,294,c),
(112,293,l),
(112,386,o),
(182,452,o),
(275,452,cs),
(368,452,o),
(428,384,o),
(428,291,cs),
(428,0,l)
);
},
{
closed = 1;
nodes = (
(112,0,l),
(112,710,l),
(81,710,l),
(81,0,l)
);
}
);
};
layerId = "0B0D9703-EF89-4C57-A339-A59A1335C1A4";
shapes = (
{
closed = 1;
nodes = (
(467,0,l),
(467,275,ls),
(467,389,o),
(393,470,o),
(283,470,cs),
(173,470,o),
(90,392,o),
(90,288,c),
(111,276,l),
(111,373,o),
(180,442,o),
(278,442,cs),
(374,442,o),
(436,375,o),
(436,275,cs),
(436,0,l)
);
},
{
closed = 1;
nodes = (
(111,0,l),
(111,696,l),
(80,696,l),
(80,0,l)
);
}
);
width = 537;
}
);
unicode = 104;
},
{
glyphname = i;
kernLeft = i;
kernRight = i;
lastChange = "2021-09-16 15:08:51 +0000";
layers = (
{
layerId = m01;
shapes = (
{
closed = 1;
nodes = (
(172,0,l),
(172,480,l),
(62,480,l),
(62,0,l)
);
},
{
closed = 1;
nodes = (
(155,568,o),
(182,597,o),
(182,634,cs),
(182,671,o),
(155,700,o),
(117,700,cs),
(79,700,o),
(52,671,o),
(52,634,cs),
(52,597,o),
(79,568,o),
(117,568,cs)
);
}
);
width = 234;
},
{
layerId = "9F43D23A-D415-475F-B4C7-798B571F7CAB";
shapes = (
{
closed = 1;
nodes = (
(242,0,l),
(242,492,l),
(46,492,l),
(46,0,l)
);
},
{
closed = 1;
nodes = (
(202,538,o),
(244,583,o),
(244,640,cs),
(244,697,o),
(202,742,o),
(144,742,cs),
(86,742,o),
(44,697,o),
(44,640,cs),
(44,583,o),
(86,538,o),
(144,538,cs)
);
}
);
width = 288;
},
{
layerId = "0B0D9703-EF89-4C57-A339-A59A1335C1A4";
shapes = (
{
closed = 1;
nodes = (
(111,0,l),
(111,460,l),
(80,460,l),
(80,0,l)
);
},
{
closed = 1;
nodes = (
(114,575,o),
(128,590,o),
(128,608,cs),
(128,626,o),
(114,640,o),
(95,640,cs),
(77,640,o),
(64,626,o),
(64,608,cs),
(64,590,o),
(77,575,o),
(95,575,cs)
);
}
);
width = 192;
}
);
unicode = 105;
userData = {
KernOnName = i;
};
},
{
glyphname = idotless;
kernLeft = i;
kernRight = i;
lastChange = "2021-09-13 17:15:30 +0000";
layers = (
{
anchors = (
{
name = bottom;
pos = (96,0);
},
{
name = ogonek;
pos = (173,10);
},
{
name = top;
pos = (96,460);
}
);
layerId = "0B0D9703-EF89-4C57-A339-A59A1335C1A4";
shapes = (
{
closed = 1;
nodes = (
(112,0,l),
(112,460,l),
(80,460,l),
(80,0,l)
);
}
);
width = 192;
},
{
anchors = (
{
name = bottom;
pos = (116,0);
},
{
name = ogonek;
pos = (209,10);
},
{
name = top;
pos = (116,480);
}
);
layerId = m01;
shapes = (
{
closed = 1;
nodes = (
(171,0,l),
(171,480,l),
(61,480,l),
(61,0,l)
);
}
);
width = 232;
},
{
anchors = (
{
name = bottom;
pos = (145,0);
},
{
name = ogonek;
pos = (261,10);
},
{
name = top;
pos = (145,492);
}
);
layerId = "9F43D23A-D415-475F-B4C7-798B571F7CAB";
shapes = (
{
closed = 1;
nodes = (
(243,0,l),
(243,492,l),
(47,492,l),
(47,0,l)
);
}
);
width = 290;
}
);
unicode = 305;
},
{
glyphname = j;
lastChange = "2021-09-16 15:08:58 +0000";
layers = (
{
layerId = m01;
shapes = (
{
closed = 1;
nodes = (
(102,-210,o),
(181,-151,o),
(181,-41,cs),
(181,480,l),
(71,480,l),
(71,-42,ls),
(71,-85,o),
(41,-107,o),
(5,-107,cs),
(-24,-107,o),
(-43,-97,o),
(-59,-76,c),
(-130,-147,l),
(-94,-189,o),
(-55,-210,o),
(13,-210,cs)
);
},
{
closed = 1;
nodes = (
(166,568,o),
(193,597,o),
(193,634,cs),
(193,671,o),
(166,700,o),
(128,700,cs),
(90,700,o),
(63,671,o),
(63,634,cs),
(63,597,o),
(90,568,o),
(128,568,cs)
);
}
);
width = 242;
},
{
layerId = "9F43D23A-D415-475F-B4C7-798B571F7CAB";
shapes = (
{
closed = 1;
nodes = (
(172,-226,o),
(257,-136,o),
(257,-9,cs),
(257,492,l),
(61,492,l),
(61,-13,ls),
(61,-42,o),
(47,-54,o),
(25,-54,cs),
(14,-54,o),
(3,-50,o),
(-10,-37,c),
(-129,-156,l),
(-90,-199,o),
(-35,-226,o),
(38,-226,cs)
);
},
{
closed = 1;
nodes = (
(217,538,o),
(259,583,o),
(259,640,cs),
(259,697,o),
(217,742,o),
(159,742,cs),
(101,742,o),
(59,697,o),
(59,640,cs),
(59,583,o),
(101,538,o),
(159,538,cs)
);
}
);
width = 303;
},
{
layerId = "0B0D9703-EF89-4C57-A339-A59A1335C1A4";
shapes = (
{
closed = 1;
nodes = (
(52,-206,o),
(113,-163,o),
(113,-76,cs),
(113,460,l),
(82,460,l),
(82,-77,ls),
(82,-148,o),
(38,-178,o),
(-16,-178,cs),
(-48,-178,o),
(-77,-167,o),
(-102,-141,c),
(-123,-162,l),
(-96,-190,o),
(-59,-206,o),
(-17,-206,cs)
);
},
{
closed = 1;
nodes = (
(115,575,o),
(129,590,o),
(129,608,cs),
(129,626,o),
(115,640,o),
(96,640,cs),
(78,640,o),
(65,626,o),
(65,608,cs),
(65,590,o),
(78,575,o),
(96,575,cs)
);
}
);
width = 193;
}
);
unicode = 106;
userData = {
KernOnName = j;
KernOnSpecialSpacing = {
L = period;
};
};
},
{
glyphname = k;
kernLeft = h;
lastChange = "2021-09-16 15:09:06 +0000";
layers = (
{
background = {
shapes = (
{
pos = (1,0);
ref = h;
}
);
};
layerId = m01;
shapes = (
{
closed = 1;
nodes = (
(506,0,l),
(269,279,l),
(264,216,l),
(496,480,l),
(365,480,l),
(163,245,l),
(366,0,l)
);
},
{
closed = 1;
nodes = (
(171,0,l),
(171,720,l),
(61,720,l),
(61,0,l)
);
}
);
width = 511;
},
{
layerId = "9F43D23A-D415-475F-B4C7-798B571F7CAB";
shapes = (
{
closed = 1;
nodes = (
(584,0,l),
(403,293,l),
(398,229,l),
(574,492,l),
(363,492,l),
(227,259,l),
(364,0,l)
);
},
{
closed = 1;
nodes = (
(243,0,l),
(243,732,l),
(47,732,l),
(47,0,l)
);
}
);
width = 580;
},
{
background = {
shapes = (
{
pos = (8,0);
ref = h;
}
);
};
layerId = "0B0D9703-EF89-4C57-A339-A59A1335C1A4";
shapes = (
{
closed = 1;
nodes = (
(427,0,l),
(135,247,l),
(136,229,l),
(418,460,l),
(375,460,l),
(104,237,l),
(382,0,l)
);
},
{
closed = 1;
nodes = (
(111,0,l),
(111,696,l),
(80,696,l),
(80,0,l)
);
}
);
width = 457;
}
);
unicode = 107;
userData = {
KernOnName = k;
};
},
{
glyphname = l;
kernLeft = h;
kernRight = l;
lastChange = "2021-07-27 19:47:16 +0000";
layers = (
{
layerId = m01;
shapes = (
{
closed = 1;
nodes = (
(171,0,l),
(171,720,l),
(61,720,l),
(61,0,l)
);
}
);
width = 232;
},
{
layerId = "9F43D23A-D415-475F-B4C7-798B571F7CAB";
shapes = (
{
closed = 1;
nodes = (
(243,0,l),
(243,732,l),
(47,732,l),
(47,0,l)
);
}
);
width = 290;
},
{
layerId = "0B0D9703-EF89-4C57-A339-A59A1335C1A4";
shapes = (
{
closed = 1;
nodes = (
(111,0,l),
(111,696,l),
(80,696,l),
(80,0,l)
);
}
);
width = 191;
}
);
unicode = 108;
userData = {
KernOnName = l;
};
},
{
glyphname = m;
kernLeft = n;
kernRight = n;
lastChange = "2021-09-16 15:07:18 +0000";
layers = (
{
background = {
shapes = (
{
closed = 0;
nodes = (
(809,310,ls),
(809,421,o),
(727,490,o),
(622,490,cs),
(517,490,o),
(435,421,o),
(435,310,cs)
);
}
);
};
layerId = m01;
shapes = (
{
closed = 1;
nodes = (
(171,0,l),
(171,480,l),
(61,480,l),
(61,0,l)
);
},
{
closed = 1;
nodes = (
(490,0,l),
(490,310,ls),
(490,421,o),
(411,490,o),
(309,490,cs),
(207,490,o),
(128,419,o),
(128,310,c),
(171,286,l),
(171,350,o),
(217,387,o),
(276,387,cs),
(335,387,o),
(380,350,o),
(380,286,cs),
(380,0,l)
);
},
{
closed = 1;
nodes = (
(809,0,l),
(809,310,ls),
(809,421,o),
(726,490,o),
(623,490,cs),
(520,490,o),
(438,419,o),
(428,310,c),
(490,286,l),
(490,350,o),
(536,387,o),
(595,387,cs),
(654,387,o),
(699,350,o),
(699,286,cs),
(699,0,l)
);
}
);
width = 861;
},
{
background = {
shapes = (
{
closed = 1;
nodes = (
(243,0,l),
(243,492,l),
(47,492,l),
(47,0,l)
);
},
{
closed = 1;
nodes = (
(534,0,l),
(534,337,ls),
(534,436,o),
(466,502,o),
(372,502,cs),
(277,502,o),
(202,439,o),
(202,327,c),
(243,288,l),
(243,317,o),
(262,336,o),
(291,336,cs),
(319,336,o),
(338,317,o),
(338,288,cs),
(338,0,l)
);
},
{
closed = 1;
nodes = (
(825,0,l),
(825,337,ls),
(825,436,o),
(757,502,o),
(663,502,cs),
(568,502,o),
(493,439,o),
(493,327,c),
(534,288,l),
(534,317,o),
(553,336,o),
(582,336,cs),
(610,336,o),
(629,317,o),
(629,288,cs),
(629,0,l)
);
}
);
};
layerId = "9F43D23A-D415-475F-B4C7-798B571F7CAB";
shapes = (
{
closed = 1;
nodes = (
(243,0,l),
(243,492,l),
(47,492,l),
(47,0,l)
);
},
{
closed = 1;
nodes = (
(546,0,l),
(546,311,ls),
(546,426,o),
(467,502,o),
(367,502,cs),
(253,502,o),
(167,430,o),
(167,310,c),
(243,282,l),
(243,315,o),
(264,336,o),
(297,336,cs),
(328,336,o),
(350,315,o),
(350,282,cs),
(350,0,l)
);
},
{
closed = 1;
nodes = (
(849,0,l),
(849,292,ls),
(849,424,o),
(764,502,o),
(647,502,cs),
(520,502,o),
(431,419,o),
(431,281,c),
(546,282,l),
(546,315,o),
(567,336,o),
(600,336,cs),
(631,336,o),
(653,315,o),
(653,282,cs),
(653,0,l)
);
}
);
width = 885;
},
{
background = {
shapes = (
{
closed = 0;
nodes = (
(448,298,ls),
(448,405,o),
(376,480,o),
(273,480,cs),
(168,480,o),
(92,406,o),
(92,300,c)
);
}
);
};
layerId = "0B0D9703-EF89-4C57-A339-A59A1335C1A4";
shapes = (
{
closed = 1;
nodes = (
(111,0,l),
(111,460,l),
(80,460,l),
(80,0,l)
);
},
{
closed = 1;
nodes = (
(439,0,l),
(439,292,ls),
(439,399,o),
(366,470,o),
(268,470,cs),
(168,470,o),
(90,399,o),
(90,293,c),
(111,292,l),
(111,382,o),
(180,442,o),
(265,442,cs),
(349,442,o),
(408,381,o),
(408,290,cs),
(408,0,l)
);
},
{
closed = 1;
nodes = (
(767,0,l),
(767,291,ls),
(767,399,o),
(694,470,o),
(596,470,cs),
(498,470,o),
(418,400,o),
(418,293,c),
(439,292,l),
(439,382,o),
(508,442,o),
(593,442,cs),
(677,442,o),
(736,381,o),
(736,290,cs),
(736,0,l)
);
}
);
width = 837;
}
);
unicode = 109;
},
{
glyphname = n;
kernLeft = n;
kernRight = n;
lastChange = "2021-09-16 15:06:58 +0000";
layers = (
{
anchors = (
{
name = bottom;
pos = (276,0);
},
{
name = top;
pos = (276,480);
}
);
background = {
shapes = (
{
closed = 1;
nodes = (
(171,0,l),
(171,480,l),
(61,480,l),
(61,0,l)
);
},
{
closed = 1;
nodes = (
(504,412,o),
(426,490,o),
(317,490,cs),
(209,490,o),
(128,410,o),
(128,301,c),
(171,272,l),
(171,339,o),
(218,387,o),
(288,387,cs),
(355,387,o),
(394,343,o),
(394,274,cs),
(394,0,l),
(504,0,l),
(504,301,ls)
);
}
);
};
layerId = m01;
shapes = (
{
closed = 1;
nodes = (
(500,0,l),
(500,301,ls),
(500,395,o),
(422,490,o),
(314,490,cs),
(207,490,o),
(128,410,o),
(128,301,c),
(171,277,l),
(171,341,o),
(217,387,o),
(281,387,cs),
(345,387,o),
(390,341,o),
(390,277,cs),
(390,0,l)
);
},
{
closed = 1;
nodes = (
(171,0,l),
(171,480,l),
(61,480,l),
(61,0,l)
);
}
);
width = 551;
},
{
anchors = (
{
name = bottom;
pos = (297,0);
},
{
name = top;
pos = (297,492);
}
);
background = {
shapes = (
{
closed = 1;
nodes = (
(542,0,l),
(542,337,ls),
(542,433,o),
(471,502,o),
(376,502,cs),
(280,502,o),
(202,436,o),
(202,327,c),
(243,283,l),
(243,317,o),
(265,336,o),
(295,336,cs),
(324,336,o),
(346,317,o),
(346,283,cs),
(346,0,l)
);
},
{
closed = 1;
nodes = (
(243,0,l),
(243,492,l),
(47,492,l),
(47,0,l)
);
}
);
};
layerId = "9F43D23A-D415-475F-B4C7-798B571F7CAB";
shapes = (
{
closed = 1;
nodes = (
(556,0,l),
(556,321,ls),
(556,426,o),
(477,502,o),
(372,502,cs),
(253,502,o),
(167,430,o),
(167,310,c),
(243,276,l),
(243,314,o),
(268,336,o),
(302,336,cs),
(335,336,o),
(360,314,o),
(360,276,cs),
(360,0,l)
);
},
{
closed = 1;
nodes = (
(243,0,l),
(243,492,l),
(47,492,l),
(47,0,l)
);
}
);
width = 593;
},
{
anchors = (
{
name = bottom;
pos = (269,0);
},
{
name = top;
pos = (269,460);
}
);
background = {
shapes = (
{
closed = 0;
nodes = (
(113,285,l),
(113,382,o),
(183,452,o),
(280,452,cs),
(378,452,o),
(447,382,o),
(447,285,cs)
);
}
);
};
layerId = "0B0D9703-EF89-4C57-A339-A59A1335C1A4";
shapes = (
{
closed = 1;
nodes = (
(467,0,l),
(467,275,ls),
(467,389,o),
(393,470,o),
(283,470,cs),
(173,470,o),
(90,392,o),
(90,288,c),
(111,276,l),
(111,373,o),
(180,442,o),
(278,442,cs),
(374,442,o),
(436,375,o),
(436,275,cs),
(436,0,l)
);
},
{
closed = 1;
nodes = (
(111,0,l),
(111,460,l),
(80,460,l),
(80,0,l)
);
}
);
width = 537;
}
);
unicode = 110;
userData = {
KernOnName = n;
};
},
{
glyphname = o;
kernLeft = o;
kernRight = o;
lastChange = "2021-09-16 15:09:16 +0000";
layers = (
{
anchors = (
{
name = bottom;
pos = (282,0);
},
{
name = center;
pos = (282,240);
},
{
name = ogonek;
pos = (507,10);
},
{
name = top;
pos = (282,480);
},
{
name = topright;
pos = (543,480);
}
);
background = {
shapes = (
{
closed = 1;
nodes = (
(417,315,o),
(358,376,o),
(283,376,c),
(207,377,o),
(143,315,o),
(145,240,c),
(145,164,o),
(206,103,o),
(281,103,c),
(356,103,o),
(416,163,o),
(417,238,c)
);
},
{
closed = 1;
nodes = (
(530,102,o),
(417,-11,o),
(281,-10,c),
(143,-10,o),
(32,102,o),
(32,240,c),
(32,377,o),
(143,490,o),
(281,489,c),
(419,489,o),
(530,377,o),
(530,240,c)
);
}
);
};
layerId = m01;
shapes = (
{
closed = 1;
nodes = (
(423,-10,o),
(533,100,o),
(533,241,cs),
(533,381,o),
(422,490,o),
(281,490,cs),
(140,490,o),
(30,380,o),
(30,241,cs),
(30,101,o),
(141,-10,o),
(281,-10,cs)
);
},
{
closed = 1;
nodes = (
(200,96,o),
(143,156,o),
(143,241,cs),
(143,324,o),
(200,384,o),
(281,384,cs),
(362,384,o),
(420,325,o),
(420,241,cs),
(420,156,o),
(363,96,o),
(281,96,cs)
);
}
);
width = 563;
},
{
anchors = (
{
name = bottom;
pos = (294,0);
},
{
name = center;
pos = (294,246);
},
{
name = ogonek;
pos = (529,10);
},
{
name = top;
pos = (294,492);
},
{
name = topright;
pos = (568,492);
}
);
background = {
shapes = (
{
closed = 1;
nodes = (
(446,-12,o),
(564,100,o),
(564,247,cs),
(564,394,o),
(445,504,o),
(288,504,cs),
(132,504,o),
(14,393,o),
(14,247,cs),
(14,100,o),
(133,-12,o),
(289,-12,cs)
);
},
{
closed = 1;
nodes = (
(243,154,o),
(212,190,o),
(212,245,cs),
(212,301,o),
(244,338,o),
(289,338,cs),
(336,338,o),
(366,302,o),
(366,246,cs),
(366,189,o),
(336,154,o),
(289,154,cs)
);
}
);
};
layerId = "9F43D23A-D415-475F-B4C7-798B571F7CAB";
shapes = (
{
closed = 1;
nodes = (
(456,-12,o),
(574,98,o),
(574,247,cs),
(574,395,o),
(456,504,o),
(294,504,cs),
(132,504,o),
(14,395,o),
(14,247,cs),
(14,98,o),
(133,-12,o),
(295,-12,cs)
);
},
{
closed = 1;
nodes = (
(245,160,o),
(212,194,o),
(212,245,cs),
(212,297,o),
(245,332,o),
(294,332,cs),
(343,332,o),
(376,298,o),
(376,246,cs),
(376,194,o),
(344,160,o),
(294,160,cs)
);
}
);
width = 588;
},
{
anchors = (
{
name = bottom;
pos = (287,0);
},
{
name = center;
pos = (287,230);
},
{
name = ogonek;
pos = (516,10);
},
{
name = top;
pos = (287,460);
},
{
name = topright;
pos = (553,460);
}
);
layerId = "0B0D9703-EF89-4C57-A339-A59A1335C1A4";
shapes = (
{
closed = 1;
nodes = (
(419,-10,o),
(523,94,o),
(523,232,cs),
(523,366,o),
(419,470,o),
(287,470,cs),
(153,470,o),
(50,366,o),
(50,232,cs),
(50,96,o),
(153,-10,o),
(287,-10,cs)
);
},
{
closed = 1;
nodes = (
(170,19,o),
(82,110,o),
(82,232,cs),
(82,351,o),
(170,441,o),
(287,441,cs),
(403,441,o),
(491,351,o),
(491,233,cs),
(491,110,o),
(403,19,o),
(287,19,cs)
);
}
);
width = 573;
}
);
unicode = 111;
userData = {
KernOnName = o;
};
},
{
glyphname = oslash;
kernLeft = o;
kernRight = o;
lastChange = "2021-09-13 17:27:13 +0000";
layers = (
{
layerId = "0B0D9703-EF89-4C57-A339-A59A1335C1A4";
shapes = (
{
closed = 1;
nodes = (
(419,-10,o),
(523,94,o),
(523,232,cs),
(523,366,o),
(419,470,o),
(287,470,cs),
(153,470,o),
(50,366,o),
(50,232,cs),
(50,96,o),
(153,-10,o),
(287,-10,cs)
);
},
{
closed = 1;
nodes = (
(170,19,o),
(82,110,o),
(82,232,cs),
(82,351,o),
(170,441,o),
(287,441,cs),
(403,441,o),
(491,351,o),
(491,233,cs),
(491,110,o),
(403,19,o),
(287,19,cs)
);
},
{
closed = 1;
nodes = (
(530,453,l),
(510,473,l),
(44,7,l),
(64,-13,l)
);
}
);
width = 573;
},
{
layerId = m01;
shapes = (
{
closed = 1;
nodes = (
(423,-10,o),
(533,100,o),
(533,241,cs),
(533,381,o),
(422,490,o),
(281,490,cs),
(140,490,o),
(30,380,o),
(30,241,cs),
(30,101,o),
(141,-10,o),
(281,-10,cs)
);
},
{
closed = 1;
nodes = (
(200,96,o),
(143,156,o),
(143,241,cs),
(143,324,o),
(200,384,o),
(281,384,cs),
(362,384,o),
(420,325,o),
(420,241,cs),
(420,156,o),
(363,96,o),
(281,96,cs)
);
},
{
closed = 1;
nodes = (
(551,437,l),
(479,509,l),
(13,43,l),
(85,-29,l)
);
}
);
width = 563;
},
{
background = {
shapes = (
{
closed = 1;
nodes = (
(455,-12,o),
(574,98,o),
(574,247,cs),
(574,395,o),
(456,504,o),
(294,504,cs),
(132,504,o),
(14,395,o),
(14,247,cs),
(14,98,o),
(132,-12,o),
(293,-12,cs)
);
},
{
closed = 1;
nodes = (
(225,129,o),
(181,175,o),
(181,246,cs),
(181,317,o),
(226,363,o),
(293,363,cs),
(360,363,o),
(405,316,o),
(405,245,cs),
(405,175,o),
(360,129,o),
(293,129,cs)
);
},
{
closed = 1;
nodes = (
(506,530,l),
(-2,21,l),
(70,-51,l),
(578,458,l)
);
}
);
};
layerId = "9F43D23A-D415-475F-B4C7-798B571F7CAB";
shapes = (
{
closed = 1;
nodes = (
(455,-12,o),
(574,98,o),
(574,247,cs),
(574,395,o),
(456,504,o),
(294,504,cs),
(132,504,o),
(14,395,o),
(14,247,cs),
(14,98,o),
(132,-12,o),
(293,-12,cs)
);
},
{
closed = 1;
nodes = (
(225,129,o),
(181,175,o),
(181,246,cs),
(181,317,o),
(226,363,o),
(293,363,cs),
(360,363,o),
(405,316,o),
(405,245,cs),
(405,175,o),
(360,129,o),
(293,129,cs)
);
},
{
closed = 1;
nodes = (
(569,448,l),
(497,520,l),
(19,41,l),
(91,-31,l)
);
}
);
width = 588;
}
);
unicode = 248;
},
{
glyphname = p;
kernLeft = n;
kernRight = o;
lastChange = "2021-09-16 15:09:25 +0000";
layers = (
{
layerId = m01;
shapes = (
{
closed = 1;
nodes = (
(448,-10,o),
(549,99,o),
(549,239,cs),
(549,380,o),
(448,490,o),
(318,490,cs),
(209,490,o),
(128,413,o),
(128,309,c),
(128,171,l),
(128,66,o),
(208,-10,o),
(318,-10,cs)
);
},
{
closed = 1;
nodes = (
(219,94,o),
(164,154,o),
(164,240,cs),
(164,326,o),
(219,386,o),
(300,386,cs),
(380,386,o),
(436,326,o),
(436,240,cs),
(436,154,o),
(380,94,o),
(300,94,cs)
);
},
{
closed = 1;
nodes = (
(171,-200,l),
(171,118,l),
(152,234,l),
(171,351,l),
(171,480,l),
(61,480,l),
(61,-200,l)
);
}
);
width = 580;
},
{
layerId = "9F43D23A-D415-475F-B4C7-798B571F7CAB";
shapes = (
{
closed = 1;
nodes = (
(496,-10,o),
(593,96,o),
(593,246,cs),
(593,396,o),
(496,502,o),
(350,502,cs),
(262,502,o),
(181,445,o),
(166,377,c),
(166,105,l),
(181,37,o),
(262,-10,o),
(350,-10,cs)
);
},
{
closed = 1;
nodes = (
(265,162,o),
(232,197,o),
(232,246,cs),
(232,296,o),
(265,330,o),
(314,330,cs),
(361,330,o),
(396,295,o),
(396,246,cs),
(396,198,o),
(361,162,o),
(313,162,cs)
);
},
{
closed = 1;
nodes = (
(238,-210,l),
(238,132,l),
(211,252,l),
(243,371,l),
(243,492,l),
(47,492,l),
(47,-210,l)
);
}
);
width = 610;
},
{
layerId = "0B0D9703-EF89-4C57-A339-A59A1335C1A4";
shapes = (
{
closed = 1;
nodes = (
(441,-10,o),
(538,93,o),
(538,229,cs),
(538,367,o),
(440,470,o),
(309,470,cs),
(209,470,o),
(120,410,o),
(97,309,c),
(97,152,l),
(121,53,o),
(205,-10,o),
(309,-10,cs)
);
},
{
closed = 1;
nodes = (
(189,19,o),
(110,106,o),
(110,229,cs),
(110,354,o),
(190,441,o),
(306,441,cs),
(422,441,o),
(506,353,o),
(506,230,cs),
(506,107,o),
(422,19,o),
(303,19,cs)
);
},
{
closed = 1;
nodes = (
(111,-196,l),
(111,123,l),
(101,237,l),
(111,348,l),
(111,460,l),
(80,460,l),
(80,-196,l)
);
}
);
width = 589;
}
);
unicode = 112;
},
{
glyphname = thorn;
kernLeft = n;
kernRight = o;
lastChange = "2021-09-13 17:28:47 +0000";
layers = (
{
layerId = "0B0D9703-EF89-4C57-A339-A59A1335C1A4";
shapes = (
{
closed = 1;
nodes = (
(441,-10,o),
(538,93,o),
(538,229,cs),
(538,367,o),
(440,470,o),
(309,470,cs),
(209,470,o),
(120,410,o),
(97,309,c),
(97,152,l),
(121,53,o),
(205,-10,o),
(309,-10,cs)
);
},
{
closed = 1;
nodes = (
(189,19,o),
(110,106,o),
(110,229,cs),
(110,354,o),
(190,441,o),
(306,441,cs),
(422,441,o),
(507,353,o),
(507,230,cs),
(507,107,o),
(422,19,o),
(303,19,cs)
);
},
{
closed = 1;
nodes = (
(111,-196,l),
(111,123,l),
(101,237,l),
(111,348,l),
(111,696,l),
(80,696,l),
(80,-196,l)
);
}
);
width = 589;
},
{
layerId = m01;
shapes = (
{
closed = 1;
nodes = (
(448,-10,o),
(549,99,o),
(549,239,cs),
(549,380,o),
(448,490,o),
(318,490,cs),
(209,490,o),
(128,413,o),
(128,309,c),
(128,171,l),
(128,66,o),
(208,-10,o),
(318,-10,cs)
);
},
{
closed = 1;
nodes = (
(219,94,o),
(164,154,o),
(164,240,cs),
(164,326,o),
(219,386,o),
(300,386,cs),
(380,386,o),
(436,326,o),
(436,240,cs),
(436,154,o),
(380,94,o),
(300,94,cs)
);
},
{
closed = 1;
nodes = (
(171,-200,l),
(171,118,l),
(152,234,l),
(171,351,l),
(171,720,l),
(61,720,l),
(61,-200,l)
);
}
);
width = 580;
},
{
layerId = "9F43D23A-D415-475F-B4C7-798B571F7CAB";
shapes = (
{
closed = 1;
nodes = (
(496,-10,o),
(593,96,o),
(593,246,cs),
(593,396,o),
(496,502,o),
(350,502,cs),
(262,502,o),
(181,445,o),
(166,377,c),
(166,105,l),
(181,37,o),
(262,-10,o),
(350,-10,cs)
);
},
{
closed = 1;
nodes = (
(265,162,o),
(232,197,o),
(232,246,cs),
(232,296,o),
(265,330,o),
(314,330,cs),
(361,330,o),
(396,295,o),
(396,246,cs),
(396,198,o),
(361,162,o),
(313,162,cs)
);
},
{
closed = 1;
nodes = (
(238,-210,l),
(238,132,l),
(211,252,l),
(243,371,l),
(243,732,l),
(47,732,l),
(47,-210,l)
);
}
);
width = 610;
}
);
unicode = 254;
},
{
glyphname = q;
kernLeft = o;
lastChange = "2021-09-16 15:09:36 +0000";
layers = (
{
layerId = m01;
shapes = (
{
closed = 1;
nodes = (
(372,-10,o),
(452,66,o),
(452,171,c),
(452,309,l),
(452,413,o),
(371,490,o),
(262,490,cs),
(132,490,o),
(31,380,o),
(31,239,cs),
(31,99,o),
(132,-10,o),
(262,-10,cs)
);
},
{
closed = 1;
nodes = (
(200,94,o),
(144,154,o),
(144,240,cs),
(144,326,o),
(200,386,o),
(280,386,cs),
(361,386,o),
(416,326,o),
(416,240,cs),
(416,154,o),
(361,94,o),
(280,94,cs)
);
},
{
closed = 1;
nodes = (
(519,-200,l),
(519,480,l),
(409,480,l),
(409,351,l),
(428,234,l),
(409,118,l),
(409,-200,l)
);
}
);
width = 580;
},
{
layerId = "9F43D23A-D415-475F-B4C7-798B571F7CAB";
shapes = (
{
closed = 1;
nodes = (
(338,-10,o),
(409,37,o),
(424,105,c),
(424,387,l),
(409,455,o),
(338,502,o),
(252,502,cs),
(114,502,o),
(17,396,o),
(17,246,cs),
(17,96,o),
(114,-10,o),
(252,-10,cs)
);
},
{
closed = 1;
nodes = (
(249,162,o),
(214,197,o),
(214,246,cs),
(214,294,o),
(249,330,o),
(297,330,cs),
(345,330,o),
(378,295,o),
(378,246,cs),
(378,196,o),
(345,162,o),
(296,162,cs)
);
},
{
closed = 1;
nodes = (
(563,-210,l),
(563,492,l),
(372,492,l),
(372,371,l),
(399,252,l),
(372,132,l),
(372,-210,l)
);
}
);
width = 610;
},
{
layerId = "0B0D9703-EF89-4C57-A339-A59A1335C1A4";
shapes = (
{
closed = 1;
nodes = (
(392,-10,o),
(468,51,o),
(492,152,c),
(492,309,l),
(470,409,o),
(391,470,o),
(286,470,cs),
(152,470,o),
(51,365,o),
(51,229,cs),
(51,93,o),
(152,-10,o),
(288,-10,cs)
);
},
{
closed = 1;
nodes = (
(171,19,o),
(83,108,o),
(83,230,cs),
(83,352,o),
(170,441,o),
(290,441,cs),
(404,441,o),
(480,357,o),
(480,229,cs),
(480,102,o),
(406,19,o),
(292,19,cs)
);
},
{
closed = 1;
nodes = (
(510,-196,l),
(510,460,l),
(479,460,l),
(479,348,l),
(488,237,l),
(479,123,l),
(479,-196,l)
);
}
);
width = 590;
}
);
unicode = 113;
userData = {
KernOnName = q;
};
},
{
glyphname = r;
kernLeft = n;
lastChange = "2021-07-28 19:10:24 +0000";
layers = (
{
background = {
shapes = (
{
closed = 1;
nodes = (
(171,0,l),
(171,480,l),
(61,480,l),
(61,0,l)
);
},
{
closed = 1;
nodes = (
(415,435,l),
(382,473,o),
(345,490,o),
(295,490,cs),
(195,490,o),
(137,419,o),
(137,298,c),
(164,294,l),
(183,356,o),
(221,387,o),
(277,387,cs),
(305,387,o),
(325,379,o),
(343,361,c)
);
}
);
};
layerId = m01;
shapes = (
{
closed = 1;
nodes = (
(171,0,l),
(171,480,l),
(61,480,l),
(61,0,l)
);
},
{
closed = 1;
nodes = (
(171,349,o),
(215,387,o),
(277,387,cs),
(305,387,o),
(325,379,o),
(343,361,c),
(415,435,l),
(382,473,o),
(344,490,o),
(296,490,cs),
(187,490,o),
(133,407,o),
(133,286,c),
(171,267,l)
);
}
);
width = 425;
},
{
background = {
shapes = (
{
closed = 1;
nodes = (
(243,0,l),
(243,492,l),
(47,492,l),
(47,0,l)
);
},
{
closed = 1;
nodes = (
(243,302,o),
(265,331,o),
(302,331,cs),
(319,331,o),
(334,325,o),
(343,315,c),
(460,472,l),
(439,493,o),
(406,504,o),
(366,504,cs),
(266,504,o),
(202,423,o),
(202,297,c),
(243,253,l)
);
}
);
};
layerId = "9F43D23A-D415-475F-B4C7-798B571F7CAB";
shapes = (
{
closed = 1;
nodes = (
(243,0,l),
(243,492,l),
(47,492,l),
(47,0,l)
);
},
{
closed = 1;
nodes = (
(243,310,o),
(263,334,o),
(303,334,cs),
(327,334,o),
(345,325,o),
(355,315,c),
(465,471,l),
(445,491,o),
(412,502,o),
(367,502,cs),
(266,502,o),
(202,453,o),
(152,347,c),
(243,266,l)
);
}
);
width = 462;
},
{
layerId = "0B0D9703-EF89-4C57-A339-A59A1335C1A4";
shapes = (
{
closed = 1;
nodes = (
(111,0,l),
(111,460,l),
(80,460,l),
(80,0,l)
);
},
{
closed = 1;
nodes = (
(111,382,o),
(167,440,o),
(248,440,cs),
(290,440,o),
(322,427,o),
(350,397,c),
(371,420,l),
(338,455,o),
(298,470,o),
(253,470,cs),
(160,470,o),
(90,404,o),
(90,287,c),
(111,281,l)
);
}
);
width = 402;
}
);
unicode = 114;
userData = {
KernOnName = r;
};
},
{
glyphname = s;
lastChange = "2021-07-28 20:38:24 +0000";
layers = (
{
layerId = m01;
shapes = (
{
closed = 1;
nodes = (
(330,-10,o),
(400,48,o),
(400,142,cs),
(400,319,o),
(151,272,o),
(151,351,cs),
(151,376,o),
(176,390,o),
(220,390,cs),
(267,390,o),
(302,373,o),
(330,338,c),
(400,408,l),
(360,462,o),
(300,490,o),
(223,490,cs),
(113,490,o),
(46,434,o),
(46,342,cs),
(46,168,o),
(295,220,o),
(295,133,cs),
(295,105,o),
(269,90,o),
(220,90,cs),
(165,90,o),
(122,109,o),
(89,148,c),
(19,78,l),
(65,22,o),
(137,-10,o),
(218,-10,cs)
);
}
);
width = 430;
},
{
background = {
shapes = (
{
closed = 1;
nodes = (
(378,-15,o),
(449,46,o),
(449,143,cs),
(449,328,o),
(224,298,o),
(224,349,cs),
(224,362,o),
(234,371,o),
(262,371,cs),
(292,371,o),
(336,360,o),
(371,321,c),
(468,420,l),
(421,477,o),
(336,507,o),
(250,507,cs),
(114,507,o),
(40,438,o),
(40,346,cs),
(40,162,o),
(267,201,o),
(267,142,cs),
(267,129,o),
(254,121,o),
(227,121,cs),
(178,121,o),
(130,141,o),
(96,177,c),
(-1,78,l),
(51,23,o),
(147,-15,o),
(238,-15,cs)
);
}
);
};
layerId = "9F43D23A-D415-475F-B4C7-798B571F7CAB";
shapes = (
{
closed = 1;
nodes = (
(374,-15,o),
(457,46,o),
(457,144,cs),
(457,330,o),
(235,297,o),
(235,343,cs),
(235,354,o),
(243,362,o),
(269,362,cs),
(296,362,o),
(341,352,o),
(374,315,c),
(478,421,l),
(430,479,o),
(342,509,o),
(255,509,cs),
(126,509,o),
(41,439,o),
(41,346,cs),
(41,161,o),
(266,203,o),
(266,149,cs),
(266,138,o),
(253,132,o),
(230,132,cs),
(181,132,o),
(134,152,o),
(102,184,c),
(-1,78,l),
(52,23,o),
(151,-15,o),
(243,-15,cs)
);
}
);
width = 485;
},
{
layerId = "0B0D9703-EF89-4C57-A339-A59A1335C1A4";
shapes = (
{
closed = 1;
nodes = (
(306,-10,o),
(368,38,o),
(368,114,cs),
(368,292,o),
(97,214,o),
(97,355,cs),
(97,404,o),
(136,442,o),
(211,442,cs),
(269,442,o),
(320,418,o),
(347,381,c),
(368,402,l),
(337,446,o),
(279,470,o),
(214,470,cs),
(123,470,o),
(67,422,o),
(67,354,cs),
(67,185,o),
(338,263,o),
(338,110,cs),
(338,53,o),
(289,18,o),
(213,18,cs),
(152,18,o),
(99,42,o),
(59,94,c),
(38,72,l),
(77,23,o),
(138,-10,o),
(212,-10,cs)
);
}
);
width = 417;
}
);
unicode = 115;
userData = {
KernOnName = s;
};
},
{
glyphname = germandbls;
lastChange = "2021-09-16 16:02:46 +0000";
layers = (
{
background = {
shapes = (
{
closed = 0;
nodes = (
(306,-10,l),
(447,-10,o),
(538,67,o),
(538,187,cs),
(538,280,o),
(481,350,o),
(385,373,c),
(379,360,l),
(460,385,o),
(503,445,o),
(503,529,cs),
(503,638,o),
(424,705,o),
(302,705,cs)
);
},
{
closed = 0;
nodes = (
(302,677,l),
(404,677,o),
(469,619,o),
(469,527,cs),
(469,436,o),
(412,380,o),
(319,380,cs),
(251,380,l),
(251,352,l),
(324,352,ls),
(429,352,o),
(503,283,o),
(503,187,cs),
(503,86,o),
(427,21,o),
(312,21,cs)
);
},
{
closed = 0;
nodes = (
(225,705,l),
(141,705,o),
(80,643,o),
(80,556,cs),
(80,0,l),
(112,0,l),
(112,552,ls),
(112,628,o),
(153,677,o),
(224,677,cs)
);
}
);
};
guides = (
{
angle = 45;
pos = (290,189);
}
);
layerId = "0B0D9703-EF89-4C57-A339-A59A1335C1A4";
shapes = (
{
closed = 1;
nodes = (
(440,-10,o),
(510,79,o),
(510,190,cs),
(510,302,o),
(430,382,o),
(306,382,c),
(307,373,l),
(392,387,o),
(445,455,o),
(445,538,cs),
(445,631,o),
(379,706,o),
(263,706,cs),
(155,706,o),
(80,633,o),
(80,528,cs),
(80,0,l),
(112,0,l),
(112,528,ls),
(112,618,o),
(174,679,o),
(263,679,cs),
(359,679,o),
(413,614,o),
(413,538,cs),
(413,462,o),
(359,388,o),
(268,388,cs),
(239,388,l),
(239,361,l),
(300,361,ls),
(410,361,o),
(478,285,o),
(478,190,cs),
(478,96,o),
(420,19,o),
(309,19,cs),
(263,19,o),
(215,37,o),
(184,70,c),
(162,49,l),
(199,10,o),
(255,-10,o),
(309,-10,cs)
);
}
);
width = 558;
},
{
background = {
shapes = (
{
closed = 1;
nodes = (
(331,420,o),
(377,466,o),
(377,523,cs),
(377,580,o),
(331,626,o),
(274,626,cs),
(217,626,o),
(171,580,o),
(171,523,cs),
(171,466,o),
(217,420,o),
(274,420,cs)
);
}
);
};
layerId = m01;
shapes = (
{
closed = 1;
nodes = (
(454,-10,o),
(550,78,o),
(550,200,cs),
(550,316,o),
(477,391,o),
(373,406,c),
(363,362,l),
(440,383,o),
(492,446,o),
(492,531,cs),
(492,640,o),
(408,730,o),
(281,730,cs),
(151,730,o),
(61,637,o),
(61,523,cs),
(61,0,l),
(171,0,l),
(171,523,ls),
(171,584,o),
(217,626,o),
(281,626,cs),
(343,626,o),
(383,582,o),
(383,523,cs),
(383,456,o),
(346,416,o),
(290,416,cs),
(253,416,l),
(253,319,l),
(313,319,ls),
(377,319,o),
(429,269,o),
(429,203,cs),
(429,135,o),
(383,94,o),
(332,94,cs),
(294,94,o),
(275,105,o),
(261,118,c),
(196,34,l),
(228,5,o),
(262,-10,o),
(328,-10,cs)
);
}
);
width = 578;
},
{
background = {
shapes = (
{
closed = 1;
nodes = (
(484,-9,o),
(590,79,o),
(590,211,cs),
(590,315,o),
(530,387,o),
(425,416,c),
(407,348,l),
(478,373,o),
(533,430,o),
(533,515,cs),
(533,638,o),
(432,737,o),
(301,737,cs),
(153,737,o),
(47,632,o),
(47,506,cs),
(47,0,l),
(219,0,l),
(219,506,ls),
(219,546,o),
(258,577,o),
(301,577,cs),
(329,577,o),
(363,546,o),
(363,510,cs),
(363,460,o),
(335,446,o),
(304,446,cs),
(275,446,l),
(275,297,l),
(335,297,ls),
(368,297,o),
(395,272,o),
(395,230,cs),
(395,182,o),
(372,169,o),
(353,169,cs),
(347,169,o),
(349,165,o),
(347,165,c),
(243,30,l),
(272,4,o),
(298,-9,o),
(363,-9,cs)
);
}
);
};
guides = (
{
angle = 90;
pos = (237,177);
}
);
layerId = "9F43D23A-D415-475F-B4C7-798B571F7CAB";
shapes = (
{
closed = 1;
nodes = (
(500,-9,o),
(592,110,o),
(592,220,cs),
(592,310,o),
(553,383,o),
(449,420,c),
(471,386,l),
(524,422,o),
(543,474,o),
(543,535,cs),
(543,634,o),
(460,739,o),
(305,739,cs),
(139,739,o),
(47,632,o),
(47,494,cs),
(47,0,l),
(237,0,l),
(237,507,ls),
(237,555,o),
(261,578,o),
(298,578,cs),
(336,578,o),
(357,553,o),
(357,519,cs),
(357,484,o),
(332,459,o),
(296,459,cs),
(280,459,l),
(280,309,l),
(308,309,ls),
(363,309,o),
(400,275,o),
(400,230,cs),
(400,185,o),
(367,152,o),
(320,152,cs),
(309,152,o),
(301,154,o),
(293,157,c),
(255,13,l),
(280,-1,o),
(308,-9,o),
(346,-9,cs)
);
}
);
width = 605;
}
);
unicode = 223;
},
{
glyphname = t;
kernLeft = f;
kernRight = t;
lastChange = "2021-09-16 15:09:52 +0000";
layers = (
{
background = {
shapes = (
{
closed = 1;
nodes = (
(244,0,l),
(244,640,l),
(134,640,l),
(134,0,l)
);
},
{
closed = 1;
nodes = (
(-11,380,l),
(389,380,l),
(389,480,l),
(-11,480,l)
);
}
);
};
layerId = m01;
shapes = (
{
closed = 1;
nodes = (
(244,0,l),
(244,680,l),
(134,680,l),
(134,0,l)
);
},
{
closed = 1;
nodes = (
(359,380,l),
(359,480,l),
(19,480,l),
(19,380,l)
);
}
);
width = 378;
},
{
layerId = "9F43D23A-D415-475F-B4C7-798B571F7CAB";
shapes = (
{
closed = 1;
nodes = (
(308,0,l),
(308,694,l),
(112,694,l),
(112,0,l)
);
},
{
closed = 1;
nodes = (
(413,332,l),
(413,492,l),
(7,492,l),
(7,332,l)
);
}
);
width = 420;
},
{
layerId = "0B0D9703-EF89-4C57-A339-A59A1335C1A4";
shapes = (
{
closed = 1;
nodes = (
(184,0,l),
(184,656,l),
(153,656,l),
(153,0,l)
);
},
{
closed = 1;
nodes = (
(305,433,l),
(305,460,l),
(31,460,l),
(31,433,l)
);
}
);
width = 336;
}
);
unicode = 116;
userData = {
KernOnName = t;
};
},
{
glyphname = u;
kernLeft = u;
kernRight = u;
lastChange = "2021-09-13 17:30:05 +0000";
layers = (
{
anchors = (
{
name = bottom;
pos = (259,0);
},
{
name = ogonek;
pos = (465,10);
},
{
name = top;
pos = (259,480);
},
{
name = topright;
pos = (497,480);
}
);
background = {
shapes = (
{
closed = 1;
nodes = (
(369,480,l),
(369,108,l),
(369,0,l),
(479,0,l),
(479,480,l)
);
},
{
closed = 1;
nodes = (
(376,166,l),
(358,122,o),
(310,93,o),
(254,93,cs),
(186,93,o),
(146,135,o),
(146,206,cs),
(146,480,l),
(36,480,l),
(36,177,ls),
(36,69,o),
(115,-10,o),
(223,-10,cs),
(328,-10,o),
(413,67,o),
(413,162,c)
);
}
);
};
layerId = m01;
shapes = (
{
closed = 1;
nodes = (
(382,-10,o),
(467,75,o),
(467,201,cs),
(467,480,l),
(357,480,l),
(357,206,ls),
(357,135,o),
(322,96,o),
(258,96,cs),
(195,96,o),
(159,136,o),
(159,206,cs),
(159,480,l),
(49,480,l),
(49,201,ls),
(49,77,o),
(135,-10,o),
(258,-10,cs)
);
}
);
width = 517;
},
{
anchors = (
{
name = bottom;
pos = (281,0);
},
{
name = ogonek;
pos = (505,10);
},
{
name = top;
pos = (281,492);
},
{
name = topright;
pos = (541,492);
}
);
background = {
shapes = (
{
closed = 1;
nodes = (
(408,-12,o),
(506,78,o),
(506,208,cs),
(506,492,l),
(309,492,l),
(309,197,ls),
(309,173,o),
(292,154,o),
(268,154,cs),
(243,154,o),
(227,173,o),
(227,197,cs),
(227,492,l),
(30,492,l),
(30,208,ls),
(30,79,o),
(129,-12,o),
(268,-12,cs)
);
}
);
};
layerId = "9F43D23A-D415-475F-B4C7-798B571F7CAB";
shapes = (
{
closed = 1;
nodes = (
(425,-12,o),
(527,78,o),
(527,208,cs),
(527,492,l),
(331,492,l),
(331,206,ls),
(331,175,o),
(309,154,o),
(281,154,cs),
(251,154,o),
(230,175,o),
(230,206,cs),
(230,492,l),
(34,492,l),
(34,208,ls),
(34,79,o),
(137,-12,o),
(281,-12,cs)
);
}
);
width = 561;
},
{
anchors = (
{
name = bottom;
pos = (256,0);
},
{
name = ogonek;
pos = (461,10);
},
{
name = top;
pos = (256,460);
},
{
name = topright;
pos = (492,460);
}
);
background = {
shapes = (
{
pos = (-24,0);
ref = n;
}
);
};
layerId = "0B0D9703-EF89-4C57-A339-A59A1335C1A4";
shapes = (
{
closed = 1;
nodes = (
(366,-10,o),
(443,73,o),
(443,192,cs),
(443,460,l),
(412,460,l),
(412,193,ls),
(412,90,o),
(349,18,o),
(256,18,cs),
(163,18,o),
(100,91,o),
(100,193,cs),
(100,460,l),
(69,460,l),
(69,192,ls),
(69,72,o),
(147,-10,o),
(256,-10,cs)
);
}
);
width = 512;
}
);
unicode = 117;
userData = {
KernOnName = u;
};
},
{
glyphname = v;
kernLeft = v;
kernRight = v;
lastChange = "2021-07-28 20:39:35 +0000";
layers = (
{
background = {
shapes = (
{
closed = 1;
nodes = (
(250,-5,l),
(260,-5,l),
(503,480,l),
(386,480,l),
(216,123,l),
(301,123,l),
(131,480,l),
(7,480,l)
);
}
);
};
layerId = m01;
shapes = (
{
closed = 1;
nodes = (
(287,0,l),
(506,480,l),
(389,480,l),
(221,89,l),
(293,89,l),
(126,480,l),
(4,480,l),
(223,0,l)
);
}
);
width = 510;
},
{
layerId = "9F43D23A-D415-475F-B4C7-798B571F7CAB";
shapes = (
{
closed = 1;
nodes = (
(373,1,l),
(566,492,l),
(359,492,l),
(247,73,l),
(318,73,l),
(205,492,l),
(-3,492,l),
(190,0,l)
);
}
);
width = 563;
},
{
guides = (
{
angle = 25.1531;
pos = (81,448);
showMeasurement = 1;
}
);
layerId = "0B0D9703-EF89-4C57-A339-A59A1335C1A4";
shapes = (
{
closed = 1;
nodes = (
(265,0,l),
(483,460,l),
(449,460,l),
(248,28,l),
(265,28,l),
(65,460,l),
(31,460,l),
(247,0,l)
);
}
);
width = 514;
}
);
unicode = 118;
userData = {
KernOnName = v;
};
},
{
glyphname = w;
lastChange = "2021-07-28 20:39:52 +0000";
layers = (
{
background = {
shapes = (
{
closed = 1;
nodes = (
(639,480,l),
(496,156,l),
(552,156,l),
(414,480,l),
(303,480,l),
(518,-5,l),
(528,-5,l),
(756,480,l)
);
},
{
closed = 1;
nodes = (
(353,438,l),
(216,156,l),
(267,156,l),
(115,480,l),
(-2,480,l),
(236,-5,l),
(246,-5,l),
(408,335,l)
);
}
);
};
layerId = m01;
shapes = (
{
closed = 1;
nodes = (
(265,0,l),
(395,332,l),
(359,332,l),
(489,0,l),
(553,0,l),
(746,480,l),
(632,480,l),
(502,131,l),
(536,130,l),
(409,480,l),
(345,480,l),
(218,130,l),
(252,131,l),
(122,480,l),
(8,480,l),
(201,0,l)
);
}
);
width = 754;
},
{
background = {
shapes = (
{
pos = (-42,0);
ref = m;
}
);
};
layerId = "9F43D23A-D415-475F-B4C7-798B571F7CAB";
shapes = (
{
closed = 1;
nodes = (
(329,0,l),
(428,340,l),
(388,340,l),
(484,0,l),
(671,0,l),
(814,492,l),
(628,492,l),
(547,134,l),
(603,133,l),
(499,492,l),
(314,492,l),
(211,133,l),
(266,134,l),
(187,492,l),
(1,492,l),
(144,0,l)
);
}
);
width = 815;
},
{
background = {
shapes = (
{
closed = 1;
nodes = (
(227,0,l),
(381,438,l),
(361,438,l),
(490,0,l),
(509,0,l),
(704,460,l),
(601,460,l),
(420,26,l),
(509,26,l),
(377,460,l),
(360,460,l),
(208,28,l),
(226,28,l),
(66,460,l),
(33,460,l),
(208,0,l)
);
}
);
};
layerId = "0B0D9703-EF89-4C57-A339-A59A1335C1A4";
shapes = (
{
closed = 1;
nodes = (
(222,0,l),
(381,438,l),
(357,438,l),
(516,0,l),
(535,0,l),
(705,460,l),
(672,460,l),
(517,28,l),
(535,28,l),
(378,460,l),
(360,460,l),
(203,28,l),
(221,28,l),
(66,460,l),
(33,460,l),
(203,0,l)
);
}
);
width = 738;
}
);
unicode = 119;
userData = {
KernOnName = w;
};
},
{
glyphname = x;
lastChange = "2021-07-28 20:22:12 +0000";
layers = (
{
background = {
shapes = (
{
pos = (-33,0);
ref = n;
}
);
};
layerId = m01;
shapes = (
{
closed = 1;
nodes = (
(497,0,l),
(296,285,l),
(277,302,l),
(154,480,l),
(21,480,l),
(207,221,l),
(227,203,l),
(365,0,l)
);
},
{
closed = 1;
nodes = (
(140,0,l),
(270,190,l),
(206,269,l),
(12,0,l)
);
},
{
closed = 1;
nodes = (
(488,480,l),
(361,480,l),
(241,301,l),
(306,223,l)
);
}
);
width = 509;
},
{
background = {
shapes = (
{
closed = 1;
nodes = (
(566,0,l),
(362,293,l),
(341,316,l),
(231,492,l),
(7,492,l),
(213,199,l),
(235,174,l),
(344,0,l)
);
},
{
closed = 1;
nodes = (
(147,0,l),
(299,195,l),
(225,276,l),
(-3,0,l)
);
},
{
closed = 1;
nodes = (
(556,492,l),
(407,492,l),
(266,309,l),
(342,229,l)
);
}
);
};
layerId = "9F43D23A-D415-475F-B4C7-798B571F7CAB";
shapes = (
{
closed = 1;
nodes = (
(566,0,l),
(372,293,l),
(327,316,l),
(231,492,l),
(7,492,l),
(203,199,l),
(249,174,l),
(344,0,l)
);
},
{
closed = 1;
nodes = (
(203,0,l),
(311,179,l),
(201,296,l),
(-3,0,l)
);
},
{
closed = 1;
nodes = (
(556,492,l),
(350,492,l),
(250,316,l),
(360,199,l)
);
}
);
width = 563;
},
{
background = {
shapes = (
{
closed = 1;
nodes = (
(466,0,l),
(263,247,l),
(254,253,l),
(80,460,l),
(40,460,l),
(236,231,l),
(245,224,l),
(426,0,l)
);
},
{
closed = 1;
nodes = (
(71,0,l),
(252,222,l),
(238,247,l),
(32,0,l)
);
},
{
closed = 1;
nodes = (
(458,460,l),
(419,460,l),
(248,254,l),
(262,231,l)
);
}
);
};
layerId = "0B0D9703-EF89-4C57-A339-A59A1335C1A4";
shapes = (
{
closed = 1;
nodes = (
(457,0,l),
(258,247,l),
(249,253,l),
(79,460,l),
(39,460,l),
(231,231,l),
(240,224,l),
(417,0,l)
);
},
{
closed = 1;
nodes = (
(70,0,l),
(247,222,l),
(233,247,l),
(31,0,l)
);
},
{
closed = 1;
nodes = (
(449,460,l),
(410,460,l),
(243,254,l),
(257,231,l)
);
}
);
width = 488;
}
);
unicode = 120;
userData = {
KernOnName = x;
};
},
{
glyphname = y;
kernLeft = v;
kernRight = y;
lastChange = "2021-09-13 17:31:07 +0000";
layers = (
{
anchors = (
{
name = bottom;
pos = (259,0);
},
{
name = top;
pos = (259,480);
}
);
layerId = m01;
shapes = (
{
closed = 1;
nodes = (
(284,-5,l),
(507,480,l),
(385,480,l),
(237,124,l),
(272,124,l),
(132,480,l),
(11,480,l),
(216,-5,l)
);
},
{
closed = 1;
nodes = (
(195,-200,l),
(284,-5,l),
(222,107,l),
(73,-200,l)
);
}
);
width = 518;
},
{
anchors = (
{
name = bottom;
pos = (275,0);
},
{
name = top;
pos = (275,492);
}
);
background = {
shapes = (
{
closed = 1;
nodes = (
(359,1,l),
(552,492,l),
(345,492,l),
(233,73,l),
(304,73,l),
(191,492,l),
(-17,492,l),
(176,0,l)
);
}
);
};
layerId = "9F43D23A-D415-475F-B4C7-798B571F7CAB";
shapes = (
{
closed = 1;
nodes = (
(359,1,l),
(552,492,l),
(345,492,l),
(233,73,l),
(319,73,l),
(205,492,l),
(-3,492,l),
(191,0,l)
);
},
{
closed = 1;
nodes = (
(276,-210,l),
(359,1,l),
(227,113,l),
(84,-210,l)
);
}
);
width = 549;
},
{
anchors = (
{
name = bottom;
pos = (251,0);
},
{
name = top;
pos = (251,460);
}
);
background = {
shapes = (
{
pos = (-14,0);
ref = v;
}
);
};
layerId = "0B0D9703-EF89-4C57-A339-A59A1335C1A4";
shapes = (
{
closed = 1;
nodes = (
(252,0,l),
(470,460,l),
(436,460,l),
(235,28,l),
(258,28,l),
(66,460,l),
(32,460,l),
(240,0,l)
);
},
{
closed = 1;
nodes = (
(159,-196,l),
(252,0,l),
(236,30,l),
(126,-196,l)
);
}
);
width = 502;
}
);
unicode = 121;
userData = {
KernOnName = y;
};
},
{
glyphname = z;
lastChange = "2021-07-28 19:11:48 +0000";
layers = (
{
background = {
shapes = (
{
closed = 1;
nodes = (
(25,10,l),
(25,0,l),
(442,0,l),
(442,100,l),
(125,100,l)
);
},
{
closed = 1;
nodes = (
(43,380,l),
(348,380,l),
(448,470,l),
(448,480,l),
(43,480,l)
);
},
{
closed = 1;
nodes = (
(145,10,l),
(448,470,l),
(328,470,l),
(25,10,l)
);
}
);
};
layerId = m01;
shapes = (
{
closed = 1;
nodes = (
(154,60,l),
(422,420,l),
(293,420,l),
(25,60,l)
);
},
{
closed = 1;
nodes = (
(416,0,l),
(416,100,l),
(125,100,l),
(25,60,l),
(25,0,l)
);
},
{
closed = 1;
nodes = (
(322,380,l),
(422,420,l),
(422,480,l),
(43,480,l),
(43,380,l)
);
}
);
width = 451;
},
{
layerId = "9F43D23A-D415-475F-B4C7-798B571F7CAB";
shapes = (
{
closed = 1;
nodes = (
(264,119,l),
(484,373,l),
(241,373,l),
(21,119,l)
);
},
{
closed = 1;
nodes = (
(478,0,l),
(478,156,l),
(138,156,l),
(21,119,l),
(21,0,l)
);
},
{
closed = 1;
nodes = (
(367,336,l),
(484,373,l),
(484,492,l),
(38,492,l),
(38,336,l)
);
}
);
width = 510;
},
{
layerId = "0B0D9703-EF89-4C57-A339-A59A1335C1A4";
shapes = (
{
closed = 1;
nodes = (
(72,17,l),
(397,443,l),
(360,443,l),
(35,17,l)
);
},
{
closed = 1;
nodes = (
(392,0,l),
(392,27,l),
(56,27,l),
(35,17,l),
(35,0,l)
);
},
{
closed = 1;
nodes = (
(366,433,l),
(397,443,l),
(397,460,l),
(51,460,l),
(51,433,l)
);
}
);
width = 433;
}
);
unicode = 122;
},
{
glyphname = e.ss01;
kernLeft = o;
lastChange = "2021-07-22 20:34:11 +0000";
layers = (
{
background = {
shapes = (
{
closed = 1;
nodes = (
(491,366,l),
(452,444,o),
(379,490,o),
(283,490,cs),
(139,490,o),
(30,381,o),
(30,240,cs),
(30,97,o),
(140,-10,o),
(289,-10,cs),
(369,-10,o),
(438,18,o),
(485,73,c),
(415,144,l),
(386,110,o),
(342,93,o),
(288,93,cs),
(196,93,o),
(138,152,o),
(138,243,cs),
(138,332,o),
(192,389,o),
(281,389,cs),
(335,389,o),
(371,370,o),
(392,335,c)
);
},
{
closed = 1;
nodes = (
(210,84,l),
(491,366,l),
(427,429,l),
(146,148,l)
);
}
);
};
layerId = m01;
shapes = (
{
closed = 1;
nodes = (
(369,-10,o),
(438,18,o),
(485,73,c),
(415,144,l),
(386,110,o),
(342,93,o),
(288,93,cs),
(195,93,o),
(138,153,o),
(138,241,cs),
(138,327,o),
(195,389,o),
(286,389,cs),
(349,389,o),
(382,363,o),
(402,321,c),
(400,402,l),
(146,148,l),
(210,84,l),
(491,366,l),
(450,445,o),
(382,490,o),
(284,490,cs),
(140,490,o),
(30,380,o),
(30,241,cs),
(30,101,o),
(136,-10,o),
(289,-10,cs)
);
}
);
width = 513;
},
{
layerId = "9F43D23A-D415-475F-B4C7-798B571F7CAB";
shapes = (
{
closed = 1;
nodes = (
(396,-12,o),
(465,16,o),
(523,76,c),
(425,173,l),
(391,137,o),
(361,123,o),
(320,123,cs),
(245,123,o),
(191,178,o),
(191,256,cs),
(191,321,o),
(229,361,o),
(293,361,cs),
(342,361,o),
(375,336,o),
(387,290,c),
(407,412,l),
(126,150,l),
(218,55,l),
(529,346,l),
(492,448,o),
(409,504,o),
(293,504,cs),
(133,504,o),
(15,395,o),
(15,247,cs),
(15,96,o),
(138,-12,o),
(308,-12,cs)
);
}
);
width = 537;
},
{
layerId = "0B0D9703-EF89-4C57-A339-A59A1335C1A4";
shapes = (
{
closed = 1;
nodes = (
(362,-10,o),
(416,14,o),
(462,59,c),
(441,80,l),
(401,40,o),
(355,19,o),
(287,19,cs),
(170,19,o),
(82,110,o),
(82,232,cs),
(82,351,o),
(170,441,o),
(287,441,cs),
(345,441,o),
(396,418,o),
(429,381,c),
(430,399,l),
(119,88,l),
(138,66,l),
(463,391,l),
(421,440,o),
(358,470,o),
(287,470,cs),
(153,470,o),
(50,366,o),
(50,232,cs),
(50,96,o),
(153,-10,o),
(287,-10,cs)
);
}
);
width = 501;
}
);
},
{
glyphname = g.ss01;
lastChange = "2021-07-22 20:34:11 +0000";
layers = (
{
background = {
shapes = (
{
closed = 1;
nodes = (
(21,-117,l),
(66,-179,o),
(138,-211,o),
(228,-211,cs),
(370,-211,o),
(468,-131,o),
(468,-15,cs),
(468,97,o),
(376,176,o),
(247,176,c),
(253,117,l),
(366,117,o),
(449,194,o),
(449,301,cs),
(449,408,o),
(361,490,o),
(248,490,cs),
(133,490,o),
(47,406,o),
(47,291,cs),
(47,176,o),
(132,94,o),
(245,94,cs),
(309,94,o),
(355,50,o),
(355,-8,cs),
(355,-69,o),
(308,-105,o),
(228,-105,cs),
(168,-105,o),
(134,-87,o),
(97,-41,c)
);
},
{
closed = 1;
nodes = (
(191,197,o),
(152,236,o),
(152,291,cs),
(152,346,o),
(190,385,o),
(248,385,cs),
(306,385,o),
(344,346,o),
(344,291,cs),
(344,236,o),
(305,197,o),
(248,197,cs)
);
},
{
closed = 1;
nodes = (
(386,360,l),
(502,477,l),
(434,545,l),
(318,428,l)
);
}
);
};
layerId = m01;
shapes = (
{
closed = 1;
nodes = (
(380,-210,o),
(469,-131,o),
(469,-15,cs),
(469,97,o),
(377,176,o),
(248,176,c),
(254,117,l),
(367,117,o),
(450,194,o),
(450,301,cs),
(450,408,o),
(362,490,o),
(249,490,cs),
(134,490,o),
(48,406,o),
(48,291,cs),
(48,176,o),
(133,94,o),
(246,94,cs),
(310,94,o),
(356,50,o),
(356,-8,cs),
(356,-69,o),
(314,-104,o),
(241,-104,cs),
(173,-104,o),
(130,-73,o),
(130,-26,cs),
(130,0,o),
(137,17,o),
(151,29,c),
(63,86,l),
(32,58,o),
(17,27,o),
(17,-28,cs),
(17,-137,o),
(116,-210,o),
(241,-210,cs)
);
},
{
closed = 1;
nodes = (
(192,197,o),
(153,236,o),
(153,291,cs),
(153,346,o),
(191,385,o),
(249,385,cs),
(307,385,o),
(345,346,o),
(345,291,cs),
(345,236,o),
(306,197,o),
(249,197,cs)
);
},
{
closed = 1;
nodes = (
(503,477,l),
(435,545,l),
(319,428,l),
(387,360,l)
);
}
);
width = 514;
},
{
background = {
shapes = (
{
closed = 0;
nodes = (
(245,-222,ls),
(392,-222,o),
(493,-132,o),
(493,0,cs),
(493,131,o),
(392,222,o),
(245,222,cs)
);
}
);
};
layerId = "9F43D23A-D415-475F-B4C7-798B571F7CAB";
shapes = (
{
closed = 1;
nodes = (
(397,-222,o),
(498,-131,o),
(498,-1,cs),
(498,120,o),
(406,215,o),
(264,222,c),
(260,116,l),
(382,116,o),
(472,196,o),
(472,306,cs),
(472,417,o),
(377,502,o),
(255,502,cs),
(130,502,o),
(37,415,o),
(37,296,cs),
(37,181,o),
(126,92,o),
(241,92,cs),
(299,92,o),
(338,62,o),
(338,12,cs),
(338,-36,o),
(306,-64,o),
(252,-64,cs),
(201,-64,o),
(174,-44,o),
(174,-11,cs),
(174,4,o),
(179,15,o),
(191,28,c),
(60,112,l),
(23,67,o),
(4,33,o),
(4,-28,cs),
(4,-141,o),
(105,-222,o),
(250,-222,cs)
);
},
{
closed = 1;
nodes = (
(221,240,o),
(197,263,o),
(197,296,cs),
(197,329,o),
(221,352,o),
(255,352,cs),
(289,352,o),
(312,329,o),
(312,296,cs),
(312,263,o),
(288,240,o),
(255,240,cs)
);
},
{
closed = 1;
nodes = (
(523,458,l),
(414,567,l),
(307,463,l),
(416,354,l)
);
}
);
width = 525;
},
{
background = {
shapes = (
{
closed = 0;
nodes = (
(61,301,ls),
(61,193,o),
(137,114,o),
(240,114,cs),
(340,114,o),
(419,191,o),
(419,292,cs),
(419,393,o),
(340,470,o),
(240,470,cs),
(137,470,o),
(61,391,o),
(61,283,cs)
);
},
{
closed = 0;
nodes = (
(239,137,l),
(343,137,o),
(435,71,o),
(435,-37,cs),
(435,-149,o),
(356,-206,o),
(232,-206,cs),
(108,-206,o),
(29,-149,o),
(29,-37,cs),
(29,71,o),
(121,137,o),
(225,137,c)
);
},
{
closed = 0;
nodes = (
(237,114,ls),
(314,114,o),
(404,60,o),
(404,-36,cs),
(404,-134,o),
(333,-178,o),
(232,-178,cs),
(131,-178,o),
(60,-134,o),
(60,-36,cs),
(60,60,o),
(150,114,o),
(227,114,cs)
);
}
);
};
guides = (
{
pos = (212,470);
}
);
layerId = "0B0D9703-EF89-4C57-A339-A59A1335C1A4";
shapes = (
{
closed = 1;
nodes = (
(356,-206,o),
(435,-136,o),
(435,-31,cs),
(435,74,o),
(355,147,o),
(239,147,c),
(247,128,l),
(336,128,o),
(414,207,o),
(414,298,cs),
(414,391,o),
(335,470,o),
(241,470,cs),
(144,470,o),
(65,392,o),
(65,296,cs),
(65,201,o),
(142,124,o),
(237,124,cs),
(332,124,o),
(404,58,o),
(404,-31,cs),
(404,-119,o),
(336,-178,o),
(236,-178,cs),
(136,-178,o),
(68,-120,o),
(68,-27,cs),
(68,12,o),
(83,42,o),
(111,68,c),
(90,89,l),
(55,55,o),
(37,16,o),
(37,-34,cs),
(37,-136,o),
(119,-206,o),
(237,-206,cs)
);
},
{
closed = 1;
nodes = (
(159,152,o),
(96,216,o),
(96,297,cs),
(96,379,o),
(158,442,o),
(240,442,cs),
(320,442,o),
(383,378,o),
(383,297,cs),
(383,216,o),
(320,152,o),
(240,152,cs)
);
},
{
closed = 1;
nodes = (
(459,493,l),
(441,511,l),
(345,415,l),
(362,397,l)
);
}
);
width = 478;
}
);
},
{
glyphname = k.ss01;
kernLeft = h;
lastChange = "2021-09-27 21:44:23 +0000";
layers = (
{
background = {
shapes = (
{
pos = (1,0);
ref = h;
}
);
};
layerId = m01;
shapes = (
{
closed = 1;
nodes = (
(486,57,l),
(273,283,l),
(268,212,l),
(478,427,l),
(405,496,l),
(163,245,l),
(406,-16,l)
);
},
{
closed = 1;
nodes = (
(171,0,l),
(171,720,l),
(61,720,l),
(61,0,l)
);
}
);
width = 503;
},
{
background = {
shapes = (
{
closed = 1;
nodes = (
(584,0,l),
(403,293,l),
(398,229,l),
(515,403,l),
(363,492,l),
(227,259,l),
(364,0,l)
);
},
{
closed = 1;
nodes = (
(243,0,l),
(243,732,l),
(47,732,l),
(47,0,l)
);
}
);
};
layerId = "9F43D23A-D415-475F-B4C7-798B571F7CAB";
shapes = (
{
closed = 1;
nodes = (
(562,84,l),
(403,293,l),
(398,229,l),
(547,416,l),
(406,518,l),
(227,259,l),
(409,-20,l)
);
},
{
closed = 1;
nodes = (
(243,0,l),
(243,732,l),
(47,732,l),
(47,0,l)
);
}
);
width = 563;
},
{
background = {
shapes = (
{
pos = (8,0);
ref = h;
}
);
};
layerId = "0B0D9703-EF89-4C57-A339-A59A1335C1A4";
shapes = (
{
closed = 1;
nodes = (
(412,13,l),
(136,248,l),
(137,228,l),
(394,448,l),
(375,470,l),
(104,237,l),
(392,-10,l)
);
},
{
closed = 1;
nodes = (
(111,0,l),
(111,696,l),
(80,696,l),
(80,0,l)
);
}
);
width = 444;
}
);
userData = {
KernOnName = k;
};
},
{
glyphname = m.ss01;
kernLeft = n;
kernRight = n;
lastChange = "2021-09-16 14:31:00 +0000";
layers = (
{
background = {
shapes = (
{
closed = 1;
nodes = (
(159,0,l),
(159,480,l),
(49,480,l),
(49,0,l)
);
},
{
closed = 1;
nodes = (
(478,0,l),
(478,310,ls),
(478,421,o),
(399,490,o),
(297,490,cs),
(195,490,o),
(116,419,o),
(116,310,c),
(159,286,l),
(159,350,o),
(205,387,o),
(264,387,cs),
(323,387,o),
(368,350,o),
(368,286,cs),
(368,0,l)
);
},
{
closed = 1;
nodes = (
(797,0,l),
(797,310,ls),
(797,421,o),
(714,490,o),
(611,490,cs),
(508,490,o),
(426,419,o),
(416,310,c),
(478,286,l),
(478,350,o),
(524,387,o),
(583,387,cs),
(642,387,o),
(687,350,o),
(687,286,cs),
(687,0,l)
);
}
);
};
layerId = m01;
shapes = (
{
closed = 1;
nodes = (
(159,0,l),
(159,264,ls),
(159,342,o),
(195,384,o),
(262,384,cs),
(330,384,o),
(365,343,o),
(365,264,cs),
(365,0,l),
(475,0,l),
(475,264,ls),
(475,342,o),
(510,384,o),
(578,384,cs),
(645,384,o),
(681,341,o),
(681,264,cs),
(681,0,l),
(791,0,l),
(791,279,ls),
(791,403,o),
(705,490,o),
(578,490,cs),
(495,490,o),
(435,451,o),
(403,388,c),
(437,388,l),
(405,451,o),
(345,490,o),
(262,490,cs),
(135,490,o),
(49,403,o),
(49,279,cs),
(49,0,l)
);
}
);
width = 840;
},
{
background = {
shapes = (
{
closed = 1;
nodes = (
(232,0,l),
(232,492,l),
(36,492,l),
(36,0,l)
);
},
{
closed = 1;
nodes = (
(535,0,l),
(535,311,ls),
(535,426,o),
(456,502,o),
(356,502,cs),
(242,502,o),
(156,430,o),
(156,310,c),
(232,282,l),
(232,315,o),
(253,336,o),
(286,336,cs),
(317,336,o),
(339,315,o),
(339,282,cs),
(339,0,l)
);
},
{
closed = 1;
nodes = (
(838,0,l),
(838,292,ls),
(838,424,o),
(753,502,o),
(636,502,cs),
(509,502,o),
(420,419,o),
(420,281,c),
(535,282,l),
(535,315,o),
(556,336,o),
(589,336,cs),
(620,336,o),
(642,315,o),
(642,282,cs),
(642,0,l)
);
}
);
};
layerId = "9F43D23A-D415-475F-B4C7-798B571F7CAB";
shapes = (
{
closed = 1;
nodes = (
(232,0,l),
(232,286,ls),
(232,317,o),
(253,338,o),
(283,338,cs),
(311,338,o),
(333,317,o),
(333,286,cs),
(333,0,l),
(529,0,l),
(529,286,ls),
(529,317,o),
(551,338,o),
(579,338,cs),
(609,338,o),
(630,317,o),
(630,286,cs),
(630,0,l),
(826,0,l),
(826,284,ls),
(826,413,o),
(739,504,o),
(598,504,cs),
(506,504,o),
(436,468,o),
(398,376,c),
(464,376,l),
(426,468,o),
(356,504,o),
(264,504,cs),
(123,504,o),
(36,413,o),
(36,284,cs),
(36,0,l)
);
}
);
width = 861;
},
{
background = {
shapes = (
{
closed = 1;
nodes = (
(101,0,l),
(101,460,l),
(70,460,l),
(70,0,l)
);
},
{
closed = 1;
nodes = (
(429,0,l),
(429,292,ls),
(429,399,o),
(356,470,o),
(258,470,cs),
(158,470,o),
(80,399,o),
(80,293,c),
(101,292,l),
(101,382,o),
(170,442,o),
(255,442,cs),
(339,442,o),
(398,381,o),
(398,290,cs),
(398,0,l)
);
},
{
closed = 1;
nodes = (
(757,0,l),
(757,291,ls),
(757,399,o),
(684,470,o),
(586,470,cs),
(488,470,o),
(408,400,o),
(408,293,c),
(429,292,l),
(429,382,o),
(498,442,o),
(583,442,cs),
(667,442,o),
(727,381,o),
(727,290,cs),
(727,0,l)
);
}
);
};
layerId = "0B0D9703-EF89-4C57-A339-A59A1335C1A4";
shapes = (
{
closed = 1;
nodes = (
(101,0,l),
(101,282,ls),
(101,384,o),
(164,442,o),
(249,442,cs),
(334,442,o),
(397,385,o),
(397,282,cs),
(397,0,l),
(428,0,l),
(428,282,ls),
(428,384,o),
(491,442,o),
(576,442,cs),
(661,442,o),
(724,385,o),
(724,282,cs),
(724,0,l),
(755,0,l),
(755,283,ls),
(755,402,o),
(678,470,o),
(576,470,cs),
(493,470,o),
(429,424,o),
(409,340,c),
(414,340,l),
(396,423,o),
(333,470,o),
(249,470,cs),
(148,470,o),
(70,403,o),
(70,283,cs),
(70,0,l)
);
}
);
width = 825;
}
);
},
{
glyphname = n.ss01;
kernLeft = n;
kernRight = n;
lastChange = "2021-09-16 14:33:27 +0000";
layers = (
{
anchors = (
{
name = bottom;
pos = (264,0);
},
{
name = top;
pos = (264,480);
}
);
background = {
shapes = (
{
closed = 1;
nodes = (
(488,0,l),
(488,301,ls),
(488,395,o),
(410,490,o),
(302,490,cs),
(195,490,o),
(116,410,o),
(116,301,c),
(159,277,l),
(159,341,o),
(205,387,o),
(269,387,cs),
(333,387,o),
(378,341,o),
(378,277,cs),
(378,0,l)
);
},
{
closed = 1;
nodes = (
(159,0,l),
(159,480,l),
(49,480,l),
(49,0,l)
);
}
);
};
layerId = m01;
shapes = (
{
closed = 1;
nodes = (
(159,0,l),
(159,266,ls),
(159,336,o),
(195,384,o),
(263,384,cs),
(332,384,o),
(367,337,o),
(367,266,cs),
(367,0,l),
(477,0,l),
(477,274,ls),
(477,404,o),
(392,490,o),
(263,490,cs),
(135,490,o),
(49,402,o),
(49,274,cs),
(49,0,l)
);
}
);
width = 526;
},
{
anchors = (
{
name = bottom;
pos = (286,0);
},
{
name = top;
pos = (286,492);
}
);
background = {
shapes = (
{
closed = 1;
nodes = (
(543,0,l),
(543,321,ls),
(543,426,o),
(464,502,o),
(359,502,cs),
(240,502,o),
(154,430,o),
(154,310,c),
(230,276,l),
(230,314,o),
(255,336,o),
(289,336,cs),
(322,336,o),
(347,314,o),
(347,276,cs),
(347,0,l)
);
},
{
closed = 1;
nodes = (
(230,0,l),
(230,492,l),
(34,492,l),
(34,0,l)
);
}
);
};
layerId = "9F43D23A-D415-475F-B4C7-798B571F7CAB";
shapes = (
{
closed = 1;
nodes = (
(230,0,l),
(230,274,ls),
(230,315,o),
(251,338,o),
(286,338,cs),
(319,338,o),
(341,315,o),
(341,274,cs),
(341,0,l),
(537,0,l),
(537,272,ls),
(537,412,o),
(435,504,o),
(286,504,cs),
(137,504,o),
(34,411,o),
(34,272,cs),
(34,0,l)
);
}
);
width = 571;
},
{
anchors = (
{
name = bottom;
pos = (261,0);
},
{
name = top;
pos = (261,460);
}
);
background = {
shapes = (
{
closed = 1;
nodes = (
(455,0,l),
(455,275,ls),
(455,389,o),
(381,470,o),
(271,470,cs),
(161,470,o),
(78,392,o),
(78,288,c),
(99,276,l),
(99,373,o),
(168,442,o),
(266,442,cs),
(362,442,o),
(425,375,o),
(425,275,cs),
(425,0,l)
);
},
{
closed = 1;
nodes = (
(99,0,l),
(99,460,l),
(68,460,l),
(68,0,l)
);
}
);
};
layerId = "0B0D9703-EF89-4C57-A339-A59A1335C1A4";
shapes = (
{
closed = 1;
nodes = (
(100,0,l),
(100,267,ls),
(100,369,o),
(163,442,o),
(261,442,cs),
(359,442,o),
(422,370,o),
(422,267,cs),
(422,0,l),
(453,0,l),
(453,268,ls),
(453,387,o),
(376,470,o),
(261,470,cs),
(147,470,o),
(69,388,o),
(69,268,cs),
(69,0,l)
);
}
);
width = 522;
}
);
userData = {
KernOnName = n;
};
},
{
glyphname = t.ss01;
kernLeft = f;
lastChange = "2021-07-22 20:34:11 +0000";
layers = (
{
background = {
shapes = (
{
closed = 1;
nodes = (
(358,103,o),
(341,93,o),
(312,93,cs),
(268,93,o),
(244,117,o),
(244,161,cs),
(244,640,l),
(134,640,l),
(134,162,ls),
(134,61,o),
(207,-10,o),
(312,-10,cs),
(370,-10,o),
(409,11,o),
(445,48,c),
(374,119,l)
);
},
{
closed = 1;
nodes = (
(417,377,l),
(417,480,l),
(19,480,l),
(19,377,l)
);
}
);
};
layerId = m01;
shapes = (
{
closed = 1;
nodes = (
(366,-10,o),
(405,11,o),
(441,55,c),
(375,122,l),
(357,103,o),
(337,93,o),
(308,93,cs),
(274,93,o),
(244,115,o),
(244,160,cs),
(244,680,l),
(134,680,l),
(134,159,ls),
(134,49,o),
(211,-10,o),
(300,-10,cs)
);
},
{
closed = 1;
nodes = (
(417,377,l),
(417,480,l),
(19,480,l),
(19,377,l)
);
}
);
width = 460;
},
{
layerId = "9F43D23A-D415-475F-B4C7-798B571F7CAB";
shapes = (
{
closed = 1;
nodes = (
(414,-12,o),
(460,14,o),
(499,54,c),
(378,175,l),
(368,165,o),
(357,160,o),
(342,160,cs),
(322,160,o),
(307,174,o),
(307,197,cs),
(307,694,l),
(111,694,l),
(111,200,ls),
(111,73,o),
(188,-12,o),
(331,-12,cs)
);
},
{
closed = 1;
nodes = (
(452,332,l),
(452,492,l),
(11,492,l),
(11,332,l)
);
}
);
width = 499;
},
{
layerId = "0B0D9703-EF89-4C57-A339-A59A1335C1A4";
shapes = (
{
closed = 1;
nodes = (
(322,-10,o),
(357,6,o),
(384,34,c),
(363,55,l),
(338,29,o),
(311,18,o),
(279,18,cs),
(215,18,o),
(185,57,o),
(185,126,cs),
(185,656,l),
(153,656,l),
(153,122,ls),
(153,37,o),
(203,-10,o),
(280,-10,cs)
);
},
{
closed = 1;
nodes = (
(374,433,l),
(374,460,l),
(31,460,l),
(31,433,l)
);
}
);
width = 420;
}
);
},
{
glyphname = f_f;
kernLeft = f;
kernRight = f;
lastChange = "2021-07-22 20:34:11 +0000";
layers = (
{
background = {
shapes = (
{
ref = f_t;
}
);
};
layerId = m01;
shapes = (
{
closed = 1;
nodes = (
(237,0,l),
(237,525,ls),
(237,583,o),
(267,620,o),
(327,620,cs),
(387,620,o),
(417,583,o),
(417,522,c),
(497,521,l),
(497,636,o),
(446,720,o),
(327,720,cs),
(208,720,o),
(127,636,o),
(127,521,cs),
(127,0,l)
);
},
{
closed = 1;
nodes = (
(672,380,l),
(672,480,l),
(12,480,l),
(12,380,l)
);
},
{
closed = 1;
nodes = (
(527,0,l),
(527,544,ls),
(527,597,o),
(557,627,o),
(610,627,cs),
(639,627,o),
(656,617,o),
(672,601,c),
(743,672,l),
(707,709,o),
(668,730,o),
(610,730,cs),
(496,730,o),
(417,653,o),
(417,543,cs),
(417,0,l)
);
}
);
width = 693;
},
{
layerId = "9F43D23A-D415-475F-B4C7-798B571F7CAB";
shapes = (
{
closed = 1;
nodes = (
(301,0,l),
(301,511,ls),
(301,549,o),
(326,572,o),
(366,572,cs),
(406,572,o),
(431,549,o),
(431,511,c),
(587,542,l),
(587,629,o),
(500,734,o),
(346,734,cs),
(192,734,o),
(105,629,o),
(105,492,cs),
(105,0,l)
);
},
{
closed = 1;
nodes = (
(762,332,l),
(762,492,l),
(5,492,l),
(5,332,l)
);
},
{
closed = 1;
nodes = (
(627,0,l),
(627,521,ls),
(627,552,o),
(647,572,o),
(678,572,cs),
(694,572,o),
(709,567,o),
(719,557,c),
(840,678,l),
(801,718,o),
(743,744,o),
(668,744,cs),
(518,744,o),
(431,639,o),
(431,511,cs),
(431,0,l)
);
}
);
width = 794;
},
{
background = {
shapes = (
{
closed = 0;
nodes = (
(185,542,ls),
(185,618,o),
(226,667,o),
(300,667,cs),
(374,667,o),
(415,618,o),
(415,542,cs)
);
},
{
closed = 0;
nodes = (
(153,546,ls),
(153,633,o),
(214,695,o),
(300,695,cs),
(386,695,o),
(447,633,o),
(447,546,cs)
);
}
);
};
layerId = "0B0D9703-EF89-4C57-A339-A59A1335C1A4";
shapes = (
{
closed = 1;
nodes = (
(185,0,l),
(185,542,ls),
(185,618,o),
(226,667,o),
(300,667,cs),
(374,667,o),
(411,618,o),
(415,556,c),
(439,556,l),
(439,633,o),
(386,695,o),
(300,695,cs),
(214,695,o),
(153,633,o),
(153,546,cs),
(153,0,l)
);
},
{
closed = 1;
nodes = (
(616,433,l),
(616,460,l),
(31,460,l),
(31,433,l)
);
},
{
closed = 1;
nodes = (
(447,0,l),
(447,552,ls),
(447,628,o),
(488,677,o),
(559,677,cs),
(591,677,o),
(620,666,o),
(645,640,c),
(666,661,l),
(639,689,o),
(602,705,o),
(560,705,cs),
(476,705,o),
(415,643,o),
(415,556,cs),
(415,0,l)
);
}
);
width = 648;
}
);
metricLeft = f;
metricRight = f;
},
{
glyphname = f_j;
kernLeft = f;
lastChange = "2021-07-22 20:34:11 +0000";
layers = (
{
layerId = m01;
shapes = (
{
closed = 1;
nodes = (
(237,0,l),
(237,564,ls),
(237,602,o),
(258,627,o),
(297,627,cs),
(317,627,o),
(332,621,o),
(345,610,c),
(417,682,l),
(384,713,o),
(347,730,o),
(297,730,cs),
(196,730,o),
(127,658,o),
(127,563,cs),
(127,0,l)
);
},
{
closed = 1;
nodes = (
(480,380,l),
(480,480,l),
(12,480,l),
(12,380,l)
);
},
{
closed = 1;
nodes = (
(448,-210,o),
(527,-151,o),
(527,-41,cs),
(527,480,l),
(417,480,l),
(417,-42,ls),
(417,-85,o),
(387,-107,o),
(351,-107,cs),
(322,-107,o),
(303,-97,o),
(287,-76,c),
(216,-147,l),
(252,-189,o),
(291,-210,o),
(359,-210,cs)
);
},
{
closed = 1;
nodes = (
(510,522,o),
(537,551,o),
(537,588,cs),
(537,625,o),
(510,654,o),
(472,654,cs),
(434,654,o),
(407,625,o),
(407,588,cs),
(407,551,o),
(434,522,o),
(472,522,cs)
);
}
);
width = 586;
},
{
layerId = "9F43D23A-D415-475F-B4C7-798B571F7CAB";
shapes = (
{
closed = 1;
nodes = (
(301,0,l),
(301,528,ls),
(301,554,o),
(315,572,o),
(342,572,cs),
(353,572,o),
(362,570,o),
(374,564,c),
(455,716,l),
(417,737,o),
(382,744,o),
(342,744,cs),
(192,744,o),
(105,639,o),
(105,512,cs),
(105,0,l)
);
},
{
closed = 1;
nodes = (
(516,332,l),
(516,492,l),
(5,492,l),
(5,332,l)
);
},
{
closed = 1;
nodes = (
(562,-226,o),
(647,-136,o),
(647,-9,cs),
(647,492,l),
(451,492,l),
(451,-13,ls),
(451,-42,o),
(437,-54,o),
(415,-54,cs),
(404,-54,o),
(393,-50,o),
(380,-37,c),
(261,-156,l),
(300,-199,o),
(355,-226,o),
(428,-226,cs)
);
},
{
closed = 1;
nodes = (
(603,520,o),
(642,562,o),
(642,615,cs),
(642,668,o),
(603,710,o),
(549,710,cs),
(495,710,o),
(456,668,o),
(456,615,cs),
(456,562,o),
(495,520,o),
(549,520,cs)
);
}
);
width = 691;
},
{
layerId = "0B0D9703-EF89-4C57-A339-A59A1335C1A4";
shapes = (
{
closed = 1;
nodes = (
(185,0,l),
(185,552,ls),
(185,628,o),
(226,677,o),
(297,677,cs),
(329,677,o),
(358,666,o),
(383,640,c),
(404,661,l),
(377,689,o),
(340,705,o),
(298,705,cs),
(214,705,o),
(153,643,o),
(153,556,cs),
(153,0,l)
);
},
{
closed = 1;
nodes = (
(430,433,l),
(430,460,l),
(31,460,l),
(31,433,l)
);
},
{
closed = 1;
nodes = (
(385,-206,o),
(446,-163,o),
(446,-76,cs),
(446,460,l),
(414,460,l),
(414,-77,ls),
(414,-148,o),
(371,-178,o),
(317,-178,cs),
(285,-178,o),
(256,-167,o),
(231,-141,c),
(210,-162,l),
(237,-190,o),
(274,-206,o),
(316,-206,cs)
);
},
{
closed = 1;
nodes = (
(448,533,o),
(462,548,o),
(462,566,cs),
(462,584,o),
(448,598,o),
(429,598,cs),
(411,598,o),
(398,584,o),
(398,566,cs),
(398,548,o),
(411,533,o),
(429,533,cs)
);
}
);
width = 526;
}
);
metricLeft = f;
metricRight = j;
},
{
glyphname = f_t;
kernLeft = f;
kernRight = t;
lastChange = "2021-07-22 20:34:11 +0000";
layers = (
{
background = {
shapes = (
{
pos = (-5,0);
ref = fl;
}
);
};
layerId = m01;
shapes = (
{
closed = 1;
nodes = (
(237,0,l),
(237,544,ls),
(237,597,o),
(267,627,o),
(320,627,c),
(320,730,l),
(206,730,o),
(127,653,o),
(127,543,cs),
(127,0,l)
);
},
{
closed = 1;
nodes = (
(642,380,l),
(642,480,l),
(12,480,l),
(12,380,l)
);
},
{
closed = 1;
nodes = (
(527,0,l),
(527,680,l),
(417,680,l),
(417,0,l)
);
}
);
width = 661;
},
{
layerId = "9F43D23A-D415-475F-B4C7-798B571F7CAB";
shapes = (
{
closed = 1;
nodes = (
(301,0,l),
(301,521,ls),
(301,552,o),
(321,572,o),
(347,572,c),
(347,744,l),
(192,744,o),
(105,639,o),
(105,512,cs),
(105,0,l)
);
},
{
closed = 1;
nodes = (
(732,332,l),
(732,492,l),
(5,492,l),
(5,332,l)
);
},
{
closed = 1;
nodes = (
(627,0,l),
(627,694,l),
(431,694,l),
(431,0,l)
);
}
);
width = 739;
},
{
layerId = "0B0D9703-EF89-4C57-A339-A59A1335C1A4";
shapes = (
{
closed = 1;
nodes = (
(185,0,l),
(185,552,ls),
(185,628,o),
(226,677,o),
(297,677,c),
(298,705,l),
(214,705,o),
(153,643,o),
(153,556,cs),
(153,0,l)
);
},
{
closed = 1;
nodes = (
(568,433,l),
(568,460,l),
(31,460,l),
(31,433,l)
);
},
{
closed = 1;
nodes = (
(447,0,l),
(447,656,l),
(415,656,l),
(415,0,l)
);
}
);
width = 599;
}
);
metricLeft = f;
metricRight = t;
},
{
glyphname = fi;
kernLeft = f;
lastChange = "2021-07-22 20:34:11 +0000";
layers = (
{
background = {
shapes = (
{
closed = 1;
nodes = (
(453,672,l),
(417,709,o),
(378,730,o),
(320,730,cs),
(206,730,o),
(127,653,o),
(127,543,cs),
(127,0,l),
(237,0,l),
(237,544,ls),
(237,597,o),
(267,627,o),
(320,627,cs),
(349,627,o),
(366,617,o),
(382,601,c)
);
},
{
closed = 1;
nodes = (
(12,380,l),
(382,380,l),
(382,480,l),
(12,480,l)
);
},
{
closed = 1;
nodes = (
(570,0,l),
(570,480,l),
(460,480,l),
(460,0,l)
);
},
{
closed = 1;
nodes = (
(551,570,o),
(577,598,o),
(577,633,cs),
(577,668,o),
(551,696,o),
(515,696,cs),
(479,696,o),
(453,668,o),
(453,633,cs),
(453,598,o),
(479,570,o),
(515,570,cs)
);
}
);
};
layerId = m01;
shapes = (
{
closed = 1;
nodes = (
(237,0,l),
(237,564,ls),
(237,602,o),
(258,627,o),
(297,627,cs),
(317,627,o),
(332,621,o),
(345,610,c),
(417,682,l),
(384,713,o),
(347,730,o),
(297,730,cs),
(196,730,o),
(127,658,o),
(127,563,cs),
(127,0,l)
);
},
{
closed = 1;
nodes = (
(480,380,l),
(480,480,l),
(12,480,l),
(12,380,l)
);
},
{
closed = 1;
nodes = (
(527,0,l),
(527,480,l),
(417,480,l),
(417,0,l)
);
},
{
closed = 1;
nodes = (
(510,522,o),
(537,551,o),
(537,588,cs),
(537,625,o),
(510,654,o),
(472,654,cs),
(434,654,o),
(407,625,o),
(407,588,cs),
(407,551,o),
(434,522,o),
(472,522,cs)
);
}
);
width = 589;
},
{
layerId = "9F43D23A-D415-475F-B4C7-798B571F7CAB";
shapes = (
{
closed = 1;
nodes = (
(301,0,l),
(301,528,ls),
(301,554,o),
(315,572,o),
(342,572,cs),
(353,572,o),
(362,570,o),
(374,564,c),
(455,716,l),
(417,737,o),
(382,744,o),
(342,744,cs),
(192,744,o),
(105,639,o),
(105,512,cs),
(105,0,l)
);
},
{
closed = 1;
nodes = (
(516,332,l),
(516,492,l),
(5,492,l),
(5,332,l)
);
},
{
closed = 1;
nodes = (
(647,0,l),
(647,492,l),
(451,492,l),
(451,0,l)
);
},
{
closed = 1;
nodes = (
(603,520,o),
(642,562,o),
(642,615,cs),
(642,668,o),
(603,710,o),
(549,710,cs),
(495,710,o),
(456,668,o),
(456,615,cs),
(456,562,o),
(495,520,o),
(549,520,cs)
);
}
);
width = 691;
},
{
layerId = "0B0D9703-EF89-4C57-A339-A59A1335C1A4";
shapes = (
{
closed = 1;
nodes = (
(185,0,l),
(185,552,ls),
(185,628,o),
(226,677,o),
(297,677,cs),
(329,677,o),
(358,666,o),
(383,640,c),
(404,661,l),
(377,689,o),
(340,705,o),
(298,705,cs),
(214,705,o),
(153,643,o),
(153,556,cs),
(153,0,l)
);
},
{
closed = 1;
nodes = (
(430,433,l),
(430,460,l),
(31,460,l),
(31,433,l)
);
},
{
closed = 1;
nodes = (
(446,0,l),
(446,460,l),
(414,460,l),
(414,0,l)
);
},
{
closed = 1;
nodes = (
(448,533,o),
(462,548,o),
(462,566,cs),
(462,584,o),
(448,598,o),
(429,598,cs),
(411,598,o),
(398,584,o),
(398,566,cs),
(398,548,o),
(411,533,o),
(429,533,cs)
);
}
);
width = 526;
}
);
metricLeft = f;
metricRight = i;
unicode = 64257;
},
{
glyphname = fl;
kernLeft = f;
kernRight = l;
lastChange = "2021-07-22 20:34:11 +0000";
layers = (
{
background = {
shapes = (
{
closed = 1;
nodes = (
(7,380,l),
(338,380,l),
(338,480,l),
(7,480,l)
);
},
{
closed = 1;
nodes = (
(491,670,l),
(453,707,o),
(400,730,o),
(335,730,cs),
(211,730,o),
(122,632,o),
(122,523,cs),
(122,0,l),
(232,0,l),
(232,524,ls),
(232,584,o),
(269,627,o),
(335,627,cs),
(374,627,o),
(400,616,o),
(418,597,c)
);
},
{
closed = 1;
nodes = (
(527,0,l),
(527,728,l),
(517,728,l),
(417,662,l),
(417,0,l)
);
}
);
};
layerId = m01;
shapes = (
{
closed = 1;
nodes = (
(237,0,l),
(237,534,ls),
(237,584,o),
(269,627,o),
(333,627,c),
(333,730,l),
(206,730,o),
(127,637,o),
(127,533,cs),
(127,0,l)
);
},
{
closed = 1;
nodes = (
(463,380,l),
(463,480,l),
(12,480,l),
(12,380,l)
);
},
{
closed = 1;
nodes = (
(527,0,l),
(527,720,l),
(417,720,l),
(417,0,l)
);
}
);
width = 588;
},
{
layerId = "9F43D23A-D415-475F-B4C7-798B571F7CAB";
shapes = (
{
closed = 1;
nodes = (
(301,0,l),
(301,521,ls),
(301,552,o),
(321,572,o),
(347,572,c),
(347,744,l),
(192,744,o),
(105,639,o),
(105,512,cs),
(105,0,l)
);
},
{
closed = 1;
nodes = (
(517,332,l),
(517,492,l),
(5,492,l),
(5,332,l)
);
},
{
closed = 1;
nodes = (
(627,0,l),
(627,732,l),
(431,732,l),
(431,0,l)
);
}
);
width = 674;
},
{
layerId = "0B0D9703-EF89-4C57-A339-A59A1335C1A4";
shapes = (
{
closed = 1;
nodes = (
(185,0,l),
(185,552,ls),
(185,628,o),
(226,677,o),
(297,677,c),
(298,705,l),
(214,705,o),
(153,643,o),
(153,556,cs),
(153,0,l)
);
},
{
closed = 1;
nodes = (
(427,433,l),
(427,460,l),
(31,460,l),
(31,433,l)
);
},
{
closed = 1;
nodes = (
(446,0,l),
(446,710,l),
(415,710,l),
(415,0,l)
);
}
);
width = 526;
}
);
metricLeft = f;
metricRight = l;
unicode = 64258;
},
{
glyphname = o_u_t_f_i_t;
kernLeft = u;
kernRight = t;
lastChange = "2021-07-22 20:34:11 +0000";
layers = (
{
background = {
shapes = (
{
closed = 1;
nodes = (
(737,0,l),
(737,680,l),
(627,680,l),
(627,0,l)
);
},
{
closed = 1;
nodes = (
(512,380,l),
(852,380,l),
(852,480,l),
(512,480,l)
);
}
);
};
layerId = m01;
shapes = (
{
closed = 1;
nodes = (
(423,-10,o),
(533,100,o),
(533,241,cs),
(533,381,o),
(422,490,o),
(281,490,cs),
(140,490,o),
(30,380,o),
(30,241,cs),
(30,101,o),
(141,-10,o),
(281,-10,cs)
);
},
{
closed = 1;
nodes = (
(200,96,o),
(143,156,o),
(143,241,cs),
(143,324,o),
(200,384,o),
(281,384,cs),
(362,384,o),
(420,325,o),
(420,241,cs),
(420,156,o),
(363,96,o),
(281,96,cs)
);
},
{
closed = 1;
nodes = (
(945,-10,o),
(1030,75,o),
(1030,201,cs),
(1030,480,l),
(920,480,l),
(920,206,ls),
(920,135,o),
(885,96,o),
(821,96,cs),
(758,96,o),
(722,136,o),
(722,206,cs),
(722,480,l),
(612,480,l),
(612,201,ls),
(612,77,o),
(698,-10,o),
(821,-10,cs)
);
},
{
closed = 1;
nodes = (
(2320,380,l),
(2320,480,l),
(980,480,l),
(980,380,l)
);
},
{
closed = 1;
nodes = (
(1305,0,l),
(1305,680,l),
(1195,680,l),
(1195,0,l)
);
},
{
closed = 1;
nodes = (
(1595,0,l),
(1595,564,ls),
(1595,602,o),
(1616,627,o),
(1655,627,cs),
(1675,627,o),
(1690,621,o),
(1703,610,c),
(1775,682,l),
(1742,713,o),
(1705,730,o),
(1655,730,cs),
(1554,730,o),
(1485,658,o),
(1485,563,cs),
(1485,0,l)
);
},
{
closed = 1;
nodes = (
(1885,0,l),
(1885,480,l),
(1775,480,l),
(1775,0,l)
);
},
{
closed = 1;
nodes = (
(1866,520,o),
(1892,548,o),
(1892,583,cs),
(1892,618,o),
(1866,646,o),
(1830,646,cs),
(1794,646,o),
(1768,618,o),
(1768,583,cs),
(1768,548,o),
(1794,520,o),
(1830,520,cs)
);
},
{
closed = 1;
nodes = (
(2175,0,l),
(2175,680,l),
(2065,680,l),
(2065,0,l)
);
}
);
width = 2339;
},
{
layerId = "9F43D23A-D415-475F-B4C7-798B571F7CAB";
shapes = (
{
closed = 1;
nodes = (
(456,-12,o),
(574,98,o),
(574,247,cs),
(574,395,o),
(456,504,o),
(294,504,cs),
(132,504,o),
(14,395,o),
(14,247,cs),
(14,98,o),
(133,-12,o),
(295,-12,cs)
);
},
{
closed = 1;
nodes = (
(245,160,o),
(212,194,o),
(212,245,cs),
(212,297,o),
(245,332,o),
(294,332,cs),
(343,332,o),
(376,298,o),
(376,246,cs),
(376,194,o),
(344,160,o),
(294,160,cs)
);
},
{
closed = 1;
nodes = (
(1013,-12,o),
(1115,78,o),
(1115,208,cs),
(1115,492,l),
(919,492,l),
(919,206,ls),
(919,175,o),
(897,154,o),
(869,154,cs),
(839,154,o),
(818,175,o),
(818,206,cs),
(818,492,l),
(622,492,l),
(622,208,ls),
(622,79,o),
(725,-12,o),
(869,-12,cs)
);
},
{
closed = 1;
nodes = (
(2534,332,l),
(2534,492,l),
(1036,492,l),
(1036,332,l)
);
},
{
closed = 1;
nodes = (
(1431,0,l),
(1431,694,l),
(1235,694,l),
(1235,0,l)
);
},
{
closed = 1;
nodes = (
(1757,0,l),
(1757,528,ls),
(1757,554,o),
(1771,572,o),
(1798,572,cs),
(1809,572,o),
(1818,570,o),
(1830,564,c),
(1911,716,l),
(1873,737,o),
(1838,744,o),
(1798,744,cs),
(1648,744,o),
(1561,639,o),
(1561,512,cs),
(1561,0,l)
);
},
{
closed = 1;
nodes = (
(2103,0,l),
(2103,492,l),
(1907,492,l),
(1907,0,l)
);
},
{
closed = 1;
nodes = (
(2059,520,o),
(2098,562,o),
(2098,615,cs),
(2098,668,o),
(2059,710,o),
(2005,710,cs),
(1951,710,o),
(1912,668,o),
(1912,615,cs),
(1912,562,o),
(1951,520,o),
(2005,520,cs)
);
},
{
closed = 1;
nodes = (
(2429,0,l),
(2429,694,l),
(2233,694,l),
(2233,0,l)
);
}
);
width = 2541;
},
{
background = {
shapes = (
{
closed = 1;
nodes = (
(419,-10,o),
(523,94,o),
(523,232,cs),
(523,366,o),
(419,470,o),
(287,470,cs),
(153,470,o),
(50,366,o),
(50,232,cs),
(50,96,o),
(153,-10,o),
(287,-10,cs)
);
},
{
closed = 1;
nodes = (
(170,19,o),
(82,110,o),
(82,232,cs),
(82,351,o),
(170,441,o),
(287,441,cs),
(403,441,o),
(491,351,o),
(491,233,cs),
(491,110,o),
(403,19,o),
(287,19,cs)
);
},
{
closed = 1;
nodes = (
(940,-10,o),
(1017,73,o),
(1017,192,cs),
(1017,460,l),
(986,460,l),
(986,193,ls),
(986,90,o),
(923,18,o),
(830,18,cs),
(737,18,o),
(674,91,o),
(674,193,cs),
(674,460,l),
(643,460,l),
(643,192,ls),
(643,72,o),
(721,-10,o),
(830,-10,cs)
);
},
{
closed = 1;
nodes = (
(1259,0,l),
(1259,656,l),
(1227,656,l),
(1227,0,l)
);
},
{
closed = 1;
nodes = (
(1390,433,l),
(1390,460,l),
(1105,460,l),
(1105,433,l)
);
},
{
closed = 1;
nodes = (
(1521,0,l),
(1521,552,ls),
(1521,628,o),
(1562,677,o),
(1633,677,cs),
(1665,677,o),
(1694,666,o),
(1719,640,c),
(1740,661,l),
(1713,689,o),
(1676,705,o),
(1634,705,cs),
(1550,705,o),
(1489,643,o),
(1489,556,cs),
(1489,0,l)
);
},
{
closed = 1;
nodes = (
(1690,433,l),
(1690,460,l),
(1367,460,l),
(1367,433,l)
);
},
{
closed = 1;
nodes = (
(1783,0,l),
(1783,460,l),
(1751,460,l),
(1751,0,l)
);
},
{
closed = 1;
nodes = (
(1785,545,o),
(1799,560,o),
(1799,578,cs),
(1799,596,o),
(1785,610,o),
(1766,610,cs),
(1748,610,o),
(1735,596,o),
(1735,578,cs),
(1735,560,o),
(1748,545,o),
(1766,545,cs)
);
},
{
closed = 1;
nodes = (
(2045,0,l),
(2045,656,l),
(2013,656,l),
(2013,0,l)
);
},
{
closed = 1;
nodes = (
(2166,433,l),
(2166,460,l),
(1881,460,l),
(1881,433,l)
);
}
);
};
layerId = "0B0D9703-EF89-4C57-A339-A59A1335C1A4";
shapes = (
{
closed = 1;
nodes = (
(419,-10,o),
(523,94,o),
(523,232,cs),
(523,366,o),
(419,470,o),
(287,470,cs),
(153,470,o),
(50,366,o),
(50,232,cs),
(50,96,o),
(153,-10,o),
(287,-10,cs)
);
},
{
closed = 1;
nodes = (
(170,19,o),
(82,110,o),
(82,232,cs),
(82,351,o),
(170,441,o),
(287,441,cs),
(403,441,o),
(491,351,o),
(491,233,cs),
(491,110,o),
(403,19,o),
(287,19,cs)
);
},
{
closed = 1;
nodes = (
(940,-10,o),
(1017,73,o),
(1017,192,cs),
(1017,460,l),
(986,460,l),
(986,193,ls),
(986,90,o),
(923,18,o),
(830,18,cs),
(737,18,o),
(674,91,o),
(674,193,cs),
(674,460,l),
(643,460,l),
(643,192,ls),
(643,72,o),
(721,-10,o),
(830,-10,cs)
);
},
{
closed = 1;
nodes = (
(2166,433,l),
(2166,460,l),
(1004,460,l),
(1004,433,l)
);
},
{
closed = 1;
nodes = (
(1259,0,l),
(1259,656,l),
(1227,656,l),
(1227,0,l)
);
},
{
closed = 1;
nodes = (
(1521,0,l),
(1521,552,ls),
(1521,628,o),
(1562,677,o),
(1633,677,cs),
(1665,677,o),
(1694,666,o),
(1719,640,c),
(1740,661,l),
(1713,689,o),
(1676,705,o),
(1634,705,cs),
(1550,705,o),
(1489,643,o),
(1489,556,cs),
(1489,0,l)
);
},
{
closed = 1;
nodes = (
(1783,0,l),
(1783,460,l),
(1751,460,l),
(1751,0,l)
);
},
{
closed = 1;
nodes = (
(1785,545,o),
(1799,560,o),
(1799,578,cs),
(1799,596,o),
(1785,610,o),
(1766,610,cs),
(1748,610,o),
(1735,596,o),
(1735,578,cs),
(1735,560,o),
(1748,545,o),
(1766,545,cs)
);
},
{
closed = 1;
nodes = (
(2045,0,l),
(2045,656,l),
(2013,656,l),
(2013,0,l)
);
}
);
width = 2197;
}
);
metricLeft = o;
metricRight = t;
},
{
glyphname = o_u_t_f_i_t_t_e_d;
kernLeft = u;
kernRight = d;
lastChange = "2021-09-27 21:59:00 +0000";
layers = (
{
background = {
shapes = (
{
closed = 1;
nodes = (
(737,0,l),
(737,680,l),
(627,680,l),
(627,0,l)
);
},
{
closed = 1;
nodes = (
(512,380,l),
(852,380,l),
(852,480,l),
(512,480,l)
);
}
);
};
layerId = m01;
shapes = (
{
closed = 1;
nodes = (
(423,-10,o),
(533,100,o),
(533,241,cs),
(533,381,o),
(422,490,o),
(281,490,cs),
(140,490,o),
(30,380,o),
(30,241,cs),
(30,101,o),
(141,-10,o),
(281,-10,cs)
);
},
{
closed = 1;
nodes = (
(200,96,o),
(143,156,o),
(143,241,cs),
(143,324,o),
(200,384,o),
(281,384,cs),
(362,384,o),
(420,325,o),
(420,241,cs),
(420,156,o),
(363,96,o),
(281,96,cs)
);
},
{
closed = 1;
nodes = (
(945,-10,o),
(1030,75,o),
(1030,201,cs),
(1030,480,l),
(920,480,l),
(920,206,ls),
(920,135,o),
(885,96,o),
(821,96,cs),
(758,96,o),
(722,136,o),
(722,206,cs),
(722,480,l),
(612,480,l),
(612,201,ls),
(612,77,o),
(698,-10,o),
(821,-10,cs)
);
},
{
closed = 1;
nodes = (
(1305,0,l),
(1305,680,l),
(1195,680,l),
(1195,0,l)
);
},
{
closed = 1;
nodes = (
(1595,0,l),
(1595,564,ls),
(1595,602,o),
(1616,627,o),
(1655,627,cs),
(1675,627,o),
(1690,621,o),
(1703,610,c),
(1775,682,l),
(1742,713,o),
(1705,730,o),
(1655,730,cs),
(1554,730,o),
(1485,658,o),
(1485,563,cs),
(1485,0,l)
);
},
{
closed = 1;
nodes = (
(1885,0,l),
(1885,480,l),
(1775,480,l),
(1775,0,l)
);
},
{
closed = 1;
nodes = (
(2610,380,l),
(2610,480,l),
(980,480,l),
(980,380,l)
);
},
{
closed = 1;
nodes = (
(1866,520,o),
(1892,548,o),
(1892,583,cs),
(1892,618,o),
(1866,646,o),
(1830,646,cs),
(1794,646,o),
(1768,618,o),
(1768,583,cs),
(1768,548,o),
(1794,520,o),
(1830,520,cs)
);
},
{
closed = 1;
nodes = (
(2175,0,l),
(2175,680,l),
(2065,680,l),
(2065,0,l)
);
},
{
closed = 1;
nodes = (
(2465,0,l),
(2465,680,l),
(2355,680,l),
(2355,0,l)
);
},
{
closed = 1;
nodes = (
(2961,-10,o),
(3030,18,o),
(3077,73,c),
(3007,144,l),
(2978,110,o),
(2934,93,o),
(2885,93,cs),
(2798,93,o),
(2740,152,o),
(2740,243,cs),
(2740,332,o),
(2794,389,o),
(2878,389,cs),
(2957,389,o),
(3001,340,o),
(3005,253,c),
(3046,289,l),
(2709,289,l),
(2709,199,l),
(3103,199,l),
(3107,219,o),
(3109,235,o),
(3109,251,cs),
(3109,389,o),
(3013,490,o),
(2880,490,cs),
(2741,490,o),
(2632,381,o),
(2632,240,cs),
(2632,97,o),
(2742,-10,o),
(2886,-10,cs)
);
},
{
closed = 1;
nodes = (
(3508,-10,o),
(3588,66,o),
(3588,171,c),
(3588,309,l),
(3588,413,o),
(3507,490,o),
(3398,490,cs),
(3268,490,o),
(3167,380,o),
(3167,239,cs),
(3167,99,o),
(3268,-10,o),
(3398,-10,cs)
);
},
{
closed = 1;
nodes = (
(3336,94,o),
(3280,154,o),
(3280,240,cs),
(3280,326,o),
(3336,386,o),
(3416,386,cs),
(3497,386,o),
(3552,326,o),
(3552,240,cs),
(3552,154,o),
(3497,94,o),
(3416,94,cs)
);
},
{
closed = 1;
nodes = (
(3655,0,l),
(3655,720,l),
(3545,720,l),
(3545,362,l),
(3564,246,l),
(3545,129,l),
(3545,0,l)
);
}
);
width = 3716;
},
{
layerId = "9F43D23A-D415-475F-B4C7-798B571F7CAB";
shapes = (
{
closed = 1;
nodes = (
(456,-12,o),
(574,98,o),
(574,247,cs),
(574,395,o),
(456,504,o),
(294,504,cs),
(132,504,o),
(14,395,o),
(14,247,cs),
(14,98,o),
(133,-12,o),
(295,-12,cs)
);
},
{
closed = 1;
nodes = (
(245,160,o),
(212,194,o),
(212,245,cs),
(212,297,o),
(245,332,o),
(294,332,cs),
(343,332,o),
(376,298,o),
(376,246,cs),
(376,194,o),
(344,160,o),
(294,160,cs)
);
},
{
closed = 1;
nodes = (
(1013,-12,o),
(1115,78,o),
(1115,208,cs),
(1115,492,l),
(919,492,l),
(919,206,ls),
(919,175,o),
(897,154,o),
(869,154,cs),
(839,154,o),
(818,175,o),
(818,206,cs),
(818,492,l),
(622,492,l),
(622,208,ls),
(622,79,o),
(725,-12,o),
(869,-12,cs)
);
},
{
closed = 1;
nodes = (
(1431,0,l),
(1431,694,l),
(1235,694,l),
(1235,0,l)
);
},
{
closed = 1;
nodes = (
(1757,0,l),
(1757,528,ls),
(1757,554,o),
(1771,572,o),
(1798,572,cs),
(1809,572,o),
(1818,570,o),
(1830,564,c),
(1911,716,l),
(1873,737,o),
(1838,744,o),
(1798,744,cs),
(1648,744,o),
(1561,639,o),
(1561,512,cs),
(1561,0,l)
);
},
{
closed = 1;
nodes = (
(2103,0,l),
(2103,492,l),
(1907,492,l),
(1907,0,l)
);
},
{
closed = 1;
nodes = (
(2860,332,l),
(2860,492,l),
(1036,492,l),
(1036,332,l)
);
},
{
closed = 1;
nodes = (
(2059,520,o),
(2098,562,o),
(2098,615,cs),
(2098,668,o),
(2059,710,o),
(2005,710,cs),
(1951,710,o),
(1912,668,o),
(1912,615,cs),
(1912,562,o),
(1951,520,o),
(2005,520,cs)
);
},
{
closed = 1;
nodes = (
(2429,0,l),
(2429,694,l),
(2233,694,l),
(2233,0,l)
);
},
{
closed = 1;
nodes = (
(2755,0,l),
(2755,694,l),
(2559,694,l),
(2559,0,l)
);
},
{
closed = 1;
nodes = (
(3258,-12,o),
(3327,16,o),
(3377,72,c),
(3279,169,l),
(3250,136,o),
(3215,121,o),
(3169,121,cs),
(3097,121,o),
(3060,163,o),
(3060,245,cs),
(3060,325,o),
(3096,371,o),
(3157,371,cs),
(3215,371,o),
(3243,333,o),
(3243,254,c),
(3334,307,l),
(2963,304,l),
(2963,184,l),
(3407,187,l),
(3413,216,o),
(3415,237,o),
(3415,257,cs),
(3415,401,o),
(3306,504,o),
(3153,504,cs),
(2996,504,o),
(2880,395,o),
(2880,246,cs),
(2880,93,o),
(2997,-12,o),
(3169,-12,cs)
);
},
{
closed = 1;
nodes = (
(3775,-10,o),
(3856,47,o),
(3871,115,c),
(3871,387,l),
(3856,455,o),
(3775,502,o),
(3687,502,cs),
(3541,502,o),
(3444,396,o),
(3444,246,cs),
(3444,96,o),
(3541,-10,o),
(3687,-10,cs)
);
},
{
closed = 1;
nodes = (
(3676,162,o),
(3641,197,o),
(3641,246,cs),
(3641,294,o),
(3676,330,o),
(3724,330,cs),
(3772,330,o),
(3805,295,o),
(3805,246,cs),
(3805,196,o),
(3772,162,o),
(3723,162,cs)
);
},
{
closed = 1;
nodes = (
(3990,0,l),
(3990,732,l),
(3794,732,l),
(3794,371,l),
(3826,252,l),
(3799,132,l),
(3799,0,l)
);
}
);
width = 4037;
},
{
background = {
shapes = (
{
closed = 1;
nodes = (
(419,-10,o),
(523,94,o),
(523,232,cs),
(523,366,o),
(419,470,o),
(287,470,cs),
(153,470,o),
(50,366,o),
(50,232,cs),
(50,96,o),
(153,-10,o),
(287,-10,cs)
);
},
{
closed = 1;
nodes = (
(170,19,o),
(82,110,o),
(82,232,cs),
(82,351,o),
(170,441,o),
(287,441,cs),
(403,441,o),
(491,351,o),
(491,233,cs),
(491,110,o),
(403,19,o),
(287,19,cs)
);
},
{
closed = 1;
nodes = (
(940,-10,o),
(1017,73,o),
(1017,192,cs),
(1017,460,l),
(986,460,l),
(986,193,ls),
(986,90,o),
(923,18,o),
(830,18,cs),
(737,18,o),
(674,91,o),
(674,193,cs),
(674,460,l),
(643,460,l),
(643,192,ls),
(643,72,o),
(721,-10,o),
(830,-10,cs)
);
},
{
closed = 1;
nodes = (
(1259,0,l),
(1259,656,l),
(1227,656,l),
(1227,0,l)
);
},
{
closed = 1;
nodes = (
(1390,433,l),
(1390,460,l),
(1105,460,l),
(1105,433,l)
);
},
{
closed = 1;
nodes = (
(1521,0,l),
(1521,552,ls),
(1521,628,o),
(1562,677,o),
(1633,677,cs),
(1665,677,o),
(1694,666,o),
(1719,640,c),
(1740,661,l),
(1713,689,o),
(1676,705,o),
(1634,705,cs),
(1550,705,o),
(1489,643,o),
(1489,556,cs),
(1489,0,l)
);
},
{
closed = 1;
nodes = (
(1690,433,l),
(1690,460,l),
(1367,460,l),
(1367,433,l)
);
},
{
closed = 1;
nodes = (
(1783,0,l),
(1783,460,l),
(1751,460,l),
(1751,0,l)
);
},
{
closed = 1;
nodes = (
(1785,545,o),
(1799,560,o),
(1799,578,cs),
(1799,596,o),
(1785,610,o),
(1766,610,cs),
(1748,610,o),
(1735,596,o),
(1735,578,cs),
(1735,560,o),
(1748,545,o),
(1766,545,cs)
);
},
{
closed = 1;
nodes = (
(2045,0,l),
(2045,656,l),
(2013,656,l),
(2013,0,l)
);
},
{
closed = 1;
nodes = (
(2166,433,l),
(2166,460,l),
(1881,460,l),
(1881,433,l)
);
}
);
};
layerId = "0B0D9703-EF89-4C57-A339-A59A1335C1A4";
shapes = (
{
closed = 1;
nodes = (
(419,-10,o),
(523,94,o),
(523,232,cs),
(523,366,o),
(419,470,o),
(287,470,cs),
(153,470,o),
(50,366,o),
(50,232,cs),
(50,96,o),
(153,-10,o),
(287,-10,cs)
);
},
{
closed = 1;
nodes = (
(170,19,o),
(82,110,o),
(82,232,cs),
(82,351,o),
(170,441,o),
(287,441,cs),
(403,441,o),
(491,351,o),
(491,233,cs),
(491,110,o),
(403,19,o),
(287,19,cs)
);
},
{
closed = 1;
nodes = (
(940,-10,o),
(1017,73,o),
(1017,192,cs),
(1017,460,l),
(986,460,l),
(986,193,ls),
(986,90,o),
(923,18,o),
(830,18,cs),
(737,18,o),
(674,91,o),
(674,193,cs),
(674,460,l),
(643,460,l),
(643,192,ls),
(643,72,o),
(721,-10,o),
(830,-10,cs)
);
},
{
closed = 1;
nodes = (
(1259,0,l),
(1259,656,l),
(1227,656,l),
(1227,0,l)
);
},
{
closed = 1;
nodes = (
(1521,0,l),
(1521,552,ls),
(1521,628,o),
(1562,677,o),
(1633,677,cs),
(1665,677,o),
(1694,666,o),
(1719,640,c),
(1740,661,l),
(1713,689,o),
(1676,705,o),
(1634,705,cs),
(1550,705,o),
(1489,643,o),
(1489,556,cs),
(1489,0,l)
);
},
{
closed = 1;
nodes = (
(1783,0,l),
(1783,460,l),
(1751,460,l),
(1751,0,l)
);
},
{
closed = 1;
nodes = (
(2427,433,l),
(2427,460,l),
(1004,460,l),
(1004,433,l)
);
},
{
closed = 1;
nodes = (
(1785,545,o),
(1799,560,o),
(1799,578,cs),
(1799,596,o),
(1785,610,o),
(1766,610,cs),
(1748,610,o),
(1735,596,o),
(1735,578,cs),
(1735,560,o),
(1748,545,o),
(1766,545,cs)
);
},
{
closed = 1;
nodes = (
(2045,0,l),
(2045,656,l),
(2013,656,l),
(2013,0,l)
);
},
{
closed = 1;
nodes = (
(2307,0,l),
(2307,656,l),
(2275,656,l),
(2275,0,l)
);
},
{
closed = 1;
nodes = (
(2804,-10,o),
(2871,21,o),
(2912,70,c),
(2891,91,l),
(2853,43,o),
(2798,19,o),
(2734,19,cs),
(2606,19,o),
(2521,105,o),
(2521,233,cs),
(2521,356,o),
(2603,441,o),
(2723,441,cs),
(2837,441,o),
(2910,358,o),
(2903,241,c),
(2912,248,l),
(2511,248,l),
(2511,219,l),
(2932,219,l),
(2934,236,o),
(2935,248,o),
(2935,253,cs),
(2935,381,o),
(2847,470,o),
(2724,470,cs),
(2589,470,o),
(2489,366,o),
(2489,231,cs),
(2489,93,o),
(2591,-10,o),
(2730,-10,cs)
);
},
{
closed = 1;
nodes = (
(3365,-10,o),
(3449,53,o),
(3473,152,c),
(3473,309,l),
(3450,410,o),
(3361,470,o),
(3261,470,cs),
(3130,470,o),
(3032,367,o),
(3032,229,cs),
(3032,93,o),
(3129,-10,o),
(3261,-10,cs)
);
},
{
closed = 1;
nodes = (
(3148,19,o),
(3064,107,o),
(3064,230,cs),
(3064,353,o),
(3148,441,o),
(3264,441,cs),
(3380,441,o),
(3460,354,o),
(3460,229,cs),
(3460,106,o),
(3381,19,o),
(3267,19,cs)
);
},
{
closed = 1;
nodes = (
(3490,0,l),
(3490,696,l),
(3459,696,l),
(3459,348,l),
(3469,237,l),
(3459,123,l),
(3459,0,l)
);
}
);
width = 3570;
}
);
metricLeft = o;
metricRight = d;
},
{
glyphname = o_u_t_f_i_t_t_e_r;
kernLeft = u;
kernRight = d;
lastChange = "2021-09-27 22:02:09 +0000";
layers = (
{
background = {
shapes = (
{
closed = 1;
nodes = (
(737,0,l),
(737,680,l),
(627,680,l),
(627,0,l)
);
},
{
closed = 1;
nodes = (
(512,380,l),
(852,380,l),
(852,480,l),
(512,480,l)
);
}
);
};
layerId = m01;
shapes = (
{
closed = 1;
nodes = (
(423,-10,o),
(533,100,o),
(533,241,cs),
(533,381,o),
(422,490,o),
(281,490,cs),
(140,490,o),
(30,380,o),
(30,241,cs),
(30,101,o),
(141,-10,o),
(281,-10,cs)
);
},
{
closed = 1;
nodes = (
(200,96,o),
(143,156,o),
(143,241,cs),
(143,324,o),
(200,384,o),
(281,384,cs),
(362,384,o),
(420,325,o),
(420,241,cs),
(420,156,o),
(363,96,o),
(281,96,cs)
);
},
{
closed = 1;
nodes = (
(945,-10,o),
(1030,75,o),
(1030,201,cs),
(1030,480,l),
(920,480,l),
(920,206,ls),
(920,135,o),
(885,96,o),
(821,96,cs),
(758,96,o),
(722,136,o),
(722,206,cs),
(722,480,l),
(612,480,l),
(612,201,ls),
(612,77,o),
(698,-10,o),
(821,-10,cs)
);
},
{
closed = 1;
nodes = (
(1305,0,l),
(1305,680,l),
(1195,680,l),
(1195,0,l)
);
},
{
closed = 1;
nodes = (
(1595,0,l),
(1595,564,ls),
(1595,602,o),
(1616,627,o),
(1655,627,cs),
(1675,627,o),
(1690,621,o),
(1703,610,c),
(1775,682,l),
(1742,713,o),
(1705,730,o),
(1655,730,cs),
(1554,730,o),
(1485,658,o),
(1485,563,cs),
(1485,0,l)
);
},
{
closed = 1;
nodes = (
(1885,0,l),
(1885,480,l),
(1775,480,l),
(1775,0,l)
);
},
{
closed = 1;
nodes = (
(2610,380,l),
(2610,480,l),
(980,480,l),
(980,380,l)
);
},
{
closed = 1;
nodes = (
(1866,520,o),
(1892,548,o),
(1892,583,cs),
(1892,618,o),
(1866,646,o),
(1830,646,cs),
(1794,646,o),
(1768,618,o),
(1768,583,cs),
(1768,548,o),
(1794,520,o),
(1830,520,cs)
);
},
{
closed = 1;
nodes = (
(2175,0,l),
(2175,680,l),
(2065,680,l),
(2065,0,l)
);
},
{
closed = 1;
nodes = (
(2465,0,l),
(2465,680,l),
(2355,680,l),
(2355,0,l)
);
},
{
closed = 1;
nodes = (
(2961,-10,o),
(3030,18,o),
(3077,73,c),
(3007,144,l),
(2978,110,o),
(2934,93,o),
(2885,93,cs),
(2798,93,o),
(2740,152,o),
(2740,243,cs),
(2740,332,o),
(2794,389,o),
(2878,389,cs),
(2957,389,o),
(3001,340,o),
(3005,253,c),
(3046,289,l),
(2709,289,l),
(2709,199,l),
(3103,199,l),
(3107,219,o),
(3109,235,o),
(3109,251,cs),
(3109,389,o),
(3013,490,o),
(2880,490,cs),
(2741,490,o),
(2632,381,o),
(2632,240,cs),
(2632,97,o),
(2742,-10,o),
(2886,-10,cs)
);
},
{
closed = 1;
nodes = (
(3307,0,l),
(3307,480,l),
(3197,480,l),
(3197,0,l)
);
},
{
closed = 1;
nodes = (
(3307,349,o),
(3351,387,o),
(3413,387,cs),
(3441,387,o),
(3461,379,o),
(3479,361,c),
(3551,435,l),
(3518,473,o),
(3480,490,o),
(3432,490,cs),
(3323,490,o),
(3269,407,o),
(3269,286,c),
(3307,267,l)
);
}
);
width = 3561;
},
{
layerId = "9F43D23A-D415-475F-B4C7-798B571F7CAB";
shapes = (
{
closed = 1;
nodes = (
(456,-12,o),
(574,98,o),
(574,247,cs),
(574,395,o),
(456,504,o),
(294,504,cs),
(132,504,o),
(14,395,o),
(14,247,cs),
(14,98,o),
(133,-12,o),
(295,-12,cs)
);
},
{
closed = 1;
nodes = (
(245,160,o),
(212,194,o),
(212,245,cs),
(212,297,o),
(245,332,o),
(294,332,cs),
(343,332,o),
(376,298,o),
(376,246,cs),
(376,194,o),
(344,160,o),
(294,160,cs)
);
},
{
closed = 1;
nodes = (
(1013,-12,o),
(1115,78,o),
(1115,208,cs),
(1115,492,l),
(919,492,l),
(919,206,ls),
(919,175,o),
(897,154,o),
(869,154,cs),
(839,154,o),
(818,175,o),
(818,206,cs),
(818,492,l),
(622,492,l),
(622,208,ls),
(622,79,o),
(725,-12,o),
(869,-12,cs)
);
},
{
closed = 1;
nodes = (
(1431,0,l),
(1431,694,l),
(1235,694,l),
(1235,0,l)
);
},
{
closed = 1;
nodes = (
(1757,0,l),
(1757,528,ls),
(1757,554,o),
(1771,572,o),
(1798,572,cs),
(1809,572,o),
(1818,570,o),
(1830,564,c),
(1911,716,l),
(1873,737,o),
(1838,744,o),
(1798,744,cs),
(1648,744,o),
(1561,639,o),
(1561,512,cs),
(1561,0,l)
);
},
{
closed = 1;
nodes = (
(2103,0,l),
(2103,492,l),
(1907,492,l),
(1907,0,l)
);
},
{
closed = 1;
nodes = (
(2860,332,l),
(2860,492,l),
(1036,492,l),
(1036,332,l)
);
},
{
closed = 1;
nodes = (
(2059,520,o),
(2098,562,o),
(2098,615,cs),
(2098,668,o),
(2059,710,o),
(2005,710,cs),
(1951,710,o),
(1912,668,o),
(1912,615,cs),
(1912,562,o),
(1951,520,o),
(2005,520,cs)
);
},
{
closed = 1;
nodes = (
(2429,0,l),
(2429,694,l),
(2233,694,l),
(2233,0,l)
);
},
{
closed = 1;
nodes = (
(2755,0,l),
(2755,694,l),
(2559,694,l),
(2559,0,l)
);
},
{
closed = 1;
nodes = (
(3258,-12,o),
(3327,16,o),
(3377,72,c),
(3279,169,l),
(3250,136,o),
(3215,121,o),
(3169,121,cs),
(3097,121,o),
(3060,163,o),
(3060,245,cs),
(3060,325,o),
(3096,371,o),
(3157,371,cs),
(3215,371,o),
(3243,333,o),
(3243,254,c),
(3334,307,l),
(2963,304,l),
(2963,184,l),
(3407,187,l),
(3413,216,o),
(3415,237,o),
(3415,257,cs),
(3415,401,o),
(3306,504,o),
(3153,504,cs),
(2996,504,o),
(2880,395,o),
(2880,246,cs),
(2880,93,o),
(2997,-12,o),
(3169,-12,cs)
);
},
{
closed = 1;
nodes = (
(3670,0,l),
(3670,492,l),
(3474,492,l),
(3474,0,l)
);
},
{
closed = 1;
nodes = (
(3670,310,o),
(3690,334,o),
(3730,334,cs),
(3754,334,o),
(3772,325,o),
(3782,315,c),
(3892,471,l),
(3872,491,o),
(3839,502,o),
(3794,502,cs),
(3693,502,o),
(3629,453,o),
(3579,347,c),
(3670,266,l)
);
}
);
width = 3889;
},
{
background = {
shapes = (
{
closed = 1;
nodes = (
(419,-10,o),
(523,94,o),
(523,232,cs),
(523,366,o),
(419,470,o),
(287,470,cs),
(153,470,o),
(50,366,o),
(50,232,cs),
(50,96,o),
(153,-10,o),
(287,-10,cs)
);
},
{
closed = 1;
nodes = (
(170,19,o),
(82,110,o),
(82,232,cs),
(82,351,o),
(170,441,o),
(287,441,cs),
(403,441,o),
(491,351,o),
(491,233,cs),
(491,110,o),
(403,19,o),
(287,19,cs)
);
},
{
closed = 1;
nodes = (
(940,-10,o),
(1017,73,o),
(1017,192,cs),
(1017,460,l),
(986,460,l),
(986,193,ls),
(986,90,o),
(923,18,o),
(830,18,cs),
(737,18,o),
(674,91,o),
(674,193,cs),
(674,460,l),
(643,460,l),
(643,192,ls),
(643,72,o),
(721,-10,o),
(830,-10,cs)
);
},
{
closed = 1;
nodes = (
(1259,0,l),
(1259,656,l),
(1227,656,l),
(1227,0,l)
);
},
{
closed = 1;
nodes = (
(1390,433,l),
(1390,460,l),
(1105,460,l),
(1105,433,l)
);
},
{
closed = 1;
nodes = (
(1521,0,l),
(1521,552,ls),
(1521,628,o),
(1562,677,o),
(1633,677,cs),
(1665,677,o),
(1694,666,o),
(1719,640,c),
(1740,661,l),
(1713,689,o),
(1676,705,o),
(1634,705,cs),
(1550,705,o),
(1489,643,o),
(1489,556,cs),
(1489,0,l)
);
},
{
closed = 1;
nodes = (
(1690,433,l),
(1690,460,l),
(1367,460,l),
(1367,433,l)
);
},
{
closed = 1;
nodes = (
(1783,0,l),
(1783,460,l),
(1751,460,l),
(1751,0,l)
);
},
{
closed = 1;
nodes = (
(1785,545,o),
(1799,560,o),
(1799,578,cs),
(1799,596,o),
(1785,610,o),
(1766,610,cs),
(1748,610,o),
(1735,596,o),
(1735,578,cs),
(1735,560,o),
(1748,545,o),
(1766,545,cs)
);
},
{
closed = 1;
nodes = (
(2045,0,l),
(2045,656,l),
(2013,656,l),
(2013,0,l)
);
},
{
closed = 1;
nodes = (
(2166,433,l),
(2166,460,l),
(1881,460,l),
(1881,433,l)
);
}
);
};
layerId = "0B0D9703-EF89-4C57-A339-A59A1335C1A4";
shapes = (
{
closed = 1;
nodes = (
(419,-10,o),
(523,94,o),
(523,232,cs),
(523,366,o),
(419,470,o),
(287,470,cs),
(153,470,o),
(50,366,o),
(50,232,cs),
(50,96,o),
(153,-10,o),
(287,-10,cs)
);
},
{
closed = 1;
nodes = (
(170,19,o),
(82,110,o),
(82,232,cs),
(82,351,o),
(170,441,o),
(287,441,cs),
(403,441,o),
(491,351,o),
(491,233,cs),
(491,110,o),
(403,19,o),
(287,19,cs)
);
},
{
closed = 1;
nodes = (
(940,-10,o),
(1017,73,o),
(1017,192,cs),
(1017,460,l),
(986,460,l),
(986,193,ls),
(986,90,o),
(923,18,o),
(830,18,cs),
(737,18,o),
(674,91,o),
(674,193,cs),
(674,460,l),
(643,460,l),
(643,192,ls),
(643,72,o),
(721,-10,o),
(830,-10,cs)
);
},
{
closed = 1;
nodes = (
(1259,0,l),
(1259,656,l),
(1227,656,l),
(1227,0,l)
);
},
{
closed = 1;
nodes = (
(1521,0,l),
(1521,552,ls),
(1521,628,o),
(1562,677,o),
(1633,677,cs),
(1665,677,o),
(1694,666,o),
(1719,640,c),
(1740,661,l),
(1713,689,o),
(1676,705,o),
(1634,705,cs),
(1550,705,o),
(1489,643,o),
(1489,556,cs),
(1489,0,l)
);
},
{
closed = 1;
nodes = (
(1783,0,l),
(1783,460,l),
(1751,460,l),
(1751,0,l)
);
},
{
closed = 1;
nodes = (
(2427,433,l),
(2427,460,l),
(1004,460,l),
(1004,433,l)
);
},
{
closed = 1;
nodes = (
(1785,545,o),
(1799,560,o),
(1799,578,cs),
(1799,596,o),
(1785,610,o),
(1766,610,cs),
(1748,610,o),
(1735,596,o),
(1735,578,cs),
(1735,560,o),
(1748,545,o),
(1766,545,cs)
);
},
{
closed = 1;
nodes = (
(2045,0,l),
(2045,656,l),
(2013,656,l),
(2013,0,l)
);
},
{
closed = 1;
nodes = (
(2307,0,l),
(2307,656,l),
(2275,656,l),
(2275,0,l)
);
},
{
closed = 1;
nodes = (
(2804,-10,o),
(2871,21,o),
(2912,70,c),
(2891,91,l),
(2853,43,o),
(2798,19,o),
(2734,19,cs),
(2606,19,o),
(2521,105,o),
(2521,233,cs),
(2521,356,o),
(2603,441,o),
(2723,441,cs),
(2837,441,o),
(2910,358,o),
(2903,241,c),
(2912,248,l),
(2511,248,l),
(2511,219,l),
(2932,219,l),
(2934,236,o),
(2935,248,o),
(2935,253,cs),
(2935,381,o),
(2847,470,o),
(2724,470,cs),
(2589,470,o),
(2489,366,o),
(2489,231,cs),
(2489,93,o),
(2591,-10,o),
(2730,-10,cs)
);
},
{
closed = 1;
nodes = (
(3092,0,l),
(3092,460,l),
(3061,460,l),
(3061,0,l)
);
},
{
closed = 1;
nodes = (
(3092,382,o),
(3148,440,o),
(3229,440,cs),
(3271,440,o),
(3303,427,o),
(3331,397,c),
(3352,420,l),
(3319,455,o),
(3279,470,o),
(3234,470,cs),
(3141,470,o),
(3071,404,o),
(3071,287,c),
(3092,281,l)
);
}
);
width = 3383;
}
);
metricLeft = o;
metricRight = r;
},
{
glyphname = r_f;
kernLeft = n;
kernRight = f;
lastChange = "2021-07-22 20:34:11 +0000";
layers = (
{
layerId = m01;
shapes = (
{
closed = 1;
nodes = (
(171,0,l),
(171,480,l),
(61,480,l),
(61,0,l)
);
},
{
closed = 1;
nodes = (
(533,0,l),
(533,544,ls),
(533,597,o),
(563,627,o),
(616,627,cs),
(645,627,o),
(662,617,o),
(678,601,c),
(749,672,l),
(713,709,o),
(674,730,o),
(616,730,cs),
(502,730,o),
(423,653,o),
(423,543,cs),
(423,0,l)
);
},
{
closed = 1;
nodes = (
(171,349,o),
(215,380,o),
(297,380,cs),
(678,380,l),
(678,480,l),
(316,480,ls),
(187,480,o),
(133,407,o),
(133,286,c),
(171,267,l)
);
}
);
width = 699;
},
{
layerId = "9F43D23A-D415-475F-B4C7-798B571F7CAB";
shapes = (
{
closed = 1;
nodes = (
(243,0,l),
(243,492,l),
(47,492,l),
(47,0,l)
);
},
{
closed = 1;
nodes = (
(599,0,l),
(599,521,ls),
(599,552,o),
(619,572,o),
(650,572,cs),
(666,572,o),
(681,567,o),
(691,557,c),
(812,678,l),
(773,718,o),
(715,744,o),
(640,744,cs),
(490,744,o),
(403,639,o),
(403,512,cs),
(403,0,l)
);
},
{
closed = 1;
nodes = (
(243,308,o),
(273,332,o),
(343,332,cs),
(734,332,l),
(734,493,l),
(397,493,ls),
(266,493,o),
(202,444,o),
(152,338,c),
(243,264,l)
);
}
);
width = 766;
},
{
layerId = "0B0D9703-EF89-4C57-A339-A59A1335C1A4";
shapes = (
{
closed = 1;
nodes = (
(111,0,l),
(111,460,l),
(80,460,l),
(80,0,l)
);
},
{
closed = 1;
nodes = (
(468,0,l),
(468,552,ls),
(468,628,o),
(509,677,o),
(580,677,cs),
(612,677,o),
(641,666,o),
(666,640,c),
(687,661,l),
(660,689,o),
(623,705,o),
(581,705,cs),
(497,705,o),
(436,643,o),
(436,556,cs),
(436,0,l)
);
},
{
closed = 1;
nodes = (
(111,372,o),
(167,433,o),
(278,433,cs),
(637,433,l),
(637,460,l),
(283,460,ls),
(160,460,o),
(90,394,o),
(90,277,c),
(111,271,l)
);
}
);
width = 669;
}
);
metricLeft = r;
metricRight = f;
},
{
glyphname = r_t;
kernLeft = n;
kernRight = t;
lastChange = "2021-07-22 20:34:11 +0000";
layers = (
{
layerId = m01;
shapes = (
{
closed = 1;
nodes = (
(171,0,l),
(171,480,l),
(61,480,l),
(61,0,l)
);
},
{
closed = 1;
nodes = (
(171,349,o),
(215,380,o),
(297,380,cs),
(652,380,l),
(652,480,l),
(316,480,ls),
(187,480,o),
(133,407,o),
(133,286,c),
(171,267,l)
);
},
{
closed = 1;
nodes = (
(537,0,l),
(537,680,l),
(427,680,l),
(427,0,l)
);
}
);
width = 671;
},
{
background = {
shapes = (
{
ref = r_f;
}
);
};
layerId = "9F43D23A-D415-475F-B4C7-798B571F7CAB";
shapes = (
{
closed = 1;
nodes = (
(243,0,l),
(243,492,l),
(47,492,l),
(47,0,l)
);
},
{
closed = 1;
nodes = (
(243,308,o),
(273,332,o),
(343,332,cs),
(704,332,l),
(704,493,l),
(397,493,ls),
(266,493,o),
(202,444,o),
(152,338,c),
(243,264,l)
);
},
{
closed = 1;
nodes = (
(599,0,l),
(599,694,l),
(403,694,l),
(403,0,l)
);
}
);
width = 711;
},
{
layerId = "0B0D9703-EF89-4C57-A339-A59A1335C1A4";
shapes = (
{
closed = 1;
nodes = (
(111,0,l),
(111,460,l),
(80,460,l),
(80,0,l)
);
},
{
closed = 1;
nodes = (
(111,372,o),
(167,433,o),
(278,433,cs),
(589,433,l),
(589,460,l),
(283,460,ls),
(160,460,o),
(90,394,o),
(90,277,c),
(111,271,l)
);
},
{
closed = 1;
nodes = (
(468,0,l),
(468,656,l),
(436,656,l),
(436,0,l)
);
}
);
width = 620;
}
);
metricLeft = r;
metricRight = t;
},
{
glyphname = t_f;
kernLeft = t;
kernRight = f;
lastChange = "2021-07-22 20:34:11 +0000";
layers = (
{
layerId = m01;
shapes = (
{
closed = 1;
nodes = (
(244,0,l),
(244,680,l),
(134,680,l),
(134,0,l)
);
},
{
closed = 1;
nodes = (
(679,380,l),
(679,480,l),
(19,480,l),
(19,380,l)
);
},
{
closed = 1;
nodes = (
(534,0,l),
(534,544,ls),
(534,597,o),
(564,627,o),
(617,627,cs),
(646,627,o),
(663,617,o),
(679,601,c),
(750,672,l),
(714,709,o),
(675,730,o),
(617,730,cs),
(503,730,o),
(424,653,o),
(424,543,cs),
(424,0,l)
);
}
);
width = 700;
},
{
layerId = "9F43D23A-D415-475F-B4C7-798B571F7CAB";
shapes = (
{
closed = 1;
nodes = (
(308,0,l),
(308,694,l),
(112,694,l),
(112,0,l)
);
},
{
closed = 1;
nodes = (
(769,332,l),
(769,492,l),
(7,492,l),
(7,332,l)
);
},
{
closed = 1;
nodes = (
(634,0,l),
(634,521,ls),
(634,552,o),
(654,572,o),
(685,572,cs),
(701,572,o),
(716,567,o),
(726,557,c),
(847,678,l),
(808,718,o),
(750,744,o),
(675,744,cs),
(525,744,o),
(438,639,o),
(438,512,cs),
(438,0,l)
);
}
);
width = 801;
},
{
layerId = "0B0D9703-EF89-4C57-A339-A59A1335C1A4";
shapes = (
{
closed = 1;
nodes = (
(185,0,l),
(185,656,l),
(153,656,l),
(153,0,l)
);
},
{
closed = 1;
nodes = (
(616,433,l),
(616,460,l),
(31,460,l),
(31,433,l)
);
},
{
closed = 1;
nodes = (
(447,0,l),
(447,552,ls),
(447,628,o),
(488,677,o),
(559,677,cs),
(591,677,o),
(620,666,o),
(645,640,c),
(666,661,l),
(639,689,o),
(602,705,o),
(560,705,cs),
(476,705,o),
(415,643,o),
(415,556,cs),
(415,0,l)
);
}
);
width = 648;
}
);
metricLeft = t;
metricRight = f;
},
{
glyphname = t_t;
kernLeft = t;
kernRight = t;
lastChange = "2021-07-22 20:34:11 +0000";
layers = (
{
layerId = m01;
shapes = (
{
closed = 1;
nodes = (
(244,0,l),
(244,680,l),
(134,680,l),
(134,0,l)
);
},
{
closed = 1;
nodes = (
(649,380,l),
(649,480,l),
(19,480,l),
(19,380,l)
);
},
{
closed = 1;
nodes = (
(534,0,l),
(534,680,l),
(424,680,l),
(424,0,l)
);
}
);
width = 668;
},
{
layerId = "9F43D23A-D415-475F-B4C7-798B571F7CAB";
shapes = (
{
closed = 1;
nodes = (
(308,0,l),
(308,694,l),
(112,694,l),
(112,0,l)
);
},
{
closed = 1;
nodes = (
(739,332,l),
(739,492,l),
(7,492,l),
(7,332,l)
);
},
{
closed = 1;
nodes = (
(634,0,l),
(634,694,l),
(438,694,l),
(438,0,l)
);
}
);
width = 746;
},
{
layerId = "0B0D9703-EF89-4C57-A339-A59A1335C1A4";
shapes = (
{
closed = 1;
nodes = (
(185,0,l),
(185,656,l),
(153,656,l),
(153,0,l)
);
},
{
closed = 1;
nodes = (
(568,433,l),
(568,460,l),
(31,460,l),
(31,433,l)
);
},
{
closed = 1;
nodes = (
(447,0,l),
(447,656,l),
(415,656,l),
(415,0,l)
);
}
);
width = 599;
}
);
metricLeft = t;
metricRight = t;
},
{
glyphname = ordfeminine;
lastChange = "2021-09-27 22:04:59 +0000";
layers = (
{
layerId = "0B0D9703-EF89-4C57-A339-A59A1335C1A4";
shapes = (
{
closed = 1;
nodes = (
(232,392,o),
(279,430,o),
(291,491,c),
(291,583,l),
(279,646,o),
(230,682,o),
(169,682,cs),
(89,682,o),
(28,619,o),
(28,536,cs),
(28,454,o),
(89,392,o),
(170,392,cs)
);
},
{
closed = 1;
nodes = (
(105,417,o),
(55,468,o),
(55,537,cs),
(55,606,o),
(104,657,o),
(172,657,cs),
(237,657,o),
(281,609,o),
(281,537,cs),
(281,464,o),
(238,417,o),
(173,417,cs)
);
},
{
closed = 1;
nodes = (
(306,398,l),
(306,676,l),
(280,676,l),
(280,608,l),
(286,541,l),
(280,472,l),
(280,398,l)
);
}
);
width = 352;
},
{
layerId = m01;
shapes = (
{
closed = 1;
nodes = (
(218,403,o),
(261,445,o),
(264,495,c),
(264,614,l),
(261,665,o),
(216,706,o),
(155,706,cs),
(75,706,o),
(15,641,o),
(15,554,cs),
(15,468,o),
(75,403,o),
(155,403,cs)
);
},
{
closed = 1;
nodes = (
(133,482,o),
(104,512,o),
(104,555,cs),
(104,596,o),
(132,627,o),
(172,627,cs),
(212,627,o),
(240,597,o),
(240,555,cs),
(240,512,o),
(212,482,o),
(172,482,cs)
);
},
{
closed = 1;
nodes = (
(322,409,l),
(322,700,l),
(236,700,l),
(236,628,l),
(249,558,l),
(236,487,l),
(236,409,l)
);
}
);
width = 355;
},
{
layerId = "9F43D23A-D415-475F-B4C7-798B571F7CAB";
shapes = (
{
closed = 1;
nodes = (
(202,410,o),
(245,438,o),
(254,478,c),
(254,650,l),
(245,690,o),
(201,718,o),
(151,718,cs),
(68,718,o),
(10,653,o),
(10,564,cs),
(10,474,o),
(68,410,o),
(151,410,cs)
);
},
{
closed = 1;
nodes = (
(151,515,o),
(130,535,o),
(130,564,cs),
(130,592,o),
(151,613,o),
(179,613,cs),
(206,613,o),
(226,592,o),
(226,564,cs),
(226,535,o),
(207,515,o),
(178,515,cs)
);
},
{
closed = 1;
nodes = (
(339,416,l),
(339,712,l),
(222,712,l),
(222,639,l),
(239,567,l),
(222,495,l),
(222,416,l)
);
}
);
width = 367;
}
);
unicode = 170;
},
{
glyphname = ordmasculine;
lastChange = "2021-09-27 22:06:09 +0000";
layers = (
{
layerId = "0B0D9703-EF89-4C57-A339-A59A1335C1A4";
shapes = (
{
closed = 1;
nodes = (
(251,392,o),
(315,455,o),
(315,538,cs),
(315,619,o),
(251,682,o),
(172,682,cs),
(91,682,o),
(28,619,o),
(28,538,cs),
(28,456,o),
(91,392,o),
(172,392,cs)
);
},
{
closed = 1;
nodes = (
(105,417,o),
(55,469,o),
(55,538,cs),
(55,606,o),
(105,657,o),
(172,657,cs),
(237,657,o),
(288,606,o),
(288,539,cs),
(288,469,o),
(238,417,o),
(172,417,cs)
);
}
);
width = 343;
},
{
layerId = m01;
shapes = (
{
closed = 1;
nodes = (
(262,401,o),
(330,468,o),
(330,554,cs),
(330,640,o),
(261,706,o),
(172,706,cs),
(82,706,o),
(14,639,o),
(14,554,cs),
(14,468,o),
(83,401,o),
(172,401,cs)
);
},
{
closed = 1;
nodes = (
(132,482,o),
(103,511,o),
(103,554,cs),
(103,595,o),
(131,625,o),
(172,625,cs),
(212,625,o),
(241,596,o),
(241,554,cs),
(241,511,o),
(213,482,o),
(172,482,cs)
);
}
);
width = 344;
},
{
layerId = "9F43D23A-D415-475F-B4C7-798B571F7CAB";
shapes = (
{
closed = 1;
nodes = (
(274,408,o),
(345,474,o),
(345,563,cs),
(345,652,o),
(274,718,o),
(177,718,cs),
(79,718,o),
(8,652,o),
(8,563,cs),
(8,474,o),
(80,408,o),
(177,408,cs)
);
},
{
closed = 1;
nodes = (
(148,513,o),
(129,533,o),
(129,562,cs),
(129,592,o),
(148,613,o),
(177,613,cs),
(205,613,o),
(224,593,o),
(224,563,cs),
(224,533,o),
(206,513,o),
(177,513,cs)
);
}
);
width = 353;
}
);
unicode = 186;
},
{
glyphname = zero;
lastChange = "2021-07-28 20:27:01 +0000";
layers = (
{
layerId = m01;
shapes = (
{
closed = 1;
nodes = (
(487,-10,o),
(614,130,o),
(614,350,cs),
(614,571,o),
(486,710,o),
(327,710,cs),
(168,710,o),
(41,571,o),
(41,351,cs),
(41,131,o),
(170,-10,o),
(329,-10,cs)
);
},
{
closed = 1;
nodes = (
(225,98,o),
(157,181,o),
(157,351,cs),
(157,520,o),
(225,602,o),
(327,602,cs),
(429,602,o),
(498,519,o),
(498,351,cs),
(498,181,o),
(430,98,o),
(327,98,cs)
);
}
);
width = 655;
},
{
layerId = "9F43D23A-D415-475F-B4C7-798B571F7CAB";
shapes = (
{
closed = 1;
nodes = (
(523,-12,o),
(654,141,o),
(654,356,cs),
(654,571,o),
(522,724,o),
(337,724,cs),
(153,724,o),
(22,571,o),
(22,357,cs),
(22,143,o),
(155,-12,o),
(339,-12,cs)
);
},
{
closed = 1;
nodes = (
(264,158,o),
(222,230,o),
(222,357,cs),
(222,483,o),
(264,554,o),
(337,554,cs),
(412,554,o),
(454,482,o),
(454,356,cs),
(454,230,o),
(412,158,o),
(338,158,cs)
);
}
);
width = 676;
},
{
layerId = "0B0D9703-EF89-4C57-A339-A59A1335C1A4";
shapes = (
{
closed = 1;
nodes = (
(477,-10,o),
(594,125,o),
(594,338,cs),
(594,552,o),
(476,686,o),
(329,686,cs),
(182,686,o),
(65,552,o),
(65,339,cs),
(65,126,o),
(184,-10,o),
(331,-10,cs)
);
},
{
closed = 1;
nodes = (
(199,20,o),
(97,141,o),
(97,339,cs),
(97,535,o),
(199,656,o),
(329,656,cs),
(460,656,o),
(562,534,o),
(562,339,cs),
(562,141,o),
(460,20,o),
(329,20,cs)
);
}
);
width = 659;
}
);
unicode = 48;
userData = {
KernOnName = zero;
};
},
{
glyphname = one;
lastChange = "2021-07-27 21:06:17 +0000";
layers = (
{
background = {
shapes = (
{
closed = 1;
nodes = (
(279,0,l),
(279,700,l),
(166,700,l),
(166,0,l)
);
},
{
closed = 1;
nodes = (
(279,597,l),
(279,700,l),
(-24,700,l),
(-24,597,l)
);
}
);
};
guides = (
{
angle = 45;
pos = (199,700);
}
);
layerId = m01;
shapes = (
{
closed = 1;
nodes = (
(279,0,l),
(279,700,l),
(166,700,l),
(166,0,l)
);
},
{
closed = 1;
nodes = (
(269,597,l),
(269,700,l),
(26,700,l),
(26,597,l)
);
}
);
width = 355;
},
{
layerId = "9F43D23A-D415-475F-B4C7-798B571F7CAB";
shapes = (
{
closed = 1;
nodes = (
(344,0,l),
(344,712,l),
(146,712,l),
(146,0,l)
);
},
{
closed = 1;
nodes = (
(334,548,l),
(334,712,l),
(13,712,l),
(13,548,l)
);
}
);
width = 401;
},
{
layerId = "0B0D9703-EF89-4C57-A339-A59A1335C1A4";
shapes = (
{
closed = 1;
nodes = (
(226,0,l),
(226,676,l),
(195,676,l),
(195,0,l)
);
},
{
closed = 1;
nodes = (
(216,648,l),
(216,676,l),
(45,676,l),
(45,648,l)
);
}
);
width = 321;
}
);
unicode = 49;
userData = {
KernOnName = one;
};
},
{
glyphname = two;
lastChange = "2021-07-27 21:06:32 +0000";
layers = (
{
background = {
shapes = (
{
closed = 1;
nodes = (
(397,283,o),
(487,375,o),
(487,496,cs),
(487,618,o),
(397,710,o),
(274,710,cs),
(151,710,o),
(60,618,o),
(60,496,cs),
(60,375,o),
(151,283,o),
(274,283,cs)
);
},
{
closed = 1;
nodes = (
(331,398,o),
(378,445,o),
(378,503,cs),
(378,560,o),
(331,608,o),
(274,608,cs),
(217,608,o),
(168,560,o),
(168,503,cs),
(168,445,o),
(217,398,o),
(274,398,cs)
);
}
);
};
layerId = m01;
shapes = (
{
closed = 1;
nodes = (
(176,71,l),
(374,276,ls),
(461,367,o),
(489,415,o),
(489,504,cs),
(489,626,o),
(402,710,o),
(272,710,cs),
(166,710,o),
(86,661,o),
(32,566,c),
(112,500,l),
(152,570,o),
(201,603,o),
(268,603,cs),
(331,603,o),
(376,565,o),
(376,503,cs),
(376,452,o),
(350,410,o),
(286,342,cs),
(28,68,l)
);
},
{
closed = 1;
nodes = (
(503,0,l),
(503,103,l),
(127,103,l),
(28,68,l),
(28,0,l)
);
}
);
width = 541;
},
{
background = {
shapes = (
{
closed = 1;
nodes = (
(193,433,o),
(227,399,o),
(272,399,cs),
(316,399,o),
(351,433,o),
(351,477,cs),
(351,522,o),
(316,555,o),
(272,555,cs),
(227,555,o),
(193,522,o),
(193,477,cs)
);
}
);
};
guides = (
{
pos = (167,724);
},
{
angle = -41.9872;
pos = (88,524);
showMeasurement = 1;
}
);
layerId = "9F43D23A-D415-475F-B4C7-798B571F7CAB";
shapes = (
{
closed = 1;
nodes = (
(259,100,l),
(438,270,ls),
(514,342,o),
(546,406,o),
(546,488,cs),
(546,634,o),
(446,724,o),
(285,724,cs),
(166,724,o),
(72,675,o),
(13,582,c),
(143,465,l),
(187,530,o),
(222,555,o),
(268,555,cs),
(319,555,o),
(351,525,o),
(351,479,cs),
(351,451,o),
(338,427,o),
(304,393,cs),
(20,107,l)
);
},
{
closed = 1;
nodes = (
(561,0,l),
(561,164,l),
(186,164,l),
(20,107,l),
(20,0,l)
);
}
);
width = 587;
},
{
layerId = "0B0D9703-EF89-4C57-A339-A59A1335C1A4";
shapes = (
{
closed = 1;
nodes = (
(93,25,l),
(327,264,ls),
(438,378,o),
(466,425,o),
(466,502,cs),
(466,615,o),
(390,686,o),
(272,686,cs),
(180,686,o),
(112,646,o),
(59,571,c),
(82,548,l),
(130,619,o),
(189,656,o),
(272,656,cs),
(372,656,o),
(434,598,o),
(434,504,cs),
(434,438,o),
(413,397,o),
(299,280,cs),
(48,22,l)
);
},
{
closed = 1;
nodes = (
(486,0,l),
(486,28,l),
(69,28,l),
(48,22,l),
(48,0,l)
);
}
);
width = 539;
}
);
unicode = 50;
userData = {
KernOnName = two;
};
},
{
glyphname = three;
lastChange = "2021-07-27 21:07:08 +0000";
layers = (
{
background = {
shapes = (
{
closed = 0;
nodes = (
(158,344,l),
(179,351,o),
(203,354,o),
(229,354,cs),
(332,354,o),
(385,295,o),
(385,226,cs),
(385,157,o),
(332,98,o),
(229,98,cs),
(172,98,o),
(122,115,o),
(95,148,c)
);
}
);
};
layerId = m01;
shapes = (
{
closed = 1;
nodes = (
(398,-10,o),
(500,84,o),
(500,220,cs),
(500,345,o),
(416,428,o),
(308,428,c),
(279,428,o),
(246,420,o),
(218,409,c),
(167,343,l),
(187,349,o),
(214,353,o),
(238,353,cs),
(329,353,o),
(384,305,o),
(384,226,cs),
(384,149,o),
(329,98,o),
(244,98,cs),
(184,98,o),
(130,125,o),
(102,168,c),
(24,90,l),
(76,25,o),
(153,-10,o),
(246,-10,cs)
);
},
{
closed = 1;
nodes = (
(297,408,l),
(492,632,l),
(354,629,l),
(167,411,l),
(167,343,l)
);
},
{
closed = 1;
nodes = (
(393,597,l),
(492,632,l),
(492,700,l),
(59,700,l),
(59,597,l)
);
}
);
width = 540;
},
{
layerId = "9F43D23A-D415-475F-B4C7-798B571F7CAB";
shapes = (
{
closed = 1;
nodes = (
(438,-12,o),
(555,87,o),
(555,234,cs),
(555,362,o),
(472,441,o),
(365,441,c),
(337,441,o),
(300,432,o),
(254,422,c),
(167,314,l),
(183,320,o),
(217,324,o),
(244,324,cs),
(316,324,o),
(360,292,o),
(360,239,cs),
(360,185,o),
(316,154,o),
(256,154,cs),
(206,154,o),
(155,177,o),
(132,209,c),
(7,86,l),
(67,23,o),
(157,-12,o),
(259,-12,cs)
);
},
{
closed = 1;
nodes = (
(375,422,l),
(537,605,l),
(324,606,l),
(167,421,l),
(167,314,l)
);
},
{
closed = 1;
nodes = (
(390,548,l),
(537,605,l),
(537,712,l),
(60,712,l),
(60,548,l)
);
}
);
width = 578;
},
{
layerId = "0B0D9703-EF89-4C57-A339-A59A1335C1A4";
shapes = (
{
closed = 1;
nodes = (
(377,-10,o),
(470,75,o),
(470,197,cs),
(470,315,o),
(379,404,o),
(257,404,cs),
(224,404,o),
(202,398,o),
(186,384,c),
(180,368,l),
(206,374,o),
(227,377,o),
(248,377,cs),
(361,377,o),
(438,304,o),
(438,197,cs),
(438,90,o),
(361,19,o),
(250,19,cs),
(172,19,o),
(107,53,o),
(68,112,c),
(47,91,l),
(94,25,o),
(166,-10,o),
(250,-10,cs)
);
},
{
closed = 1;
nodes = (
(212,381,l),
(462,654,l),
(429,662,l),
(180,390,l),
(180,368,l)
);
},
{
closed = 1;
nodes = (
(434,648,l),
(462,654,l),
(462,676,l),
(73,676,l),
(73,648,l)
);
}
);
width = 530;
}
);
unicode = 51;
userData = {
KernOnName = three;
};
},
{
glyphname = four;
lastChange = "2021-07-28 20:25:26 +0000";
layers = (
{
background = {
shapes = (
{
pos = (-49,0);
ref = zero;
}
);
};
layerId = m01;
shapes = (
{
closed = 1;
nodes = (
(152,250,l),
(407,700,l),
(277,700,l),
(28,250,l)
);
},
{
closed = 1;
nodes = (
(571,180,l),
(571,283,l),
(77,283,l),
(28,250,l),
(28,180,l)
);
},
{
closed = 1;
nodes = (
(473,0,l),
(473,458,l),
(360,458,l),
(360,0,l)
);
}
);
width = 599;
},
{
layerId = "9F43D23A-D415-475F-B4C7-798B571F7CAB";
shapes = (
{
closed = 1;
nodes = (
(221,240,l),
(440,712,l),
(228,712,l),
(14,240,l)
);
},
{
closed = 1;
nodes = (
(602,133,l),
(602,297,l),
(68,297,l),
(14,240,l),
(14,133,l)
);
},
{
closed = 1;
nodes = (
(543,0,l),
(543,416,l),
(348,416,l),
(348,0,l)
);
}
);
width = 618;
},
{
background = {
shapes = (
{
pos = (-17,0);
ref = zero;
}
);
};
layerId = "0B0D9703-EF89-4C57-A339-A59A1335C1A4";
shapes = (
{
closed = 1;
nodes = (
(79,206,l),
(347,676,l),
(312,676,l),
(48,206,l)
);
},
{
closed = 1;
nodes = (
(547,184,l),
(547,212,l),
(61,212,l),
(48,206,l),
(48,184,l)
);
},
{
closed = 1;
nodes = (
(440,0,l),
(440,460,l),
(409,460,l),
(409,0,l)
);
}
);
width = 594;
}
);
unicode = 52;
userData = {
KernOnName = four;
};
},
{
glyphname = five;
lastChange = "2021-07-27 20:34:14 +0000";
layers = (
{
layerId = m01;
shapes = (
{
closed = 1;
nodes = (
(400,-10,o),
(509,89,o),
(509,225,cs),
(509,350,o),
(430,453,o),
(282,453,cs),
(206,453,o),
(162,433,o),
(130,391,c),
(127,319,l),
(167,349,o),
(206,360,o),
(260,360,cs),
(330,360,o),
(393,317,o),
(393,231,cs),
(393,149,o),
(332,98,o),
(245,98,cs),
(181,98,o),
(127,125,o),
(99,168,c),
(21,90,l),
(73,25,o),
(150,-10,o),
(247,-10,cs)
);
},
{
closed = 1;
nodes = (
(164,369,l),
(200,700,l),
(95,700,l),
(64,382,l),
(127,319,l)
);
},
{
closed = 1;
nodes = (
(470,597,l),
(470,700,l),
(95,700,l),
(115,597,l)
);
}
);
width = 545;
},
{
background = {
shapes = (
{
closed = 1;
nodes = (
(441,-12,o),
(565,89,o),
(565,228,cs),
(565,355,o),
(474,460,o),
(306,460,cs),
(220,460,o),
(170,440,o),
(133,397,c),
(130,324,l),
(175,354,o),
(220,366,o),
(281,366,cs),
(361,366,o),
(433,322,o),
(433,234,cs),
(433,150,o),
(363,98,o),
(265,98,cs),
(191,98,o),
(130,126,o),
(98,170,c),
(9,90,l),
(68,24,o),
(156,-12,o),
(267,-12,cs)
);
},
{
closed = 1;
nodes = (
(172,375,l),
(213,712,l),
(94,712,l),
(58,388,l),
(130,324,l)
);
},
{
closed = 1;
nodes = (
(520,607,l),
(520,712,l),
(94,712,l),
(116,607,l)
);
}
);
};
layerId = "9F43D23A-D415-475F-B4C7-798B571F7CAB";
shapes = (
{
closed = 1;
nodes = (
(441,-12,o),
(552,90,o),
(552,237,cs),
(552,365,o),
(464,476,o),
(299,476,cs),
(238,476,o),
(212,462,o),
(153,432,c),
(131,304,l),
(157,324,o),
(196,339,o),
(239,339,cs),
(315,339,o),
(356,297,o),
(356,244,cs),
(356,190,o),
(315,154,o),
(252,154,cs),
(203,154,o),
(152,177,o),
(129,209,c),
(3,86,l),
(63,23,o),
(163,-12,o),
(260,-12,cs)
);
},
{
closed = 1;
nodes = (
(236,387,l),
(273,712,l),
(95,712,l),
(58,368,l),
(131,304,l)
);
},
{
closed = 1;
nodes = (
(513,548,l),
(513,712,l),
(95,712,l),
(117,548,l)
);
}
);
width = 575;
},
{
layerId = "0B0D9703-EF89-4C57-A339-A59A1335C1A4";
shapes = (
{
closed = 1;
nodes = (
(376,-10,o),
(471,77,o),
(471,201,cs),
(471,327,o),
(382,416,o),
(253,416,cs),
(189,416,o),
(134,397,o),
(94,358,c),
(100,335,l),
(137,370,o),
(193,389,o),
(253,389,cs),
(363,389,o),
(439,313,o),
(439,202,cs),
(439,92,o),
(360,19,o),
(249,19,cs),
(171,19,o),
(108,53,o),
(69,112,c),
(48,91,l),
(95,25,o),
(165,-10,o),
(249,-10,cs)
);
},
{
closed = 1;
nodes = (
(113,351,l),
(144,676,l),
(114,676,l),
(85,351,l),
(100,335,l)
);
},
{
closed = 1;
nodes = (
(448,648,l),
(448,676,l),
(114,676,l),
(131,648,l)
);
}
);
width = 530;
}
);
unicode = 53;
},
{
glyphname = six;
lastChange = "2021-07-28 20:26:46 +0000";
layers = (
{
background = {
shapes = (
{
closed = 1;
nodes = (
(419,-10,o),
(529,100,o),
(529,236,cs),
(529,371,o),
(430,462,o),
(309,462,cs),
(234,462,o),
(199,433,o),
(179,388,c),
(224,413,l),
(441,700,l),
(308,700,l),
(108,426,ls),
(60,360,o),
(34,299,o),
(34,232,cs),
(34,97,o),
(141,-10,o),
(281,-10,cs)
);
},
{
closed = 1;
nodes = (
(149,313,o),
(205,372,o),
(281,372,cs),
(356,372,o),
(414,314,o),
(414,236,cs),
(414,157,o),
(357,98,o),
(281,98,cs),
(205,98,o),
(149,157,o),
(149,236,cs)
);
}
);
};
guides = (
{
angle = 145.1204;
pos = (393,613);
showMeasurement = 1;
}
);
layerId = m01;
shapes = (
{
closed = 1;
nodes = (
(419,-10,o),
(529,100,o),
(529,236,cs),
(529,371,o),
(430,462,o),
(309,462,cs),
(232,462,o),
(199,433,o),
(179,388,c),
(221,413,l),
(425,700,l),
(292,700,l),
(101,426,ls),
(55,359,o),
(34,299,o),
(34,232,cs),
(34,97,o),
(141,-10,o),
(281,-10,cs)
);
},
{
closed = 1;
nodes = (
(205,98,o),
(149,157,o),
(149,236,cs),
(149,313,o),
(205,372,o),
(281,372,cs),
(356,372,o),
(414,314,o),
(414,236,cs),
(414,157,o),
(357,98,o),
(281,98,cs)
);
}
);
width = 562;
},
{
background = {
shapes = (
{
closed = 1;
nodes = (
(457,-12,o),
(582,100,o),
(582,239,cs),
(582,377,o),
(469,469,o),
(330,469,cs),
(243,469,o),
(204,440,o),
(182,394,c),
(230,419,l),
(463,712,l),
(311,712,l),
(92,433,ls),
(40,364,o),
(16,303,o),
(16,235,cs),
(16,97,o),
(138,-12,o),
(299,-12,cs)
);
},
{
closed = 1;
nodes = (
(211,98,o),
(147,158,o),
(147,239,cs),
(147,317,o),
(211,378,o),
(299,378,cs),
(384,378,o),
(450,318,o),
(450,239,cs),
(450,158,o),
(385,98,o),
(299,98,cs)
);
}
);
};
layerId = "9F43D23A-D415-475F-B4C7-798B571F7CAB";
shapes = (
{
closed = 1;
nodes = (
(449,-12,o),
(568,96,o),
(568,238,cs),
(568,372,o),
(458,479,o),
(319,479,cs),
(244,479,o),
(223,448,o),
(189,398,c),
(264,382,l),
(503,712,l),
(281,712,l),
(74,407,ls),
(35,350,o),
(16,295,o),
(16,238,cs),
(16,96,o),
(135,-12,o),
(292,-12,cs)
);
},
{
closed = 1;
nodes = (
(242,154,o),
(206,192,o),
(206,244,cs),
(206,296,o),
(242,334,o),
(292,334,cs),
(342,334,o),
(378,296,o),
(378,244,cs),
(378,192,o),
(342,154,o),
(292,154,cs)
);
}
);
width = 584;
},
{
background = {
shapes = (
{
closed = 1;
nodes = (
(411,-10,o),
(511,96,o),
(511,228,cs),
(511,358,o),
(421,446,o),
(310,446,cs),
(239,446,o),
(208,418,o),
(190,375,c),
(229,399,l),
(416,676,l),
(294,676,l),
(119,411,ls),
(76,347,o),
(57,289,o),
(57,224,cs),
(57,93,o),
(155,-10,o),
(284,-10,cs)
);
},
{
closed = 1;
nodes = (
(214,94,o),
(163,151,o),
(163,228,cs),
(163,302,o),
(214,359,o),
(284,359,cs),
(353,359,o),
(406,303,o),
(406,228,cs),
(406,151,o),
(354,94,o),
(284,94,cs)
);
}
);
};
guides = (
{
angle = 142.075;
pos = (257,426);
showMeasurement = 1;
}
);
layerId = "0B0D9703-EF89-4C57-A339-A59A1335C1A4";
shapes = (
{
closed = 1;
nodes = (
(409,-10,o),
(511,91,o),
(511,216,cs),
(511,339,o),
(410,442,o),
(288,442,cs),
(241,442,o),
(195,427,o),
(159,401,c),
(169,396,l),
(393,676,l),
(354,676,l),
(112,365,ls),
(76,319,o),
(57,268,o),
(57,215,cs),
(57,89,o),
(157,-10,o),
(283,-10,cs)
);
},
{
closed = 1;
nodes = (
(176,17,o),
(89,105,o),
(89,216,cs),
(89,327,o),
(176,415,o),
(284,415,cs),
(390,415,o),
(479,324,o),
(479,216,cs),
(479,108,o),
(390,17,o),
(284,17,cs)
);
}
);
width = 568;
}
);
unicode = 54;
},
{
glyphname = seven;
lastChange = "2021-07-28 20:26:15 +0000";
layers = (
{
layerId = m01;
shapes = (
{
closed = 1;
nodes = (
(246,0,l),
(495,630,l),
(381,630,l),
(126,0,l)
);
},
{
closed = 1;
nodes = (
(446,597,l),
(495,630,l),
(495,700,l),
(26,700,l),
(26,597,l)
);
}
);
width = 522;
},
{
layerId = "9F43D23A-D415-475F-B4C7-798B571F7CAB";
shapes = (
{
closed = 1;
nodes = (
(306,0,l),
(519,605,l),
(326,605,l),
(102,0,l)
);
},
{
closed = 1;
nodes = (
(463,548,l),
(519,605,l),
(519,712,l),
(13,712,l),
(13,548,l)
);
}
);
width = 532;
},
{
layerId = "0B0D9703-EF89-4C57-A339-A59A1335C1A4";
shapes = (
{
closed = 1;
nodes = (
(216,0,l),
(485,654,l),
(457,664,l),
(183,0,l)
);
},
{
closed = 1;
nodes = (
(470,648,l),
(485,654,l),
(485,676,l),
(45,676,l),
(45,648,l)
);
}
);
width = 533;
}
);
unicode = 55;
userData = {
KernOnName = seven;
};
},
{
glyphname = eight;
lastChange = "2021-07-28 20:26:39 +0000";
layers = (
{
layerId = m01;
shapes = (
{
closed = 1;
nodes = (
(418,-10,o),
(511,75,o),
(511,194,cs),
(511,288,o),
(453,363,o),
(354,388,c),
(357,356,l),
(438,378,o),
(480,447,o),
(480,522,cs),
(480,633,o),
(393,711,o),
(274,711,cs),
(155,711,o),
(68,633,o),
(68,522,cs),
(68,447,o),
(110,378,o),
(191,356,c),
(194,388,l),
(95,363,o),
(37,288,o),
(37,194,cs),
(37,75,o),
(130,-10,o),
(274,-10,cs)
);
},
{
closed = 1;
nodes = (
(200,94,o),
(147,142,o),
(147,209,cs),
(147,276,o),
(200,324,o),
(274,324,cs),
(348,324,o),
(401,276,o),
(401,209,cs),
(401,142,o),
(348,94,o),
(274,94,cs)
);
},
{
closed = 1;
nodes = (
(216,414,o),
(174,455,o),
(174,514,cs),
(174,572,o),
(216,613,o),
(274,613,cs),
(332,613,o),
(374,572,o),
(374,514,cs),
(374,455,o),
(332,414,o),
(274,414,cs)
);
}
);
width = 548;
},
{
layerId = "9F43D23A-D415-475F-B4C7-798B571F7CAB";
shapes = (
{
closed = 1;
nodes = (
(450,-12,o),
(555,77,o),
(555,199,cs),
(555,305,o),
(490,378,o),
(398,394,c),
(402,361,l),
(482,374,o),
(529,450,o),
(529,527,cs),
(529,640,o),
(431,724,o),
(288,724,cs),
(144,724,o),
(46,640,o),
(46,527,cs),
(46,450,o),
(94,374,o),
(174,361,c),
(177,394,l),
(86,378,o),
(21,305,o),
(21,199,cs),
(21,77,o),
(126,-12,o),
(288,-12,cs)
);
},
{
closed = 1;
nodes = (
(242,152,o),
(210,185,o),
(210,229,cs),
(210,272,o),
(242,305,o),
(288,305,cs),
(334,305,o),
(366,272,o),
(366,229,cs),
(366,185,o),
(334,152,o),
(288,152,cs)
);
},
{
closed = 1;
nodes = (
(253,444,o),
(228,470,o),
(228,504,cs),
(228,539,o),
(253,563,o),
(288,563,cs),
(322,563,o),
(347,537,o),
(347,502,cs),
(347,468,o),
(322,444,o),
(288,444,cs)
);
}
);
width = 576;
},
{
background = {
shapes = (
{
closed = 1;
nodes = (
(411,-10,o),
(497,72,o),
(497,186,cs),
(497,277,o),
(444,350,o),
(351,374,c),
(355,343,l),
(429,364,o),
(469,431,o),
(469,503,cs),
(469,610,o),
(388,686,o),
(278,686,cs),
(168,686,o),
(87,610,o),
(87,503,cs),
(87,431,o),
(127,364,o),
(201,343,c),
(205,374,l),
(112,350,o),
(59,277,o),
(59,186,cs),
(59,72,o),
(145,-10,o),
(278,-10,cs)
);
},
{
closed = 1;
nodes = (
(210,90,o),
(160,136,o),
(160,201,cs),
(160,266,o),
(210,312,o),
(278,312,cs),
(346,312,o),
(396,266,o),
(396,201,cs),
(396,136,o),
(346,90,o),
(278,90,cs)
);
},
{
closed = 1;
nodes = (
(224,399,o),
(186,438,o),
(186,495,cs),
(186,551,o),
(224,591,o),
(278,591,cs),
(332,591,o),
(370,551,o),
(370,495,cs),
(370,438,o),
(332,399,o),
(278,399,cs)
);
}
);
};
layerId = "0B0D9703-EF89-4C57-A339-A59A1335C1A4";
shapes = (
{
closed = 1;
nodes = (
(403,-10,o),
(497,75,o),
(497,187,cs),
(497,276,o),
(438,352,o),
(354,370,c),
(335,360,l),
(415,382,o),
(464,443,o),
(464,520,cs),
(464,617,o),
(386,686,o),
(278,686,cs),
(170,686,o),
(92,617,o),
(92,520,cs),
(92,443,o),
(141,382,o),
(221,360,c),
(202,370,l),
(118,352,o),
(59,276,o),
(59,187,cs),
(59,75,o),
(153,-10,o),
(278,-10,cs)
);
},
{
closed = 1;
nodes = (
(168,17,o),
(91,87,o),
(91,187,cs),
(91,285,o),
(169,356,o),
(278,356,cs),
(387,356,o),
(465,285,o),
(465,187,cs),
(465,87,o),
(388,17,o),
(278,17,cs)
);
},
{
closed = 1;
nodes = (
(187,379,o),
(124,436,o),
(124,520,cs),
(124,602,o),
(187,659,o),
(278,659,cs),
(369,659,o),
(432,602,o),
(432,520,cs),
(432,436,o),
(369,379,o),
(278,379,cs)
);
}
);
width = 556;
}
);
unicode = 56;
userData = {
KernOnName = eight;
};
},
{
glyphname = nine;
lastChange = "2021-07-28 20:26:53 +0000";
layers = (
{
layerId = m01;
shapes = (
{
closed = 1;
nodes = (
(270,0,l),
(461,274,ls),
(507,341,o),
(528,401,o),
(528,468,cs),
(528,603,o),
(421,710,o),
(281,710,cs),
(143,710,o),
(33,600,o),
(33,464,cs),
(33,329,o),
(132,238,o),
(253,238,cs),
(330,238,o),
(363,267,o),
(383,312,c),
(342,287,l),
(137,0,l)
);
},
{
closed = 1;
nodes = (
(206,328,o),
(148,386,o),
(148,464,cs),
(148,543,o),
(205,602,o),
(281,602,cs),
(357,602,o),
(413,543,o),
(413,464,cs),
(413,387,o),
(357,328,o),
(281,328,cs)
);
}
);
width = 562;
},
{
layerId = "9F43D23A-D415-475F-B4C7-798B571F7CAB";
shapes = (
{
closed = 1;
nodes = (
(303,0,l),
(510,305,ls),
(549,362,o),
(568,417,o),
(568,474,cs),
(568,616,o),
(449,724,o),
(292,724,cs),
(135,724,o),
(16,616,o),
(16,474,cs),
(16,340,o),
(126,233,o),
(265,233,cs),
(340,233,o),
(361,264,o),
(395,314,c),
(320,330,l),
(81,0,l)
);
},
{
closed = 1;
nodes = (
(242,378,o),
(206,416,o),
(206,468,cs),
(206,520,o),
(242,558,o),
(292,558,cs),
(342,558,o),
(378,520,o),
(378,468,cs),
(378,416,o),
(342,378,o),
(292,378,cs)
);
}
);
width = 584;
},
{
layerId = "0B0D9703-EF89-4C57-A339-A59A1335C1A4";
shapes = (
{
closed = 1;
nodes = (
(214,0,l),
(456,311,ls),
(492,357,o),
(511,408,o),
(511,461,cs),
(511,587,o),
(411,686,o),
(285,686,cs),
(159,686,o),
(57,585,o),
(57,460,cs),
(57,337,o),
(158,234,o),
(280,234,cs),
(327,234,o),
(373,249,o),
(409,275,c),
(399,280,l),
(175,0,l)
);
},
{
closed = 1;
nodes = (
(178,261,o),
(89,352,o),
(89,460,cs),
(89,568,o),
(178,659,o),
(284,659,cs),
(392,659,o),
(479,571,o),
(479,460,cs),
(479,349,o),
(392,261,o),
(284,261,cs)
);
}
);
width = 568;
}
);
unicode = 57;
},
{
glyphname = one.ss01;
lastChange = "2021-07-22 20:34:11 +0000";
layers = (
{
layerId = m01;
shapes = (
{
closed = 1;
nodes = (
(293,0,l),
(293,700,l),
(213,700,l),
(180,621,l),
(180,0,l)
);
},
{
closed = 1;
nodes = (
(225,585,l),
(213,700,l),
(20,507,l),
(84,444,l)
);
}
);
width = 366;
},
{
background = {
shapes = (
{
closed = 1;
nodes = (
(395,0,l),
(395,712,l),
(230,712,l),
(197,632,l),
(197,0,l)
);
},
{
closed = 1;
nodes = (
(243,595,l),
(230,712,l),
(34,516,l),
(99,452,l)
);
}
);
};
layerId = "9F43D23A-D415-475F-B4C7-798B571F7CAB";
shapes = (
{
closed = 1;
nodes = (
(395,0,l),
(395,712,l),
(230,712,l),
(197,632,l),
(197,0,l)
);
},
{
closed = 1;
nodes = (
(293,562,l),
(230,712,l),
(3,514,l),
(109,392,l)
);
}
);
width = 452;
},
{
background = {
shapes = (
{
pos = (-9,0);
ref = one;
}
);
};
layerId = "0B0D9703-EF89-4C57-A339-A59A1335C1A4";
shapes = (
{
closed = 1;
nodes = (
(221,0,l),
(221,676,l),
(204,676,l),
(190,647,l),
(190,0,l)
);
},
{
closed = 1;
nodes = (
(191,627,l),
(204,676,l),
(49,517,l),
(68,498,l)
);
}
);
width = 321;
}
);
},
{
glyphname = zero.tf;
lastChange = "2021-07-15 21:00:53 +0000";
layers = (
{
layerId = m01;
shapes = (
{
closed = 1;
nodes = (
(449,-10,o),
(572,130,o),
(572,350,cs),
(572,571,o),
(448,710,o),
(294,710,cs),
(141,710,o),
(18,571,o),
(18,351,cs),
(18,132,o),
(142,-10,o),
(296,-10,cs)
);
},
{
closed = 1;
nodes = (
(198,98,o),
(134,181,o),
(134,351,cs),
(134,520,o),
(198,602,o),
(294,602,cs),
(391,602,o),
(456,519,o),
(456,351,cs),
(456,181,o),
(392,98,o),
(295,98,cs)
);
}
);
width = 590;
},
{
layerId = "9F43D23A-D415-475F-B4C7-798B571F7CAB";
shapes = (
{
closed = 1;
nodes = (
(473,-12,o),
(598,141,o),
(598,356,cs),
(598,571,o),
(472,724,o),
(294,724,cs),
(117,724,o),
(-8,571,o),
(-8,357,cs),
(-8,143,o),
(119,-12,o),
(296,-12,cs)
);
},
{
closed = 1;
nodes = (
(228,158,o),
(191,230,o),
(191,357,cs),
(191,483,o),
(228,554,o),
(294,554,cs),
(362,554,o),
(399,482,o),
(399,356,cs),
(399,230,o),
(362,158,o),
(295,158,cs)
);
}
);
width = 590;
},
{
layerId = "0B0D9703-EF89-4C57-A339-A59A1335C1A4";
shapes = (
{
closed = 1;
nodes = (
(436,-10,o),
(548,125,o),
(548,338,cs),
(548,552,o),
(435,686,o),
(295,686,cs),
(154,686,o),
(42,552,o),
(42,339,cs),
(42,126,o),
(156,-10,o),
(296,-10,cs)
);
},
{
closed = 1;
nodes = (
(171,20,o),
(74,141,o),
(74,339,cs),
(74,535,o),
(171,656,o),
(295,656,cs),
(419,656,o),
(516,534,o),
(516,339,cs),
(516,141,o),
(419,20,o),
(295,20,cs)
);
}
);
width = 590;
}
);
},
